<?xml version="1.0" encoding="utf-8"?>
<!-- Generator: Adobe Illustrator 24.0.0, SVG Export Plug-In . SVG Version: 6.00 Build 0)  -->
<svg version="1.1" id="Layer_1" xmlns="http://www.w3.org/2000/svg" xmlns:xlink="http://www.w3.org/1999/xlink" x="0px" y="0px"
	 viewBox="0 0 536 536" style="enable-background:new 0 0 536 536;" xml:space="preserve">
<style type="text/css">
	.st0{fill:#263238;}
	.st1{fill:#3F3F3F;}
	.st2{fill:#FAFAFA;}
	.st3{fill:#455A64;}
	.st4{opacity:0.4;}
	.st5{opacity:0.6;}
	.st6{fill:#FFFFFF;}
	.st7{fill:#EB996E;}
	.st8{fill:#FFBE9D;}
	.st9{opacity:0.3;}
	.st10{fill:#E0E0E0;}
</style>
<g id="freepik--Floor--inject-36">
	<path class="st0" d="M521.8,511.8c0,0.2-113.4,0.3-253.2,0.3s-253.2-0.1-253.2-0.3s113.3-0.3,253.2-0.3S521.8,511.6,521.8,511.8z"
		/>
</g>
<g>
	<g id="freepik--Plant--inject-36">
		<polygon class="st1" points="432.6,459.1 440.5,511.3 486.7,511.3 497.4,459.9 		"/>
		<path class="st2" d="M491,492.6c0,0.1-11.8,0.3-26.4,0.3s-26.4-0.1-26.4-0.3s11.8-0.3,26.4-0.3S491,492.4,491,492.6z"/>
		<path class="st2" d="M491.1,490c0,0.1-11.9,0.3-26.6,0.3S438,490.2,438,490s11.9-0.3,26.6-0.3S491.1,489.8,491.1,490z"/>
		<path class="st2" d="M491,487.1c0,0.1-11.9,0.3-26.6,0.3s-26.6-0.1-26.6-0.3s11.9-0.3,26.6-0.3S491,487,491,487.1z"/>
		<path class="st2" d="M445.9,508.4c-0.6-2.1-1.1-4.3-1.4-6.6c-0.5-2.2-0.8-4.4-0.9-6.7C444.7,499.5,445.5,503.9,445.9,508.4
			L445.9,508.4z"/>
		<path class="st2" d="M449,507.8c-0.3-2.1-0.5-4.2-0.5-6.4c-0.2-2.1-0.3-4.3-0.3-6.4c0.5,2.1,0.8,4.2,0.8,6.4
			C449.2,503.5,449.2,505.7,449,507.8z"/>
		<path class="st2" d="M454.7,507.8c-0.6-2.1-1-4.4-1.2-6.6c-0.3-2.2-0.5-4.4-0.3-6.7C453.9,499,454.4,503.4,454.7,507.8z"/>
		<path class="st2" d="M458.7,508.1c-0.4-2.2-0.7-4.4-0.6-6.7c-0.2-2.2-0.1-4.5,0.2-6.7c0.2,2.2,0.4,4.5,0.3,6.7
			C458.8,503.6,458.8,505.9,458.7,508.1z"/>
		<path class="st2" d="M465.8,507.8c-0.5-4.2-0.6-8.5-0.4-12.7c0.3,2.1,0.5,4.2,0.4,6.3C466,503.6,466,505.7,465.8,507.8z"/>
		<path class="st2" d="M471,508.1c-0.3-4.4-0.3-8.8,0.1-13.1C471.4,499.3,471.4,503.7,471,508.1z"/>
		<path class="st2" d="M475.9,507.4c0.1-4.6,0.5-9.1,1.3-13.7C477.1,498.3,476.7,502.9,475.9,507.4z"/>
		<path class="st2" d="M482.2,506.7c0.2-3.9,1-7.8,2.5-11.5c-0.3,1.9-0.7,3.8-1.2,5.7C483.2,502.9,482.7,504.8,482.2,506.7z"/>
		<path class="st3" d="M477.7,356.1c0,0.1,0,0.2-0.1,0.3l-0.2,0.8l-0.9,2.8c-0.4,1.2-0.9,2.7-1.4,4.5s-1.2,3.7-1.7,6
			s-1.2,4.6-1.8,7.3s-1.2,5.5-1.8,8.4c-1.1,5.9-2.1,12.5-2.8,19.5s-1,13.6-1.1,19.7c0,3,0,5.9,0.1,8.6s0.2,5.2,0.3,7.5
			s0.3,4.4,0.5,6.2s0.3,3.4,0.5,4.6s0.2,2.2,0.3,2.9v0.8c0,0.1,0,0.2,0,0.3c0-0.1,0-0.2-0.1-0.3c-0.1-0.2-0.1-0.5-0.1-0.8
			c-0.1-0.7-0.2-1.7-0.4-2.9s-0.4-2.8-0.5-4.6s-0.4-3.9-0.5-6.2s-0.3-4.8-0.4-7.5s-0.1-5.6-0.1-8.6c0.1-6.1,0.4-12.8,1-19.7
			s1.7-13.6,2.9-19.5c0.6-3,1.2-5.8,1.8-8.4s1.3-5.1,1.9-7.3s1.2-4.2,1.7-5.9s1-3.2,1.5-4.5s0.7-2.1,1-2.8l0.3-0.7
			C477.6,356.3,477.7,356.2,477.7,356.1z"/>
		<path class="st3" d="M469.4,388.5c1.3-3.8,3.8-7,7.2-9.1c1.1-0.8,2.5-1.1,3.8-0.7c1.6,0.8,1.7,3,1.3,4.8c-0.8,2.9-2.7,5.4-5.2,7.1
			c-2.3,1.7-5.1,2.4-7.9,2"/>
		<path class="st3" d="M466.6,410.3c1.2-4.5,4.8-10.9,8.5-13.7c0.6-0.5,1.2-0.8,1.9-1c0.7-0.2,1.5,0,2.1,0.5c0.7,0.9,0.8,2,0.5,3
			c-1.6,6.7-6.8,11.9-13.5,13.5"/>
		<path class="st3" d="M465.8,429.5c1.9-4.3,4.8-8,8.6-10.8c0.8-0.7,1.9-1.1,3-1.1c1.6,0.3,2.3,2.3,2.2,3.9
			c-0.3,3.4-2.9,6.1-5.6,8.2c-2.5,1.7-5.2,3.1-8,4.1"/>
		<path class="st3" d="M466.3,443.3c1.8-3.3,4.3-6.1,7.3-8.3c0.6-0.5,1.4-0.8,2.2-1c0.8-0.1,1.6,0.2,2.1,0.8c0.7,1.1,0,2.5-0.8,3.6
			c-2.6,3.6-6.2,6.3-10.4,7.6"/>
		<path class="st3" d="M465.9,437.7c-3.1-3.9-6.6-7.4-10.4-10.6c-0.6-0.5-1.4-1-2.1-0.8c-0.6,0.2-1,0.8-1,1.4c0,0.6,0.1,1.2,0.4,1.8
			c2.5,5.6,7.5,9.8,13.5,11.3"/>
		<path class="st3" d="M466.2,419.7l-8.2-10c-0.7-1-1.6-1.9-2.7-2.5c-1.1-0.6-2.4-0.6-3.5,0c-1,0.8-1.4,2.1-1.2,3.3
			c0.3,1.2,0.8,2.3,1.6,3.3c1.6,2.5,3.6,4.6,6,6.4c2.4,1.7,4.6,2.7,7.5,2.3"/>
		<path class="st3" d="M467.4,399.5c-1.6-4.8-4.5-9.1-8.3-12.4c-0.6-0.6-1.3-1-2.2-1.3c-1.7-0.1-3.3,1-3.8,2.6
			c-0.5,1.8-0.3,3.8,0.8,5.4c1,1.6,2.3,3,3.9,4.1c2.8,2.1,5.8,3.8,9.1,4.9"/>
		<path class="st3" d="M470.7,381.4c-0.8-5.8-3.8-10.6-7.3-15.3c-0.7-1-1.8-2-3-1.9c-0.8,0.2-1.4,0.7-1.7,1.5
			c-0.3,0.7-0.4,1.5-0.3,2.3c0.3,7.2,4.9,13.5,11.6,16"/>
		<path class="st3" d="M473,372.2c-0.4-3-0.5-6-0.3-9c0.2-3,1.2-5.9,3-8.4c0.8-1.1,1.8-1.9,3-2.4c1.2-0.5,2.6-0.3,3.7,0.5
			c0.9,0.8,1.3,2,1.3,3.2c-0.1,1.2-0.4,2.4-0.9,3.5C480.5,365,476.9,370.8,473,372.2"/>
		<path class="st0" d="M437.2,379.1c0,0.2,0,0.5,0,0.8v5.4c0,1.5,0,2.9,0.2,4.4c0.1,3.3,0.5,7.1,1,11.4s1.3,9,2.3,13.9
			s2.3,9.5,3.5,13.6s2.5,7.8,3.7,10.9c0.6,1.5,1.2,2.9,1.6,4.1s0.9,2.2,1.3,3.1l0.8,1.9c0.1,0.2,0.2,0.5,0.3,0.7
			c-0.1-0.2-0.3-0.4-0.4-0.6l-0.9-1.9c-0.4-0.8-0.9-1.8-1.4-3s-1.2-2.5-1.7-4.1c-1.2-3-2.5-6.7-3.9-10.9s-2.5-8.8-3.5-13.6
			s-1.7-9.6-2.2-13.9s-0.7-8.2-0.8-11.5c-0.1-1.6-0.1-3.1-0.1-4.4s0-2.4,0-3.4s0.1-1.6,0.1-2.1C437.1,379.7,437.1,379.4,437.2,379.1
			z"/>
		<path class="st0" d="M438.5,403c0-2.8,1.1-5.6,2.9-7.7c0.5-0.8,1.5-1.3,2.4-1.3c1.3,0.2,1.8,1.7,1.9,3c0.1,2.2-0.6,4.3-2,6
			c-1.2,1.6-2.9,2.7-4.9,3"/>
		<path class="st0" d="M441.3,418.4c-0.2-3.3,0.9-8.4,2.9-11.1c0.3-0.5,0.7-0.9,1.1-1.2c0.5-0.3,1-0.3,1.5-0.1c0.6,0.4,1,1.2,1,1.9
			c0.4,4.9-2,9.6-6.2,12.2"/>
		<path class="st0" d="M444.9,431.7c0.3-3.3,1.5-6.5,3.5-9.2c0.4-0.7,1-1.2,1.8-1.4c1.2-0.1,2.1,1,2.3,2.2c0.5,2.4-0.6,4.8-2,6.8
			c-1.3,1.7-2.8,3.2-4.5,4.5"/>
		<path class="st0" d="M448.1,441c0.5-2.6,1.6-5.1,3.2-7.2c0.3-0.5,0.8-0.9,1.3-1.2c0.5-0.3,1.2-0.2,1.6,0.1
			c0.7,0.6,0.6,1.7,0.3,2.6c-1,3-2.9,5.6-5.5,7.5"/>
		<path class="st0" d="M446.7,437.2c-3-2-6.1-3.6-9.4-5c-0.5-0.3-1.1-0.3-1.6-0.1c-0.3,0.3-0.5,0.7-0.4,1.2c0.1,0.4,0.3,0.8,0.6,1.2
			c2.9,3.3,7.2,5.1,11.6,4.8"/>
		<path class="st0" d="M443,424.9l-7.7-5c-0.7-0.5-1.5-0.9-2.3-1.2c-0.9-0.2-1.8,0.1-2.4,0.7c-0.5,0.8-0.5,1.7,0,2.5
			c0.5,0.8,1.1,1.4,1.8,1.9c1.6,1.3,3.5,2.3,5.4,3c1.8,0.8,3.8,0.8,5.6,0"/>
		<path class="st0" d="M439.5,410.9c-2.1-2.9-5-5.2-8.3-6.7c-0.5-0.3-1.1-0.4-1.8-0.4c-1.2,0.3-2,1.4-2,2.6c0,1.4,0.7,2.6,1.7,3.5
			c1,0.9,2.2,1.5,3.5,1.9c2.3,0.9,4.8,1.3,7.3,1.4"/>
		<path class="st0" d="M437.8,397.9c-1.8-3.8-4.9-6.4-8.3-8.9c-0.6-0.6-1.6-0.9-2.4-0.6c-0.5,0.3-0.8,0.8-0.9,1.4
			c0,0.6,0.1,1.1,0.3,1.7c1.8,4.8,6.2,8.2,11.4,8.4"/>
		<path class="st0" d="M437.4,391.2c-0.9-1.9-1.6-4-2.1-6c-0.5-2.1-0.4-4.3,0.2-6.3c0.3-0.9,0.8-1.7,1.5-2.3
			c0.7-0.6,1.7-0.8,2.6-0.5c0.8,0.4,1.4,1.1,1.6,1.9c0.2,0.8,0.2,1.7,0.1,2.5C440.9,384.6,439.7,389.3,437.4,391.2"/>
		<path class="st3" d="M495.5,378.6c0.1,0.2,0.1,0.5,0.1,0.7c0,0.5,0,1.2,0.1,2.1c0.1,1.1,0.1,2.2,0,3.3c-0.1,1.3,0,2.8-0.1,4.4
			c-0.1,3.3-0.4,7.2-0.8,11.5s-1.2,9-2.2,13.9s-2.3,9.5-3.5,13.6s-2.6,7.8-3.9,10.9c-0.6,1.5-1.2,2.9-1.7,4.1s-1,2.2-1.4,3l-0.9,1.9
			c-0.1,0.2-0.2,0.4-0.4,0.6c0.1-0.2,0.2-0.5,0.3-0.7l0.8-1.9c0.4-0.8,0.8-1.9,1.3-3.1s1.1-2.6,1.6-4.1c1.2-3,2.5-6.7,3.7-10.9
			s2.5-8.7,3.5-13.6s1.7-9.6,2.3-13.9s0.8-8.1,1-11.4c0.1-1.6,0.1-3.1,0.2-4.4s0-2.4,0-3.3v-2.1
			C495.4,379.1,495.5,378.9,495.5,378.6z"/>
		<path class="st3" d="M494.2,402.4c-0.1-2.8-1.1-5.5-2.9-7.7c-0.6-0.8-1.5-1.3-2.4-1.3c-1.3,0.2-1.9,1.7-1.9,3
			c-0.1,2.2,0.6,4.3,2,6c1.2,1.6,2.9,2.7,4.9,3"/>
		<path class="st3" d="M491.5,417.9c0.2-3.3-0.9-8.5-2.9-11.2c-0.3-0.5-0.6-0.9-1.1-1.2c-0.4-0.3-1-0.4-1.5-0.1
			c-0.6,0.4-1,1.2-1,1.9c-0.4,4.9,2,9.6,6.3,12.1"/>
		<path class="st3" d="M487.9,431.2c-0.3-3.3-1.5-6.5-3.5-9.2c-0.4-0.7-1-1.2-1.8-1.4c-1.2-0.1-2.1,1-2.3,2.2
			c-0.5,2.4,0.6,4.8,2,6.8c1.3,1.7,2.8,3.2,4.4,4.5"/>
		<path class="st3" d="M484.6,440.5c-0.5-2.6-1.6-5.1-3.2-7.3c-0.3-0.5-0.8-0.9-1.3-1.2c-0.5-0.3-1.2-0.2-1.6,0.1
			c-0.7,0.6-0.6,1.7-0.3,2.6c1,3,2.9,5.6,5.5,7.5"/>
		<path class="st3" d="M486,436.7c3-2,6.1-3.6,9.4-5c0.5-0.3,1.1-0.3,1.6-0.1c0.3,0.3,0.5,0.7,0.4,1.2c-0.1,0.4-0.4,0.8-0.6,1.1
			c-2.9,3.3-7.2,5-11.6,4.8"/>
		<path class="st3" d="M489.7,424.4l7.7-5c0.7-0.5,1.5-0.9,2.3-1.2c0.9-0.2,1.8,0.1,2.4,0.7c0.5,0.8,0.5,1.7,0,2.5
			c-0.5,0.8-1.1,1.4-1.8,1.9c-1.6,1.3-3.5,2.3-5.4,3c-1.8,0.8-3.8,0.8-5.6,0"/>
		<path class="st3" d="M493.2,410.4c2.1-2.9,5-5.2,8.3-6.7c0.5-0.3,1.1-0.4,1.7-0.4c1.2,0.3,2,1.4,2,2.6c0,1.4-0.7,2.6-1.7,3.5
			c-1,0.9-2.2,1.5-3.5,2c-2.3,0.8-4.8,1.3-7.3,1.4"/>
		<path class="st3" d="M494.9,397.4c1.8-3.8,4.9-6.4,8.3-8.9c0.7-0.5,1.6-1,2.4-0.6c0.5,0.3,0.8,0.8,0.9,1.4c0,0.6-0.1,1.1-0.3,1.6
			c-1.7,4.8-6.2,8.1-11.3,8.4"/>
		<path class="st3" d="M495.3,390.6c0.9-1.9,1.6-3.9,2.1-6c0.5-2.1,0.4-4.3-0.2-6.3c-0.3-0.9-0.8-1.7-1.5-2.3
			c-0.7-0.6-1.7-0.8-2.6-0.5c-0.8,0.4-1.4,1.1-1.5,1.9c-0.2,0.8-0.2,1.7-0.1,2.5C491.8,384,493,388.8,495.3,390.6"/>
		<path class="st1" d="M427.3,448.8v9.8c0,2.1,1.7,3.8,3.8,3.8c0,0,0,0,0,0H498c2.1,0,3.8-1.7,3.9-3.8v-9.8H427.3z"/>
		<g class="st4">
			<polygon points="433.1,462.4 433.7,465.5 495.3,469.9 496.9,462.4 			"/>
		</g>
	</g>
	<g id="freepik--Character--inject-36">
		<path class="st0" d="M174.9,117.9c-3.5-5.4-0.9-14.8-2.8-21s-1.6-10-5.6-15c-4.1-4.6-9.5-8-15.4-9.6c-8.3-1.7-17,0.2-23.8,5.3
			c-3.5,2.5-7,5.3-9.1,9.1c-2.6,4.6-3,9.7-2.9,15.1l-0.3-0.3c-2.6-1.9-5.6-2.9-8.8-2.9c-1.5-0.1-3,0.3-4.3,1c-1.3,0.8-2.1,2.2-2,3.7
			c0.3,2.3,2.9,3.5,5.1,4.3c-2.8,1.3-4.1,4.6-2.8,7.4c1.2,2.6,4.1,3.9,6.8,3c3.1-0.9,4.8-4.1,6.7-6.8c0.3,4.5-0.2,8.9-1.5,13.2
			c-1.8,5-5.4,9.6-5,14.8c0.2,2.3,1.2,4.7,0.8,7c-0.7,3.6-4.7,5.6-6.4,8.8c-2.4,4.2-0.8,9.9,2.7,13.4s8.3,5.1,13,6.3
			c11.2,2.9,24,3.9,33.6-2.6l27-27.5C180.8,137.8,181,127.6,174.9,117.9z"/>
		<path class="st1" d="M166.8,496v1.3c0,0,22.9,8.4,23.2,12.7l-44.9,1.1l0.3-15C152.2,499.2,160,499.2,166.8,496z"/>
		<g class="st5">
			<path class="st6" d="M150.1,500.8c-0.9,0.3-1.4,1.2-1.2,2.1c0.3,0.9,1.2,1.4,2.1,1.2c0.9-0.3,1.5-1.3,1.3-2.3
				c-0.4-0.9-1.4-1.3-2.3-1"/>
		</g>
		<g class="st5">
			<path class="st6" d="M145.2,511.1v-3.6l42.9,0.3c0,0,2,0.8,1.8,2.2L145.2,511.1z"/>
		</g>
		<path class="st0" d="M167,497.4c0,0.2-1.1,0.4-2.1,1.1s-1.6,1.7-1.8,1.6s0.1-1.4,1.4-2.2S167.1,497.2,167,497.4z"/>
		<path class="st0" d="M171.8,499.3c0.1,0.2-0.9,0.6-1.6,1.5s-0.9,1.9-1.2,1.9s-0.4-1.2,0.5-2.4S171.8,499,171.8,499.3z"/>
		<path class="st0" d="M174.6,504.8c-0.2,0-0.5-1,0-2.3s1.6-1.7,1.6-1.5s-0.5,0.8-1,1.8S174.8,504.8,174.6,504.8z"/>
		<path class="st0" d="M117.8,261.4l74.6,16.9l-1.4,9.4l-21.3,168.4l-14.8-0.3l-1.5,12.4l-23.4,0.4c0,0-3.5-42-4.4-57
			s-1.4-40.8-4.2-56.7S99.8,291.7,117.8,261.4z"/>
		<path class="st7" d="M168.3,460.1c-0.2,1.3-3.5,38.4-3.5,38.4h-16.9l-3-38.2L168.3,460.1z"/>
		<path class="st8" d="M153.4,467.2c-0.2,1.3-3.5,38.4-3.5,38.4H133l-3-38.2L153.4,467.2z"/>
		<polygon class="st3" points="172.3,449.3 170.1,461.2 153.7,461 154,449.5 		"/>
		<path class="st3" d="M162.3,291.2c0,0.1,0,0.3,0,0.4v1.3c0,1.2-0.1,2.8-0.2,4.9c-0.2,4.3-0.4,10.4-0.7,17.9
			c-0.7,15.1-1.6,36-2.6,59.1s-2.1,43.9-2.8,59.1c-0.4,7.5-0.7,13.6-0.9,17.9c-0.1,2.1-0.2,3.7-0.3,4.9l-0.1,1.3c0,0.1,0,0.3,0,0.4
			c0-0.1,0-0.3,0-0.4v-1.3c0-1.2,0.1-2.8,0.2-4.9c0.2-4.3,0.4-10.4,0.7-17.9c0.7-15.1,1.6-36,2.6-59.1s2.1-43.9,2.8-59.1
			c0.4-7.5,0.7-13.6,0.9-17.9c0.1-2.1,0.2-3.7,0.3-4.9c0-0.5,0.1-1,0.1-1.3C162.3,291.5,162.3,291.3,162.3,291.2z"/>
		<polygon class="st3" points="156.6,460.1 154.4,472.1 128.6,472.1 126.8,460.5 		"/>
		<path class="st1" d="M132.9,500.1c0,0,11.9,8.5,17.7,1.2l1.5,3.5l6.8,25.3c0.5,1.6-0.3,3.4-1.9,4c-1.2,0.5-2.5,0.2-3.5-0.7
			c-4.9-4.7-22.9-21.9-22.7-24.3l0.1-6.2C130.9,501.7,131.7,500.6,132.9,500.1L132.9,500.1z"/>
		<g class="st5">
			<path class="st6" d="M156.4,534.3L130.9,507v1.4c-0.1,1.1,0.3,2.2,1.2,3c2.1,2.8,7.8,9,21.4,22.1
				C154.2,534.2,155.4,534.5,156.4,534.3L156.4,534.3z"/>
		</g>
		<g class="st5">
			<path class="st6" d="M134.6,503c0.8,0.6,1.1,1.7,0.6,2.6c-0.6,0.8-1.7,1.1-2.6,0.6c-0.9-0.6-1.1-1.8-0.6-2.8
				c0.7-0.8,1.9-0.9,2.7-0.3"/>
		</g>
		<path class="st0" d="M149,520.3c0.2,0.1,0.9-1.6,2.8-2.5c1.2-0.5,2.4-0.7,3.7-0.7c0-0.1-0.4-0.3-1.2-0.4c-2-0.2-3.9,0.8-5,2.5
			C149.1,519.5,149,519.9,149,520.3z"/>
		<path class="st0" d="M151.3,524.6c0.9-0.5,1.9-1,2.8-1.4c1-0.2,2.1-0.3,3.1-0.4c0.1-0.2-1.4-0.8-3.3-0.3S151.2,524.5,151.3,524.6z
			"/>
		<path class="st0" d="M144.8,514.8c0.1,0.2,1.7-1.5,4.2-2.4c1.5-0.5,3.1-0.9,4.8-1.2c0-0.2-2.3-0.6-5,0.5
			C146.1,512.8,144.6,514.8,144.8,514.8z"/>
		<path class="st0" d="M144.2,507.1c0.1,0.2,1.9-0.6,4.1-0.6s4.1,0.5,4.2,0.3s-1.8-1.1-4.2-1S144.1,507,144.2,507.1z"/>
		<path class="st0" d="M149.7,506.4c0-0.4,0-0.8-0.2-1.2c-0.3-1.1-0.8-2.1-1.5-3c-0.5-0.7-1.1-1.2-1.9-1.5c-0.5-0.1-1.1,0.1-1.4,0.6
			c-0.3,0.5-0.3,1-0.2,1.5c0.6,2.2,2.6,3.6,4.8,3.5c2.2-0.2,4-1.7,4.6-3.7c0.2-0.5,0.1-1.1-0.2-1.5c-0.3-0.4-0.9-0.6-1.5-0.4
			c-0.7,0.3-1.4,0.8-1.9,1.5c-0.7,0.8-1.3,1.8-1.7,2.9c-0.2,0.4-0.3,0.8-0.3,1.2c0.6-1.3,1.4-2.6,2.3-3.7c0.4-0.5,1-1,1.7-1.2
			c0.3-0.1,0.6,0,0.8,0.2c0.2,0.3,0.2,0.7,0.1,1c-0.6,1.8-2.2,3-4.1,3.2c-1.9,0.1-3.6-1.1-4.1-2.9c-0.1-0.4,0-0.7,0.1-1.1
			c0.2-0.3,0.5-0.4,0.8-0.3c0.6,0.2,1.2,0.6,1.6,1.2C148.5,503.7,149.2,505,149.7,506.4z"/>
		<path class="st8" d="M270.6,158.4c0,0,6.3-8.9,7.6-9.7s12.9-3,13.8-2.6s13.7,4.8,12,6.1s-10.7-1.8-10.7-1.8l-1.3,0.4
			c0,0,7.7,2.5,9.3,3.7s0.6,2.9-0.9,2.6s-8.1-2.8-8.6-2.6s7.2,3,8,3.7c1,0.9,0.9,2.9-0.6,2.6c-0.9-0.2-8-3.3-8-3.3
			c2.1,1.2,4.1,2.4,6,3.8c0.8,1-0.1,2.2-1.4,1.7c-0.9-0.3-4.7-3-5.9-3.5c0,0-1.2,0.1-2.5,2.2s-7.9,6.4-7.9,6.4l-4.4,2.6l-7.4-10.3
			L270.6,158.4z"/>
		<path class="st8" d="M273.6,159c0.8,0.8,2,1,3.1,0.5c1-0.4,1.9-1.2,2.9-1.7c3-1.5,6.8-0.4,9.7-2c0.4-0.2,0.8-0.6,0.7-1.1
			s-0.6-0.5-1-0.6l-10.9-1.4"/>
		<path class="st7" d="M278,152.7c0.4-0.1,0.8-0.1,1.2,0l3.2,0.3l4.8,0.6l1.4,0.2c0.6,0,1.1,0.2,1.5,0.6c0.2,0.3,0.2,0.7,0,1
			c-0.2,0.3-0.4,0.5-0.6,0.6c-0.5,0.3-1,0.5-1.5,0.6c-1.9,0.4-3.9,0.6-5.9,0.7c-0.8,0.1-1.6,0.3-2.4,0.7c-0.7,0.3-1.3,0.7-1.9,1.2
			c-0.9,0.7-2.1,0.9-3.2,0.6c-0.8-0.3-1-0.8-0.9-0.8c0.3,0.2,0.6,0.4,1,0.5c1,0.2,2.1-0.1,2.9-0.8c0.6-0.4,1.3-0.8,1.9-1.2
			c0.8-0.4,1.7-0.6,2.5-0.8c1.9-0.1,3.9-0.4,5.8-0.8c0.5-0.1,0.9-0.3,1.4-0.6c0.4-0.2,0.6-0.6,0.5-0.8c-0.3-0.2-0.7-0.3-1.2-0.4
			l-1.4-0.2l-4.8-0.7c-1.4-0.2-2.5-0.4-3.2-0.5C278.7,153,278.3,152.9,278,152.7z"/>
		<path class="st7" d="M303.9,152.2c-0.8,0.3-1.7,0.4-2.5,0.3c-0.9,0-1.8-0.1-2.7-0.3c-1-0.3-2.1-0.6-3.2-0.9l-2.4-0.7h0.1
			c-2,0.5-4,0.8-6,0.9c1.9-0.7,3.8-1.2,5.8-1.5h0.1l2.4,0.7l3.1,1c0.9,0.2,1.7,0.4,2.6,0.4C303,152.2,303.9,152.1,303.9,152.2z"/>
		<path class="st1" d="M175.4,142.4c0,0,14-0.8,21.1,2.7s38.1,24.8,38.1,24.8l31.8-11.8l11.3,15.3L250,193.4
			c-6.6,4.5-15,5.3-22.4,2.1L192,181.4L175.4,142.4z"/>
		<path class="st0" d="M236.3,184.8c-0.5-0.6-0.8-1.3-1.1-2c-0.7-1.7-1.1-3.5-1.3-5.4c-0.2-1.8-0.1-3.7,0.1-5.5
			c0.1-0.8,0.3-1.5,0.6-2.2c-0.3,2.5-0.4,5.1-0.2,7.7C234.9,179.9,235.5,182.4,236.3,184.8z"/>
		<g class="st9">
			<path d="M234.4,170.1c-1.3,1.2-1.6,3.1-1.7,4.8c-0.2,2.6-0.1,5.2,0.2,7.8c0.1,1.4,0.4,2.8,1.1,4.1c0.2,0.5,0.7,0.8,1.2,1
				c0.9,0.2,1.7-0.8,1.7-1.7c-0.1-0.9-0.4-1.8-0.8-2.6c-1.9-3.9-2.5-8.3-1.6-12.6"/>
		</g>
		<path class="st1" d="M126,147.9c-0.7,0.2-8.2,5.1-14.2,9c-4.2,2.8-5.8,8.1-3.7,12.7l14.7,33.1l5.2,20l-16.7,43.9l1.2,4.9l80,6.8
			l3.9-9.2l-4.6-41.8v-52.4l-12.8-32.7l-22,0.3L126,147.9z"/>
		<g class="st9">
			<path d="M188.6,144.7c1,0,1.9,0.6,2.3,1.5c0.4,0.9,0.6,1.9,0.6,2.9c0.9,14.2,0.4,31.6,0.2,46.2l1,45c-4.3-8-4.6-17.4-5-26.4
				c-0.3-8.1-0.6-16.2-0.9-24.4c-0.5-13.5,0.2-26.9-0.3-40.4C186.4,147.3,186.8,144.9,188.6,144.7z"/>
		</g>
		<g class="st9">
			<path d="M118.6,247c0.4-1.4,1.6-4.1,1.6-4.1c4-6.6,7.1-17.5,6.6-25.2c0,0-1.9-8-3.9-15.4l-2.2-4.9l0.1,0.1
				c3.6,1.7,5.8,6.6,6.3,10.5s1,8.4,4,11.1c2,1.8,4.7,2.5,6.8,4c2.5,1.9,4,4.8,4,8c0,1.3-0.3,2.8,0.7,3.7c1.2,1.1,2.9,0.5,4.4,0
				s3.4-0.8,4.2,0.5c0.5,1.1,0.1,2.4-0.9,3.1c-1,0.7-2,1.3-3.1,1.8c-2.5,1.5-4,4.3-6.1,6.3c-4.2,4.1-10.5,4.8-16.4,5.3
				c-1.7,0.1-3.7,0.2-4.9-1C118.9,249.9,118.3,248.4,118.6,247z"/>
		</g>
		<path class="st3" d="M111.9,278.7c0-0.1,1.4,0.3,3.7,0.7c6,1,12.2,0.2,17.8-2.1c2.1-0.9,3.4-1.6,3.5-1.5s-0.3,0.2-0.8,0.6
			c-0.8,0.5-1.6,0.9-2.4,1.3c-5.6,2.6-11.9,3.4-18,2.1c-0.9-0.2-1.8-0.4-2.7-0.7C112.5,279,112.2,278.9,111.9,278.7z"/>
		<path class="st8" d="M162.9,235.3l-0.4-0.6c0,0,2.4,3.3,1.5,6c-0.1,0.4-0.4,0.8-0.6,1.1c0,2.4-1.9,4.3-4.3,4.4c0,0,0,0,0,0
			c-0.7,0-1.5-0.2-2.1-0.5c-0.7-0.3-1.2-1-1.2-1.7c0.1-0.4,0.3-0.7,0.6-1c0.1-0.2,0.3-0.3,0.4-0.5l-3-0.6c0,0-7.2-0.4-9.2-4.3
			c-0.3-0.6-15.8,0.6-15.8,0.6l1.2-17.5l25.9,3.5c0,0,18.4,2.1,20.2,2.1c1-0.1,1.9,0.5,2,1.5c0,0.2,0,0.4,0,0.6
			c-0.1,1.2-1,1.6-2.7,1.7c-0.6,0-11.6,0.4-11.6,0.4l0,0c0.9,1.4,2.1,3.6,0.7,4.4L162.9,235.3z"/>
		<path class="st7" d="M157.7,237.4c0-0.1,0.5-0.1,1.3,0c1.1,0.1,2.1,0.4,3,1c1,0.6,1.6,1.6,1.7,2.8c0,0.9-0.3,1.3-0.4,1.3
			s0.1-0.5,0-1.2c-0.2-1-0.8-1.8-1.6-2.3c-0.9-0.5-1.8-0.9-2.8-1.1C158.1,237.6,157.6,237.5,157.7,237.4z"/>
		<path class="st7" d="M157.9,231.9c0.5-0.1,1,0,1.5,0.2c2.4,0.8,4.2,2.8,4.8,5.2c0.2,0.9,0.2,1.5,0.1,1.5
			C163.6,235.6,161.1,232.9,157.9,231.9L157.9,231.9z"/>
		<path class="st7" d="M160,229.1c0-0.2,1.1-0.2,2.2,0.2s1.9,1.2,1.8,1.3s-0.9-0.4-2-0.8S160,229.3,160,229.1z"/>
		<path class="st7" d="M159.8,243.3c-0.1,0.1-0.6-0.4-1.4-0.7s-1.4-0.1-1.5-0.3s0.7-0.6,1.7-0.3S160,243.3,159.8,243.3z"/>
		<path class="st1" d="M121.1,196.8l-7.4,19.6l27.7,4.2l-1.4,23.4l-38-1.6c-9.5-0.4-17.6-7.8-18-17.4v-1.3
			c0.2-7,12.3-38.6,17.9-54.9c1.8-4.9,5.2-9.1,9.7-11.8l0,0L121.1,196.8z"/>
		<path class="st0" d="M139.9,244.1c-0.1-0.6-0.1-1.2,0-1.8c0.1-1.3,0.1-2.9,0.2-4.9c0.2-4.3,0.5-10.1,0.9-16.7l0.3,0.3l-5.8-0.8
			c-8-1.2-15.3-2.3-20.5-3.1l-6.2-1l-1.7-0.3c-0.2,0-0.4-0.1-0.6-0.1c0.2,0,0.4,0,0.6,0l1.7,0.2l6.2,0.8c5.3,0.7,12.5,1.7,20.5,2.9
			l5.8,0.8h0.3v0.3c-0.4,6.6-0.8,12.4-1.1,16.7c-0.2,2-0.3,3.7-0.4,4.9C140.1,242.9,140.1,243.5,139.9,244.1z"/>
		<path class="st0" d="M112,166.7c0.3,0.2,0.6,0.5,0.8,0.7c0.7,0.7,1.3,1.4,1.9,2.2c3.9,5.1,6.2,11.4,6.5,17.9c0.1,1,0.1,1.9,0,2.9
			c0,0.4-0.1,0.7-0.2,1.1c-0.1,0,0-1.5-0.2-3.9c-0.5-6.3-2.7-12.4-6.4-17.6C113,167.8,112,166.7,112,166.7z"/>
		<path class="st0" d="M191.2,176.7c-0.1-1-0.1-2,0-3c0.1-1.9,0.2-4.4,0.2-7.2s-0.1-5.4-0.1-7.2c-0.1-1-0.1-2,0-3c0.3,1,0.4,2,0.4,3
			c0.2,1.9,0.3,4.4,0.3,7.2s-0.2,5.4-0.3,7.2C191.6,174.8,191.5,175.8,191.2,176.7z"/>
		<path class="st0" d="M128.1,256c0.7,0.2,1.3,0.4,1.9,0.7c1.2,0.5,3,1.2,5.1,2.1c5.7,2.2,11.5,4.1,17.3,5.6
			c5.9,1.5,11.8,2.7,17.9,3.6c2.3,0.3,4.2,0.6,5.5,0.7c0.7,0,1.3,0.1,2,0.3c-0.7,0-1.3,0-2-0.1c-1.3-0.1-3.2-0.2-5.5-0.5
			c-12.2-1.5-24.1-4.6-35.4-9.2c-2.2-0.9-3.9-1.7-5.1-2.2C129.3,256.7,128.7,256.4,128.1,256z"/>
		<path class="st0" d="M178.5,185.4c0,0.6,0.5,1.2,1.2,1.2c0.6,0,1.2-0.5,1.2-1.2c0-0.6-0.5-1.2-1.2-1.2
			C179,184.2,178.5,184.7,178.5,185.4L178.5,185.4z"/>
		<path class="st0" d="M257.4,176.7c0,0.6,0.5,1.2,1.2,1.2c0.6,0,1.2-0.5,1.2-1.2c0-0.6-0.5-1.2-1.2-1.2
			C257.9,175.6,257.4,176.1,257.4,176.7C257.3,176.7,257.3,176.7,257.4,176.7z"/>
		<path class="st0" d="M220.7,172.4c-0.2,0.6,0.1,1.3,0.8,1.5c0.6,0.2,1.3-0.1,1.5-0.8c0.2-0.6-0.1-1.3-0.8-1.5
			c-0.2-0.1-0.5-0.1-0.7,0C221.1,171.8,220.8,172,220.7,172.4z"/>
		<path class="st0" d="M201.7,156.3c0,0.6,0.5,1.2,1.2,1.2c0.6,0,1.2-0.5,1.2-1.2c0-0.6-0.5-1.2-1.2-1.2
			C202.2,155.2,201.7,155.7,201.7,156.3L201.7,156.3z"/>
		<path class="st0" d="M175.9,202.2c0,0.6,0.5,1.2,1.2,1.2c0.6,0,1.2-0.5,1.2-1.2c0-0.6-0.5-1.2-1.2-1.2
			C176.4,201.1,175.9,201.6,175.9,202.2L175.9,202.2z"/>
		<path class="st0" d="M242.8,173.5c0,0.6,0.5,1.2,1.2,1.2c0.6,0,1.2-0.5,1.2-1.2c0-0.6-0.5-1.2-1.2-1.2
			C243.3,172.4,242.8,172.9,242.8,173.5L242.8,173.5z"/>
		<path class="st0" d="M226.5,191.4c-0.2,0.6,0.2,1.3,0.8,1.5s1.3-0.2,1.5-0.8c0.1-0.2,0.1-0.5,0-0.7c-0.2-0.6-0.8-1-1.4-0.8
			C226.9,190.7,226.6,191,226.5,191.4z"/>
		<path class="st0" d="M153.5,189.2c0,0.6,0.5,1.2,1.2,1.2c0.6,0,1.2-0.5,1.2-1.2c0-0.6-0.5-1.2-1.2-1.2
			C154,188,153.5,188.5,153.5,189.2L153.5,189.2z"/>
		<circle class="st0" cx="149.1" cy="172.4" r="1.1"/>
		<path class="st0" d="M168.9,165.4c0,0.6,0.5,1.2,1.2,1.2c0.6,0,1.2-0.5,1.2-1.2c0-0.6-0.5-1.2-1.2-1.2
			C169.4,164.3,168.9,164.8,168.9,165.4L168.9,165.4z"/>
		<path class="st0" d="M205.9,173.5c0,0.6,0.5,1.2,1.2,1.2c0.6,0,1.2-0.5,1.2-1.2c0-0.6-0.5-1.2-1.2-1.2
			C206.4,172.4,205.9,172.9,205.9,173.5L205.9,173.5z"/>
		<circle class="st0" cx="174.3" cy="150.8" r="1.1"/>
		<circle class="st0" cx="134.6" cy="176.7" r="1.1"/>
		<path class="st0" d="M153.5,210.4c0,0.6,0.5,1.2,1.2,1.2c0.6,0,1.2-0.5,1.2-1.2c0-0.6-0.5-1.2-1.2-1.2
			C154,209.2,153.5,209.7,153.5,210.4L153.5,210.4z"/>
		<circle class="st0" cx="185.3" cy="267.6" r="1.1"/>
		<circle class="st0" cx="155.7" cy="253.2" r="1.1"/>
		<path class="st0" d="M122.8,265.5c0,0.6,0.5,1.2,1.2,1.2s1.2-0.5,1.2-1.2s-0.5-1.2-1.2-1.2S122.8,264.9,122.8,265.5L122.8,265.5z"
			/>
		<path class="st0" d="M163.6,242.3c0,0.6,0.5,1.2,1.2,1.2c0.6,0,1.2-0.5,1.2-1.2c0-0.6-0.5-1.2-1.2-1.2
			C164.1,241.1,163.6,241.6,163.6,242.3L163.6,242.3z"/>
		<circle class="st0" cx="105.9" cy="174.3" r="1.1"/>
		<path class="st0" d="M104.7,229.9c0,0.6,0.5,1.2,1.2,1.2c0.6,0,1.2-0.5,1.2-1.2c0-0.6-0.5-1.2-1.2-1.2S104.7,229.2,104.7,229.9
			L104.7,229.9z"/>
		<path class="st0" d="M122.8,236.6c0,0.6,0.5,1.2,1.2,1.2c0.6,0,1.2-0.5,1.2-1.2c0-0.6-0.5-1.2-1.2-1.2S122.8,236,122.8,236.6
			L122.8,236.6z"/>
		<path class="st0" d="M132.4,223.8c0.2,0.6,0.8,1,1.5,0.8c0.6-0.2,1-0.8,0.8-1.5s-0.8-1-1.5-0.8c-0.4,0.1-0.6,0.4-0.8,0.8
			C132.3,223.3,132.3,223.6,132.4,223.8z"/>
		<path class="st0" d="M110.8,189.2c0,0.6,0.5,1.2,1.2,1.2s1.2-0.5,1.2-1.2c0-0.6-0.5-1.1-1.1-1.2
			C111.4,188,110.8,188.5,110.8,189.2C110.8,189.1,110.8,189.1,110.8,189.2z"/>
		<circle class="st0" cx="185.3" cy="248.6" r="1.1"/>
		<circle class="st0" cx="96.8" cy="205.4" r="1.1"/>
		<path class="st0" d="M89.8,223.8c0,0.6,0.5,1.2,1.2,1.2c0.6,0,1.2-0.5,1.2-1.2c0-0.6-0.5-1.2-1.2-1.2S89.8,223.1,89.8,223.8
			L89.8,223.8z"/>
		<path class="st0" d="M132.4,196.3c0.2,0.6,0.8,1,1.5,0.8c0.6-0.2,1-0.8,0.8-1.5s-0.8-1-1.5-0.8c-0.4,0.1-0.6,0.4-0.8,0.8
			C132.3,195.9,132.3,196.1,132.4,196.3z"/>
		<g class="st9">
			<path d="M138.5,154.7c-0.7-2.1-1.6-2.6-3.7-3.5c-2.5-1.2-4.9-2.8-7.1-4.5l-10.1,6.4c-1.2,4.3-1.3,9.3,0.8,13.1s6.5,6.7,10.9,6.1
				c2.8-0.5,5.3-2.1,6.9-4.5c1.6-2.3,2.7-4.9,3.2-7.7C139.8,158.6,138.9,156.1,138.5,154.7z"/>
		</g>
		<path class="st8" d="M167.6,94.5c-1.3-7.6-7.3-16.4-14.8-14.8l-23.1,8.4c-2.3,0.5-3.8,2.6-3.5,4.9l8.4,56.9h-0.2
			c0,0,7,15.6,22.2,9.1c3-1.3,4.1-4.8,4.4-8.4h0.2c0-0.4-0.1-0.8-0.1-1.2c0-2.6-0.2-5.3-0.7-7.9l0,0c-0.4-4.6-0.6-6.5-0.6-6.5
			s9.6-2.6,10.3-15.5C170.3,113.2,168.9,102.9,167.6,94.5z"/>
		<path class="st0" d="M165.2,103.5c0.1,0.9-0.5,1.7-1.4,1.8c-0.8,0.2-1.7-0.4-1.8-1.3c0,0,0,0,0,0l0,0c-0.1-0.9,0.5-1.7,1.4-1.8
			C164.2,102.1,165,102.6,165.2,103.5C165.2,103.5,165.2,103.5,165.2,103.5L165.2,103.5z"/>
		<path class="st0" d="M165.8,100.1c-0.2,0.2-1.5-0.5-3.3-0.4s-2.9,1.2-3.2,1s0-0.5,0.6-1c0.7-0.6,1.6-1,2.5-1.1
			c0.9-0.1,1.8,0.1,2.6,0.6C165.7,99.7,165.9,100,165.8,100.1z"/>
		<path class="st0" d="M148.6,105.5c0.1,0.9-0.5,1.7-1.4,1.8c-0.8,0.2-1.7-0.4-1.8-1.2c0,0,0,0,0,0l0,0c-0.1-0.9,0.5-1.7,1.4-1.8
			C147.7,104.1,148.5,104.7,148.6,105.5z"/>
		<path class="st0" d="M148.6,102.2c-0.2,0.2-1.5-0.5-3.3-0.4s-3,1.2-3.2,1s0.1-0.5,0.6-1c0.7-0.6,1.6-1,2.5-1.1
			c0.9-0.1,1.8,0.1,2.6,0.6C148.5,101.8,148.7,102.1,148.6,102.2z"/>
		<path class="st0" d="M156.3,114.6c0.9-0.4,1.8-0.7,2.8-0.8c0.4-0.1,0.9-0.2,0.9-0.5c0-0.5-0.2-0.9-0.4-1.3c-0.5-1-1.1-2.1-1.7-3.3
			c-2.3-4.7-4.1-8.5-3.9-8.6s2.2,3.6,4.6,8.3c0.6,1.2,1.2,2.3,1.6,3.3c0.3,0.5,0.5,1.1,0.4,1.8c-0.1,0.3-0.3,0.6-0.7,0.7
			c-0.2,0.1-0.5,0.1-0.8,0.2C158.3,114.5,157.3,114.6,156.3,114.6z"/>
		<path class="st7" d="M159.7,135.2c-6,0.7-12-0.3-17.5-2.8c0,0,5,8.3,17.6,5.8L159.7,135.2z"/>
		<path class="st7" d="M156,118.9c-0.8-0.8-1.9-1.1-3-0.9c-0.8,0.2-1.5,0.6-1.9,1.3c-0.4,0.6-0.4,1.5,0.1,2.1
			c0.6,0.6,1.5,0.7,2.3,0.3c0.8-0.4,1.5-0.9,2.1-1.6c0.2-0.2,0.3-0.3,0.5-0.6C156.2,119.4,156.1,119.1,156,118.9"/>
		<path class="st0" d="M151.3,116.3c0.3,0,0.5,1.9,2.3,3.1s3.8,0.8,3.8,1s-0.4,0.4-1.3,0.5c-1.1,0.1-2.2-0.1-3.2-0.8
			c-0.9-0.6-1.5-1.5-1.8-2.6C151,116.8,151.2,116.3,151.3,116.3z"/>
		<path class="st0" d="M149.1,99.1c-0.1,0.5-1.9,0.4-3.9,0.9s-3.6,1.2-3.9,0.8c-0.1-0.2,0.1-0.7,0.7-1.2c0.8-0.7,1.8-1.1,2.9-1.3
			c1-0.2,2.1-0.2,3.2,0C148.7,98.5,149.2,98.8,149.1,99.1z"/>
		<path class="st0" d="M164.7,95.1c-0.3,0.4-1.5,0.1-3,0.3s-2.6,0.5-3,0.2c-0.1-0.2,0-0.6,0.5-1c0.7-0.5,1.5-0.9,2.3-0.9
			c0.9-0.1,1.7,0.1,2.4,0.6C164.6,94.5,164.8,94.9,164.7,95.1z"/>
		<path class="st0" d="M155.6,76.5c7.2,1.1,12.7,7.1,13.1,14.3l-7.2,0.4l-1.5-3.8c0.9,2.3-0.8,5-3,6.2s-4.9,1.2-7.4,1.1l-0.5-3.2
			c-0.2,2.2-1.7,4.1-3.7,5c-2,0.8-4.2,1.3-6.4,1.3c-2.2,0.1-4.4,0.5-6.4,1.4c-1.7-4.1-1.3-8.8,1.1-12.5c2.4-3.7,6-6.4,10.1-7.8
			c4.1-1.4,8.5-2,12.9-1.9"/>
		<path class="st0" d="M119.8,154.4c0.7-3.7,2-7.4,1.4-11.2c-0.5-3.5-2.6-7-1.3-10.2c0.9-1.9,2.8-3.2,4.9-3.4
			c-4.9-8-5.6-18-5.3-27.5c0-3.1,0.4-6.1,1.3-9.1c0.8-3,2.7-5.6,5.2-7.3c2.6-1.8,6-1.9,8.7-0.4l2,0.2c1.7,4.8,1.5,10.1-0.7,14.8
			c-0.8,1.7-1.8,3.4-1.9,5.3c-0.2,4,3.8,7.2,3.8,11.2c0,3.2-1.4,6.1-2.9,8.9c-0.9,1.8-1.3,2.8,0.3,4.9c0.9,1.2,7.8,18.1,2.6,27.6
			c-0.7,3.3-2.6,6.2-5.3,8.1c-3.5,2.2-8.4,2-11.2-1C119,162.4,119,158.2,119.8,154.4z"/>
	</g>
	<g id="freepik--speech-bubble--inject-36">
		<path class="st0" d="M51.8,40.2v2.1c0,1.4,0,3.3,0.1,5.8c0,5,0.1,12,0.1,20.4l-0.3-0.3h28.2c0.1-0.1-0.6,0.6-0.3,0.3l0,0V40.2
			l0.3,0.3l-20.2-0.1l-5.8-0.1L51.8,40.2c0.2,0,0.3,0,0.5,0.1h1.5l5.7-0.1L80,40h0.3v28.5l0,0c0.3-0.3-0.4,0.4-0.3,0.3H51.5v-0.3
			c0.1-8.5,0.1-15.5,0.1-20.5c0-2.4,0.1-4.3,0.1-5.7v-1.5C51.7,40.6,51.7,40.4,51.8,40.2z"/>
		<path class="st1" d="M85.9,33.9c0.4,0.3-5.8,8.4-13.7,18.1l-4.8,5.7l-0.6,0.7l-0.7-0.6c-6.6-5.9-11.2-10.3-11-10.6
			s5.3,3.6,12.1,9.3l-1.2,0.1l4.7-5.8C78.7,41.2,85.5,33.6,85.9,33.9z"/>
		<path class="st3" d="M66.4,14c-0.2,0-0.5,0-0.7,0h-2.1c-0.5,0-1,0-1.5,0.1l-1.8,0.3l-2.1,0.3l-2.3,0.6c-4.1,1-8,2.7-11.5,5
			c-4.7,3-8.8,7-11.9,11.6c-3.8,5.7-6.1,12.2-6.8,19c-0.2,1.9-0.2,3.7-0.1,5.6c0,0.9,0.1,1.9,0.2,2.8c0.2,1,0.3,1.9,0.4,2.9
			c0.7,4,2,7.8,3.9,11.3c1.9,3.7,4.4,7.2,7.3,10.2c3.2,3.1,6.8,5.7,10.7,7.7c4.1,2.1,8.5,3.4,13,4c1.2,0.2,2.3,0.3,3.5,0.3
			c1.2,0.1,2.3,0.1,3.5,0.1c2.4-0.1,4.7-0.4,7-0.9c5-1.1,9.7-3.1,14-5.9h-0.4l14.2,5.7l0.8,0.3l-0.3-0.9c-1.4-5.2-2.8-10.3-4.2-15.2
			l-0.1,0.4c3.9-5.1,6.5-11.1,7.6-17.4c0.5-2.9,0.7-5.9,0.6-8.9c0-1.4-0.2-2.9-0.4-4.3c-0.1-0.7-0.2-1.4-0.3-2.1
			c-0.1-0.7-0.3-1.3-0.5-2c-2.4-9.3-8-17.5-15.9-23.1c-2.9-2.1-6.1-3.8-9.5-5l-2.1-0.8l-2-0.5l-1.9-0.5c-0.6-0.1-1.2-0.2-1.7-0.3
			c-1.1-0.1-2-0.3-2.9-0.4L68.1,14H66.4c0.1,0,0.3,0,0.4,0.1l1.3,0.1l2.1,0.1c1,0.1,1.9,0.2,2.8,0.4c15.8,2.7,28.5,14.5,32.4,30
			c0.2,0.7,0.4,1.3,0.5,2l0.3,2c0.2,1.4,0.3,2.8,0.4,4.2c0.2,2.9,0,5.9-0.6,8.7c-1.1,6.2-3.7,12-7.5,17l-0.1,0.2V79
			c1.3,4.9,2.7,10,4.2,15.2l0.6-0.5l-14.2-5.6L88.6,88l-0.2,0.1c-4.2,2.8-8.8,4.8-13.7,5.9c-2.3,0.5-4.5,0.8-6.8,0.9
			c-1.2,0.1-2.3,0.1-3.5,0c-1.1,0-2.3-0.1-3.4-0.3c-4.5-0.5-8.8-1.8-12.8-3.9c-3.8-1.9-7.4-4.5-10.5-7.5c-2.9-3-5.3-6.3-7.3-10
			c-1.8-3.5-3.1-7.2-3.8-11.1c-0.1-1-0.3-1.9-0.4-2.8s-0.1-1.9-0.2-2.8C26,54.7,26,52.8,26.1,51c1.1-12.4,7.9-23.6,18.4-30.3
			c3.5-2.3,7.3-4,11.3-5.1l2.3-0.6l2.1-0.4l1.8-0.3c0.5-0.1,1.1-0.1,1.5-0.1l2-0.1C65.9,14.1,66.2,14,66.4,14z"/>
	</g>
	<g id="freepik--Device--inject-36">
		<path class="st0" d="M374.2,462.6l-150.9-0.1c-18.2,0-32.9-14.7-32.9-32.9l0.1-378.5c0-18.2,14.7-32.9,32.9-32.9l0,0l150.9,0.1
			c18.2,0,32.9,14.7,32.9,32.9c0,0,0,0,0,0l-0.1,378.4C407.1,447.8,392.5,462.6,374.2,462.6C374.3,462.6,374.3,462.6,374.2,462.6
			L374.2,462.6z"/>
		<path class="st6" d="M374.2,31.8h-29.3c-4,0.1-7.2,3.4-7.1,7.4v5.3c0.1,4-3.1,7.3-7.1,7.4c0,0,0,0,0,0h-57.1
			c-4-0.1-7.2-3.4-7.1-7.4v-5.4c0.1-4-3.1-7.3-7.1-7.4h-35.9c-12.7,0-23,10.3-23,23l0,0l-0.1,369.4c0,12.7,10.3,23,23,23l150.6,0.1
			c12.7,0,23-10.3,23-23l0,0l0.1-369.4C397.2,42.1,386.9,31.8,374.2,31.8L374.2,31.8z"/>
		<path class="st0" d="M219.9,117.5h-2.1v-0.6h4.9v0.6h-2.1v5.5h-0.6L219.9,117.5z"/>
		<path class="st0" d="M222.6,120.7c0-1.3,1-2.3,2.3-2.3c1.3,0,2.3,1,2.3,2.3c0,1.3-1,2.3-2.3,2.3c-1.2,0.1-2.3-0.9-2.3-2.1
			L222.6,120.7z M226.6,120.7c0-0.9-0.8-1.7-1.8-1.6s-1.7,0.8-1.6,1.8c0,0.9,0.8,1.6,1.7,1.6c0.9,0,1.7-0.7,1.7-1.6c0,0,0,0,0,0
			C226.7,120.8,226.7,120.7,226.6,120.7L226.6,120.7z"/>
		<path class="st0" d="M232.6,116.6v6.4h-0.6v-0.9c-0.4,0.6-1,1-1.8,0.9c-1.3,0-2.3-1-2.3-2.3c0-1.3,1-2.3,2.3-2.3c0,0,0,0,0,0
			c0.7,0,1.3,0.3,1.7,0.9v-2.7L232.6,116.6z M232,120.7c0-0.9-0.8-1.6-1.8-1.6c-0.9,0-1.6,0.8-1.6,1.8c0,0.9,0.8,1.6,1.7,1.6
			c0.9,0,1.7-0.7,1.7-1.6c0,0,0,0,0,0V120.7z"/>
		<path class="st0" d="M237.8,120.1v2.8h-0.6v-0.7c-0.4,0.5-1,0.8-1.6,0.8c-1,0-1.7-0.5-1.7-1.3s0.4-1.3,1.8-1.3h1.5v-0.3
			c0-0.6-0.5-1.2-1.2-1.2l0,0c0,0-0.1,0-0.1,0c-0.6,0-1.1,0.2-1.5,0.5l-0.3-0.4c0.5-0.4,1.2-0.6,1.9-0.6c0.9-0.1,1.7,0.5,1.8,1.4
			c0,0,0,0,0,0C237.8,120,237.8,120.1,237.8,120.1z M237.2,121.6v-0.8h-1.4c-0.9,0-1.2,0.3-1.2,0.8s0.4,0.8,1.2,0.8
			C236.4,122.5,237,122.2,237.2,121.6z"/>
		<path class="st0" d="M243.2,118.5l-2.3,5.1c-0.4,0.9-0.9,1.2-1.5,1.2c-0.4,0-0.8-0.1-1.2-0.4l0.3-0.4c0.2,0.2,0.5,0.3,0.8,0.3
			c0.4,0,0.7-0.2,0.9-0.8l0.2-0.4l-2-4.5h0.6l1.7,3.8l1.8-3.8H243.2z"/>
		<path class="st0" d="M289.1,74.5h1.9v6.6h4.1v1.5h-6L289.1,74.5z"/>
		<path class="st0" d="M295.8,74.5c0-0.6,0.4-1,1-1c0,0,0,0,0.1,0h0.1c0.5-0.1,1.1,0.3,1.1,0.8c0,0,0,0,0,0c0,0,0,0.1,0,0.1
			c-0.2,0.6-0.8,1-1.4,0.8C296.3,75.2,296,74.9,295.8,74.5L295.8,74.5z M296,76.4h1.8v6.3H296L296,76.4z"/>
		<path class="st0" d="M298.9,82l0.6-1.3c0.7,0.4,1.4,0.6,2.2,0.6c0.8,0,1.2-0.2,1.2-0.6c0-1-3.8,0-3.8-2.5c0-1.2,1.1-2,2.9-2
			c0.8,0,1.7,0.2,2.4,0.6l-0.6,1.3c-0.6-0.3-1.2-0.5-1.8-0.5c-0.8,0-1.2,0.3-1.2,0.6c0,1.1,3.8,0,3.8,2.5c0,1.2-1.1,2-3,2
			C300.7,82.7,299.7,82.5,298.9,82z"/>
		<path class="st0" d="M309.8,82.3c-0.4,0.3-1,0.4-1.5,0.4c-1.1,0.1-2.1-0.7-2.3-1.8c0-0.2,0-0.3,0-0.5v-2.6h-1v-1.3h1V75h1.8v1.5
			h1.5v1.3h-1.5v2.5c-0.1,0.4,0.2,0.8,0.6,0.8c0,0,0,0,0,0h0.1c0.3,0,0.5-0.1,0.7-0.2L309.8,82.3z"/>
		<path class="st0" d="M378.4,73.8c0,0.1-3.8,0.2-8.5,0.3s-8.5,0-8.5-0.1s3.8-0.2,8.5-0.3S378.4,73.7,378.4,73.8z"/>
		<path class="st0" d="M378.5,78.1c0,0.1-3.8,0.2-8.5,0.3s-8.5,0-8.5-0.1s3.8-0.2,8.5-0.3S378.5,78,378.5,78.1z"/>
		<path class="st0" d="M378.5,82.5c0,0.1-3.8,0.2-8.5,0.2s-8.5,0-8.5-0.1s3.8-0.2,8.5-0.3S378.5,82.4,378.5,82.5z"/>
		<path class="st0" d="M219.6,83.8c-0.1,0-0.2,0-0.3-0.1l-3.7-3.6c-0.2-0.2-0.2-0.4,0-0.6l3.6-3.6c0.2-0.1,0.4-0.1,0.6,0.1
			c0.1,0.2,0.1,0.4,0,0.5l-3.4,3.3l3.4,3.3c0.2,0.2,0.2,0.4,0,0.6C219.8,83.7,219.7,83.7,219.6,83.8L219.6,83.8z"/>
		<path class="st0" d="M246.3,154.4c0,1.2-0.9,2-2.3,2h-1.5v1.8h-0.6v-5.7h2.1C245.5,152.4,246.3,153.2,246.3,154.4z M245.7,154.4
			c0-0.9-0.6-1.4-1.8-1.4h-1.5v2.9h1.5C245.1,155.8,245.7,155.3,245.7,154.4L245.7,154.4z"/>
		<path class="st0" d="M249.6,153.8v0.6h-0.1c-0.8,0-1.4,0.6-1.5,1.3c0,0,0,0,0,0c0,0.1,0,0.2,0,0.3v2.2h-0.6v-4.3h0.6v0.8
			C248.3,154.1,248.9,153.8,249.6,153.8z"/>
		<path class="st0" d="M250.2,156c0-1.2,1-2.2,2.2-2.2c1.2,0,2.2,1,2.2,2.2c0,1.2-1,2.2-2.2,2.2c0,0,0,0,0,0l0,0
			c-1.2,0-2.1-0.8-2.2-2V156z M254,156c0-0.9-0.8-1.6-1.6-1.5c0,0,0,0,0,0c-0.9,0-1.6,0.8-1.6,1.6c0,0.9,0.8,1.6,1.6,1.6
			c0.9,0,1.6-0.7,1.6-1.5c0,0,0,0,0,0C254,156.1,254,156,254,156L254,156z"/>
		<path class="st0" d="M254.2,159.5l0.2-0.4c0.2,0.2,0.4,0.2,0.7,0.2c0.4,0,0.7-0.3,0.7-0.8v-4.6h0.6v4.6c0.1,0.6-0.4,1.2-1,1.3
			c0,0,0,0,0,0h-0.3C254.8,159.8,254.4,159.7,254.2,159.5z M255.6,152.5c0-0.2,0.2-0.4,0.4-0.4c0,0,0,0,0,0c0.2,0,0.4,0.2,0.4,0.4
			l0,0c0,0.2-0.2,0.4-0.4,0.4c0,0,0,0,0,0l0,0C255.9,152.9,255.7,152.7,255.6,152.5C255.7,152.5,255.7,152.5,255.6,152.5
			L255.6,152.5z"/>
		<path class="st0" d="M261.7,156.2h-3.6c0,0.9,0.8,1.5,1.7,1.5l0,0c0.5,0,1-0.2,1.3-0.6l0.3,0.4c-0.9,0.9-2.3,1-3.2,0.1
			c-0.4-0.4-0.6-0.9-0.7-1.4c0-0.1,0-0.1,0-0.2c-0.1-1.1,0.8-2.1,2-2.2c0,0,0,0,0,0h0.1c1.1,0,2.1,0.9,2.1,2v0.2L261.7,156.2z
			 M258.1,155.7h3c-0.1-0.8-0.8-1.5-1.6-1.4C258.8,154.4,258.2,155,258.1,155.7z"/>
		<path class="st0" d="M262.5,156c0-1.2,0.9-2.2,2-2.2c0,0,0,0,0,0h0.2c0.7,0,1.3,0.3,1.7,0.9L266,155c-0.3-0.4-0.7-0.7-1.3-0.6
			c-0.9,0.1-1.6,0.9-1.5,1.8c0.1,0.8,0.7,1.5,1.5,1.5c0.5,0,1-0.2,1.3-0.6l0.4,0.3c-0.4,0.6-1,0.9-1.7,0.9c-1.2,0-2.1-0.8-2.2-2V156
			z"/>
		<path class="st0" d="M269.9,157.9c-0.3,0.2-0.6,0.3-0.9,0.3c-0.6,0.1-1.2-0.4-1.3-1.1c0,0,0,0,0,0v-2.8h-0.8v-0.5h0.8v-0.9h0.6
			v0.9h1.3v0.5h-1.3v2.6c-0.1,0.4,0.2,0.7,0.6,0.8h0.2c0.2,0,0.5-0.1,0.6-0.2L269.9,157.9z"/>
		<path class="st0" d="M272.7,155.3c0-1.6,1.2-2.9,2.8-2.9c0,0,0,0,0,0h0.2c0.8,0,1.5,0.3,2.1,0.8l-0.4,0.4
			c-0.4-0.5-1.1-0.7-1.7-0.7c-1.3-0.1-2.4,0.9-2.5,2.2c-0.1,1.3,0.9,2.4,2.2,2.5c0.1,0,0.2,0,0.3,0c0.6,0,1.2-0.2,1.7-0.7l0.4,0.4
			c-0.5,0.6-1.3,0.9-2.1,0.9c-1.6,0.1-2.9-1.2-3-2.8L272.7,155.3z"/>
		<path class="st0" d="M279,152.1h0.6v6.1H279V152.1z"/>
		<path class="st0" d="M281,152.5c0-0.2,0.2-0.4,0.4-0.4l0,0c0.2,0,0.4,0.2,0.4,0.4c0,0,0,0,0,0l0,0c0,0.2-0.1,0.4-0.3,0.5
			c0,0,0,0,0,0c-0.2,0-0.4-0.1-0.5-0.4C281,152.6,281,152.5,281,152.5L281,152.5z M281.1,153.8h0.6v4.3h-0.6V153.8z"/>
		<path class="st0" d="M287.1,156.2h-3.6c0.1,0.9,0.8,1.5,1.7,1.5l0,0c0.5,0,1-0.2,1.3-0.6l0.3,0.4c-0.9,0.9-2.3,0.9-3.2,0.1
			c-0.4-0.4-0.6-0.9-0.7-1.4V156c-0.1-1.2,0.8-2.1,2-2.2c0,0,0,0,0,0h0.1c1.1,0,2.1,0.9,2.1,2c0,0.1,0,0.1,0,0.2
			C287.1,156,287.1,156.1,287.1,156.2z M283.5,155.7h3c-0.1-0.8-0.8-1.5-1.6-1.4C284.2,154.4,283.6,155,283.5,155.7z"/>
		<path class="st0" d="M292.3,155.6v2.5h-0.6v-2.4c0.1-0.6-0.3-1.2-0.9-1.4c-0.1,0-0.3,0-0.4,0c-0.8-0.1-1.5,0.5-1.5,1.3
			c0,0,0,0,0,0c0,0.1,0,0.2,0,0.2v2.3h-0.6v-4.3h0.6v0.8c0.4-0.6,1-0.9,1.6-0.8c0.9-0.1,1.7,0.6,1.8,1.5c0,0,0,0,0,0
			C292.3,155.4,292.3,155.5,292.3,155.6z"/>
		<path class="st0" d="M296.1,157.9c-0.3,0.2-0.6,0.3-0.9,0.3c-0.6,0.1-1.2-0.4-1.2-1c0,0,0,0,0,0c0-0.1,0-0.1,0-0.2v-2.6h-0.8v-0.5
			h0.8v-0.9h0.6v0.9h1.3v0.5h-1.3v2.6c-0.1,0.4,0.2,0.7,0.6,0.8h0.2c0.2,0,0.5-0.1,0.6-0.2L296.1,157.9z"/>
		<path class="st1" d="M231.4,155.7c0,2.8-2.2,5-5,5c-2.8,0-5-2.2-5-5c0-2.8,2.2-5,5-5c0,0,0,0,0,0
			C229.2,150.7,231.4,152.9,231.4,155.7C231.4,155.6,231.4,155.7,231.4,155.7z"/>
		<path class="st6" d="M225.9,157.2c-0.1,0-0.1,0-0.2-0.1l-1.4-1.2c-0.1-0.1-0.1-0.3,0-0.4c0.1-0.1,0.3-0.1,0.4,0c0,0,0,0,0,0l0,0
			l1.2,1l2.2-2.3c0.1-0.1,0.3-0.2,0.4-0.1c0.1,0.1,0.2,0.3,0.1,0.4l-0.1,0.1l-2.3,2.5C226.1,157.1,226,157.2,225.9,157.2z"/>
		<path class="st1" d="M383.6,175.7c0.4,0,0.7-0.1,1.1-0.1c1.1-0.2,2-0.7,2.8-1.4c1.3-1.2,2-2.8,2-4.6v-23.8c0-0.9,0-1.9-0.1-2.8
			c-0.4-1.9-1.7-3.5-3.5-4.3c-1-0.4-2-0.5-3-0.5h-16.8l-149.7,0.1c-1.8,0-3.4,0.8-4.5,2.2c-0.5,0.7-0.9,1.5-1.1,2.3
			c-0.1,0.9-0.2,1.8-0.1,2.6v24c0,0.8,0.1,1.7,0.5,2.4c0.7,1.5,2,2.7,3.6,3.2c0.8,0.2,1.6,0.3,2.5,0.3h37.1l67.3,0.1l45.4,0.1h12.3
			l-12.3,0.1l-45.4,0.1l-67.3,0.1h-37.1c-0.9,0.1-1.8,0-2.6-0.3c-1.8-0.6-3.2-1.9-3.9-3.6c-0.3-0.8-0.5-1.7-0.5-2.6v-23.8
			c0-0.9,0-1.9,0.1-2.8c0.6-2.9,3.2-5,6.2-5l149.7,0.1H383c1.1-0.1,2.1,0.1,3.1,0.5c1.9,0.8,3.3,2.5,3.6,4.6
			c0.1,0.9,0.1,1.9,0.1,2.8v23.8c0,2.9-2.1,5.5-5,6c-0.3,0-0.5,0.1-0.8,0.1L383.6,175.7z"/>
		<path class="st10" d="M299.5,165.2c0,0.2-12.9,0.3-28.7,0.3s-28.7-0.1-28.7-0.3s12.9-0.3,28.7-0.3S299.5,165.1,299.5,165.2z"/>
		<path class="st1" d="M368.1,156c0,0.1,0,0.1,0,0.1l-1.8,1.8c-0.1,0.1-0.2,0.1-0.3,0l-1.8-1.8c-0.1-0.1-0.1-0.2,0-0.3
			c0.1-0.1,0.2-0.1,0.3,0c0,0,0,0,0,0l0,0l1.6,1.7l1.7-1.7c0.1-0.1,0.2-0.1,0.3,0C368.1,155.9,368.1,155.9,368.1,156z"/>
		<path class="st0" d="M241.9,200.3V197h0.6v3.3c0,1.4,0.6,2,1.8,2s1.8-0.6,1.8-2V197h0.5v3.3c-0.1,1.3-1.2,2.3-2.5,2.2
			C242.8,202.5,241.9,201.5,241.9,200.3L241.9,200.3z"/>
		<path class="st0" d="M252.6,200.6c0.1,1.2-0.8,2.1-2,2.2c0,0,0,0,0,0h-0.2c-0.6,0-1.3-0.3-1.6-0.8v2.3h-0.6v-5.9h0.6v0.9
			c0.4-0.6,1-0.9,1.7-0.9c1.2,0,2.1,0.9,2.1,2.1c0,0,0,0,0,0C252.6,200.5,252.6,200.6,252.6,200.6z M252,200.6
			c0-0.9-0.8-1.6-1.7-1.5c-0.9,0-1.6,0.8-1.5,1.7c0,0.9,0.7,1.6,1.6,1.5c0.9,0,1.6-0.7,1.6-1.6C252,200.7,252,200.7,252,200.6z"/>
		<path class="st0" d="M257.7,196.7v6.1h-0.6v-0.9c-0.4,0.6-1,0.9-1.7,0.9c-1.2-0.1-2.1-1.1-2-2.3c0.1-1.1,0.9-2,2-2
			c0.7,0,1.3,0.3,1.6,0.9v-2.6H257.7z M257.1,200.6c0-0.9-0.8-1.6-1.7-1.5c-0.9,0-1.6,0.8-1.5,1.7c0,0.9,0.7,1.5,1.6,1.5
			c0.9,0,1.6-0.7,1.6-1.6C257.1,200.7,257.1,200.7,257.1,200.6z"/>
		<path class="st0" d="M262.6,200.1v2.7H262v-0.7c-0.3,0.5-0.9,0.8-1.5,0.7c-1,0-1.6-0.5-1.6-1.3s0.4-1.2,1.7-1.2h1.4v-0.3
			c0.1-0.5-0.3-1.1-0.8-1.2c-0.1,0-0.2,0-0.4,0c-0.5,0-1,0.2-1.4,0.5l-0.3-0.4c0.5-0.4,1.1-0.6,1.8-0.6c0.8-0.1,1.6,0.5,1.7,1.4
			C262.6,199.9,262.6,200,262.6,200.1z M262,201.5v-0.7h-1.3c-0.8,0-1.2,0.3-1.2,0.8s0.4,0.8,1.1,0.8
			C261.2,202.4,261.8,202.1,262,201.5z"/>
		<path class="st0" d="M266.4,202.5c-0.3,0.2-0.6,0.3-0.9,0.3c-0.6,0.1-1.2-0.4-1.3-1.1c0-0.1,0-0.1,0-0.2V199h-0.8v-0.5h0.8v-0.9
			h0.6v0.9h1.3v0.5h-1.3v2.6c-0.1,0.4,0.2,0.7,0.6,0.8h0.1c0.2,0,0.5-0.1,0.6-0.2L266.4,202.5z"/>
		<path class="st0" d="M271.1,200.9h-3.6c0,0.9,0.8,1.5,1.7,1.5c0,0,0,0,0,0l0,0c0.5,0,1-0.2,1.3-0.6l0.3,0.4
			c-0.4,0.5-1,0.7-1.6,0.7c-1.2,0.1-2.2-0.8-2.3-1.9c-0.1-1.2,0.7-2.2,1.9-2.4c0.1,0,0.1,0,0.2,0c1.2,0,2.1,0.9,2.1,2.1l0,0
			C271.1,200.7,271.1,200.8,271.1,200.9z M267.5,200.4h3.1c-0.1-0.8-0.8-1.5-1.7-1.4C268.1,199.1,267.5,199.7,267.5,200.4z"/>
		<path class="st0" d="M279,199c0,1.2-0.9,2-2.3,2h-1.5v1.8h-0.6v-5.7h2.1C278.1,197,279,197.8,279,199z M278.4,199
			c0-0.9-0.6-1.4-1.8-1.4h-1.5v2.9h1.6C277.8,200.4,278.4,199.9,278.4,199L278.4,199z"/>
		<path class="st0" d="M282.3,198.4v0.6h-0.1c-0.8,0-1.4,0.5-1.5,1.3c0,0,0,0,0,0c0,0.1,0,0.2,0,0.3v2.2h-0.5v-4.3h0.5v0.9
			C281,198.7,281.6,198.4,282.3,198.4z"/>
		<path class="st0" d="M287,200.9h-3.6c0,0.9,0.8,1.5,1.7,1.5c0,0,0,0,0,0l0,0c0.5,0,1-0.2,1.3-0.6l0.3,0.4c-0.4,0.5-1,0.8-1.7,0.7
			c-1.2,0.1-2.2-0.8-2.3-2v-0.2c-0.1-1.1,0.8-2.1,1.9-2.2c0,0,0,0,0.1,0h0.2c1.1,0,2,0.8,2.1,1.9c0,0,0,0.1,0,0.1c0,0.1,0,0.1,0,0.2
			L287,200.9z M283.4,200.4h3c-0.1-0.8-0.8-1.5-1.6-1.4C284.1,199.1,283.5,199.7,283.4,200.4z"/>
		<path class="st0" d="M287.6,202.3l0.3-0.4c0.4,0.3,1,0.5,1.5,0.5c0.8,0,1.2-0.3,1.2-0.7c0-1.2-2.8-0.2-2.8-1.9
			c0-0.7,0.6-1.2,1.7-1.2c0.5,0,1.1,0.1,1.5,0.4l-0.3,0.5c-0.4-0.3-0.8-0.4-1.3-0.4c-0.8,0-1.2,0.3-1.2,0.7c0,1.2,2.8,0.3,2.8,1.9
			c0,0.7-0.6,1.2-1.8,1.2C288.7,202.8,288.1,202.7,287.6,202.3z"/>
		<path class="st0" d="M296,200.9h-3.6c0.1,0.9,0.8,1.6,1.7,1.5l0,0c0.5,0,1-0.2,1.3-0.6l0.3,0.4c-0.9,0.9-2.4,1-3.3,0.1
			c-0.4-0.4-0.7-1-0.7-1.6c0-1.2,0.9-2.1,2.1-2.1s2.1,0.9,2.1,2.1l0,0C296,200.7,296,200.8,296,200.9z M292.4,200.4h3.1
			c0-0.8-0.7-1.5-1.5-1.5C293.1,198.9,292.4,199.6,292.4,200.4C292.4,200.4,292.4,200.4,292.4,200.4z"/>
		<path class="st0" d="M301.2,200.3v2.5h-0.6v-2.4c0.1-0.6-0.3-1.2-0.9-1.4c-0.1,0-0.3,0-0.4,0c-0.8-0.1-1.5,0.5-1.5,1.3
			c0,0,0,0,0,0c0,0.1,0,0.2,0,0.2v2.3h-0.6v-4.3h0.6v0.8c0.4-0.6,1-0.9,1.6-0.8c0.9-0.1,1.7,0.6,1.8,1.5
			C301.2,200.1,301.2,200.2,301.2,200.3z"/>
		<path class="st0" d="M305,202.5c-0.3,0.2-0.6,0.3-0.9,0.3c-0.6,0.1-1.2-0.4-1.3-1.1V199H302v-0.5h0.8v-0.9h0.6v0.9h1.3v0.5h-1.3
			v2.6c-0.1,0.4,0.2,0.7,0.6,0.8c0,0,0,0,0,0h0.2c0.2,0,0.5-0.1,0.6-0.2L305,202.5z"/>
		<path class="st0" d="M309.3,200.1v2.7h-0.6v-0.7c-0.3,0.5-0.9,0.8-1.5,0.7c-1,0-1.6-0.5-1.6-1.3s0.4-1.2,1.7-1.2h1.4v-0.3
			c0.1-0.6-0.4-1.1-1-1.2c-0.1,0-0.2,0-0.3,0c-0.5,0-1,0.2-1.4,0.5l-0.3-0.4c0.5-0.4,1.1-0.6,1.8-0.6c0.8-0.1,1.6,0.4,1.7,1.3
			c0,0,0,0,0,0C309.3,199.8,309.3,200,309.3,200.1z M308.7,201.5v-0.7h-1.4c-0.8,0-1.1,0.3-1.1,0.8s0.4,0.8,1.1,0.8
			C308,202.4,308.5,202.1,308.7,201.5z"/>
		<path class="st0" d="M313.2,202.5c-0.3,0.2-0.6,0.3-0.9,0.3c-0.6,0.1-1.2-0.4-1.3-1.1V199h-0.8v-0.5h0.8v-0.9h0.6v0.9h1.3v0.5
			h-1.3v2.6c-0.1,0.4,0.2,0.7,0.6,0.8h0.2c0.2,0,0.5-0.1,0.6-0.2L313.2,202.5z"/>
		<path class="st0" d="M314.1,197.1c0-0.2,0.2-0.4,0.4-0.4c0.2,0,0.4,0.2,0.4,0.4c0,0.2-0.2,0.4-0.4,0.4l0,0
			C314.3,197.5,314.1,197.4,314.1,197.1z M314.2,198.5h0.6v4.3h-0.6V198.5z"/>
		<path class="st0" d="M316,200.6c0-1.2,1-2.2,2.2-2.2c1.2,0,2.2,1,2.2,2.2c0,1.2-1,2.2-2.2,2.2c0,0,0,0,0,0c-1.2,0.1-2.1-0.8-2.2-2
			V200.6z M319.8,200.6c0-0.9-0.8-1.6-1.7-1.5c-0.9,0-1.6,0.8-1.5,1.7c0,0.9,0.7,1.5,1.6,1.5c0.9,0,1.6-0.7,1.6-1.6V200.6z"/>
		<path class="st0" d="M325.5,200.3v2.5H325v-2.4c0.1-0.6-0.3-1.2-0.9-1.4c-0.1,0-0.3,0-0.4,0c-0.8-0.1-1.5,0.5-1.5,1.3c0,0,0,0,0,0
			c0,0.1,0,0.2,0,0.2v2.3h-0.6v-4.3h0.5v0.8c0.4-0.6,1-0.9,1.6-0.8c0.9-0.1,1.7,0.6,1.8,1.5c0,0,0,0,0,0
			C325.6,200.1,325.6,200.2,325.5,200.3z"/>
		<path class="st1" d="M231.4,200.3c0,2.8-2.2,5-5,5c-2.8,0-5-2.2-5-5c0-2.8,2.2-5,5-5c0,0,0,0,0,0
			C229.2,195.3,231.4,197.6,231.4,200.3z"/>
		<path class="st6" d="M225.9,201.8c-0.1,0-0.1,0-0.2-0.1l-1.4-1.2c-0.1-0.1-0.1-0.3,0-0.4c0.1-0.1,0.3-0.1,0.4,0c0,0,0,0,0,0
			l1.2,1.1l2.2-2.3c0.1-0.1,0.2-0.2,0.4-0.1c0.1,0.1,0.2,0.2,0.1,0.4c0,0,0,0,0,0.1c0,0,0,0-0.1,0.1l-2.3,2.5
			C226.1,201.8,226,201.8,225.9,201.8z"/>
		<path class="st1" d="M383.6,220.4c0.4,0,0.7-0.1,1.1-0.1c1-0.2,2-0.7,2.8-1.4c1.3-1.2,2-2.8,2-4.6v-23.8c0-0.9,0-1.9-0.1-2.8
			c-0.4-1.9-1.7-3.5-3.5-4.3c-1-0.4-2-0.5-3-0.5h-16.8L216.5,183c-1.7,0-3.4,0.8-4.5,2.2c-0.5,0.7-0.9,1.5-1.1,2.3
			c-0.1,0.9-0.2,1.8-0.1,2.6v24c0,0.8,0.1,1.7,0.5,2.4c0.7,1.5,2,2.7,3.6,3.2c0.8,0.2,1.6,0.3,2.5,0.3h37.1l67.3,0.1l45.4,0.1
			l12.3,0.1l0,0l-12.3,0.1l-45.4,0.1l-67.3,0.1h-37.2c-0.9,0.1-1.8,0-2.6-0.3c-1.8-0.6-3.2-1.9-3.9-3.6c-0.4-0.8-0.5-1.7-0.5-2.6
			v-23.8c0-0.9,0-1.9,0.1-2.8c0.6-2.9,3.2-5,6.2-5l149.7,0.1H383c1.1-0.1,2.1,0.1,3.1,0.5c1.9,0.8,3.2,2.5,3.6,4.6
			c0.1,0.9,0.1,1.9,0.1,2.8v23.8c0,1.8-0.8,3.5-2.1,4.6c-0.8,0.7-1.8,1.2-2.9,1.4c-0.3,0-0.5,0.1-0.8,0.1L383.6,220.4z"/>
		<path class="st10" d="M299.5,209.9c0,0.2-12.9,0.3-28.7,0.3s-28.7-0.1-28.7-0.3s12.9-0.3,28.7-0.3S299.5,209.7,299.5,209.9z"/>
		<path class="st1" d="M368.1,200.6c0,0.1,0,0.1,0,0.1l-1.8,1.8c-0.1,0.1-0.2,0.1-0.3,0l-1.8-1.8c-0.1-0.1-0.1-0.2,0-0.3
			c0.1-0.1,0.2-0.1,0.3,0c0,0,0,0,0,0l1.6,1.7l1.7-1.7c0.1-0.1,0.2-0.1,0.3,0C368.1,200.5,368.1,200.6,368.1,200.6z"/>
		<path class="st0" d="M241.3,244.5c0-1.6,1.2-2.9,2.8-2.9c0,0,0,0,0,0h0.2c0.8,0,1.6,0.3,2.1,0.8l-0.4,0.4
			c-0.4-0.4-1.1-0.7-1.7-0.7c-1.3,0-2.4,1.1-2.4,2.4c0,1.3,1.1,2.4,2.4,2.4l0,0c0.6,0,1.2-0.2,1.7-0.7l0.4,0.4
			c-0.6,0.6-1.3,0.9-2.1,0.9c-1.6,0.1-2.9-1.2-3-2.8V244.5z"/>
		<path class="st0" d="M249.8,243.1v0.6h-0.1c-0.8,0-1.4,0.6-1.5,1.3c0,0.1,0,0.2,0,0.3v2.2h-0.5v-4.3h0.6v0.9
			C248.5,243.4,249.1,243,249.8,243.1z"/>
		<path class="st0" d="M254.6,245.4H251c0.1,0.9,0.8,1.5,1.7,1.5l0,0c0.5,0,1-0.2,1.3-0.6l0.3,0.4c-0.9,0.9-2.3,1-3.2,0.1
			c-0.4-0.4-0.6-0.9-0.7-1.4c0-0.1,0-0.1,0-0.2c-0.1-1.1,0.8-2.1,1.9-2.2h0.1c1.1,0,2.1,0.9,2.1,2L254.6,245.4L254.6,245.4z
			 M251,245h3c-0.1-0.8-0.8-1.5-1.6-1.4C251.6,243.7,251,244.3,251,245L251,245z"/>
		<path class="st0" d="M258.9,244.7v2.7h-0.5v-0.7c-0.3,0.5-0.9,0.8-1.5,0.7c-1,0-1.6-0.5-1.6-1.3s0.4-1.2,1.7-1.2h1.4v-0.3
			c0.1-0.6-0.4-1.1-0.9-1.2c-0.1,0-0.1,0-0.2,0c-0.5,0-1,0.2-1.4,0.5l-0.3-0.4c0.5-0.4,1.1-0.6,1.8-0.6c0.8-0.1,1.6,0.5,1.7,1.4
			C258.9,244.6,258.9,244.7,258.9,244.7z M258.3,246.1v-0.7H257c-0.9,0-1.2,0.3-1.2,0.8s0.4,0.8,1.1,0.8
			C257.5,247,258.1,246.7,258.3,246.1z"/>
		<path class="st0" d="M262.8,247.2c-0.3,0.2-0.6,0.3-0.9,0.3c-0.6,0.1-1.2-0.4-1.3-1.1c0-0.1,0-0.1,0-0.2v-2.6h-0.8v-0.5h0.8v-0.9
			h0.6v0.9h1.3v0.5h-1.3v2.5c0,0.4,0.2,0.7,0.6,0.8h0.1c0.2,0,0.5-0.1,0.6-0.2L262.8,247.2z"/>
		<path class="st0" d="M267.4,245.4h-3.6c0.1,0.9,0.8,1.5,1.7,1.5l0,0c0.5,0,1-0.2,1.3-0.6l0.3,0.4c-0.4,0.5-1,0.7-1.7,0.7
			c-1.2,0.1-2.2-0.8-2.3-1.9c0-0.1,0-0.2,0-0.3c0-1.2,0.9-2.1,2.1-2.1s2.1,0.9,2.1,2.1l0,0C267.4,245.3,267.4,245.4,267.4,245.4z
			 M263.8,245h3.1c-0.1-0.8-0.8-1.5-1.7-1.4C264.4,243.7,263.8,244.3,263.8,245z"/>
		<path class="st0" d="M275.6,241.7v5.7H275v-2.6h-3.6v2.6h-0.6v-5.7h0.6v2.6h3.6v-2.6H275.6z"/>
		<path class="st0" d="M276.9,245.3c0-1.2,1-2.2,2.2-2.2c1.2,0,2.2,1,2.2,2.2c0,1.2-1,2.2-2.2,2.2c-1.2,0-2.2-0.9-2.2-2.1
			c0,0,0,0,0,0V245.3z M280.7,245.3c0-0.9-0.8-1.6-1.7-1.5c-0.9,0-1.6,0.8-1.5,1.7c0,0.9,0.7,1.5,1.6,1.5c0.9,0,1.6-0.7,1.6-1.5
			c0,0,0,0,0,0V245.3z"/>
		<path class="st0" d="M289.6,245v2.5h-0.6V245c0-0.9-0.5-1.4-1.2-1.4c-0.8,0-1.4,0.5-1.5,1.3c0,0,0,0,0,0c0,0.1,0,0.2,0,0.2v2.3
			h-0.6V245c0-0.9-0.5-1.4-1.3-1.4c-0.8,0-1.4,0.5-1.4,1.3c0,0,0,0,0,0c0,0.1,0,0.2,0,0.2v2.3h-0.6v-4.4h0.5v0.8
			c0.3-0.5,0.9-0.9,1.6-0.8c0.6,0,1.3,0.3,1.5,0.9c0.4-0.6,1-0.9,1.7-0.9c0.9-0.1,1.7,0.6,1.8,1.5
			C289.6,244.7,289.6,244.9,289.6,245L289.6,245z"/>
		<path class="st0" d="M295,245.4h-3.6c0.1,0.9,0.8,1.5,1.7,1.5l0,0c0.5,0,1-0.2,1.3-0.6l0.3,0.4c-0.9,0.9-2.3,1-3.2,0.1
			c-0.4-0.4-0.6-0.9-0.7-1.4v-0.2c0-1.2,0.9-2.1,2.1-2.1s2.1,0.9,2.1,2.1l0,0C295,245.3,295,245.4,295,245.4z M291.4,245h3.1
			c0-0.8-0.7-1.5-1.5-1.5C292.1,243.5,291.4,244.2,291.4,245z"/>
		<path class="st0" d="M300.5,245.3c0.1,1.2-0.8,2.1-2,2.2c0,0,0,0,0,0h-0.2c-0.7,0-1.3-0.3-1.6-0.9v2.4h-0.6v-5.9h0.6v0.9
			c0.4-0.6,1-0.9,1.7-0.9c1.1,0,2.1,0.9,2.1,2L300.5,245.3z M300,245.3c0-0.9-0.8-1.6-1.7-1.6c-0.9,0-1.6,0.8-1.6,1.7
			c0,0.9,0.7,1.6,1.6,1.6c0.9,0,1.6-0.7,1.6-1.5c0,0,0,0,0,0V245.3z"/>
		<path class="st0" d="M305,244.7v2.7h-0.6v-0.7c-0.3,0.5-0.9,0.8-1.5,0.7c-1,0-1.6-0.5-1.6-1.3s0.4-1.2,1.7-1.2h1.4v-0.3
			c0.1-0.6-0.4-1.1-1-1.2c-0.1,0-0.2,0-0.3,0c-0.5,0-1,0.2-1.4,0.5l-0.3-0.4c0.5-0.4,1.1-0.6,1.8-0.6c0.8-0.1,1.6,0.5,1.7,1.3
			C305,244.5,305,244.6,305,244.7z M304.4,246.1v-0.7H303c-0.8,0-1.1,0.3-1.1,0.8s0.4,0.8,1.1,0.8
			C303.6,247,304.2,246.7,304.4,246.1L304.4,246.1z"/>
		<path class="st0" d="M310.5,243.1v3.8c0.2,1-0.5,2-1.6,2.2c-0.2,0-0.4,0-0.6,0c-0.7,0-1.4-0.2-2-0.7l0.3-0.4
			c0.5,0.4,1.1,0.6,1.7,0.6c0.7,0.1,1.5-0.4,1.6-1.1c0-0.1,0-0.3,0-0.4v-0.6c-0.4,0.5-1,0.9-1.7,0.8c-1.2,0-2.1-0.9-2.1-2.1
			c0-1.2,0.9-2.1,2.1-2.1c0,0,0,0,0,0c0.7,0,1.3,0.3,1.7,0.9v-0.8L310.5,243.1z M310,245.1c0-0.9-0.7-1.7-1.6-1.7
			c-0.9,0-1.7,0.7-1.7,1.6s0.7,1.7,1.6,1.7c0,0,0,0,0,0l0,0c0.8,0.1,1.6-0.6,1.6-1.4L310,245.1L310,245.1z"/>
		<path class="st0" d="M315.9,245.4h-3.6c0,0.9,0.8,1.5,1.7,1.5c0,0,0,0,0,0l0,0c0.5,0,1-0.2,1.3-0.6l0.3,0.4
			c-0.9,0.9-2.4,1-3.3,0.1c-0.4-0.3-0.6-0.8-0.7-1.3c0-0.1,0-0.2,0-0.3c0-1.2,0.9-2.1,2.1-2.1s2.1,0.9,2.1,2.1l0,0
			C315.9,245.3,315.9,245.4,315.9,245.4z M312.3,245h3.1c0-0.8-0.7-1.5-1.5-1.5C313,243.5,312.3,244.2,312.3,245
			C312.3,245,312.3,245,312.3,245z"/>
		<path class="st10" d="M231.4,245c-0.1-0.4-0.1-0.8-0.3-1.2c-0.3-1-0.9-1.9-1.8-2.6c-2.1-1.5-5-1-6.5,1.1c-1.5,2.1-1,5,1.1,6.5
			c1.6,1.2,3.8,1.2,5.4,0c0.9-0.6,1.5-1.5,1.8-2.6C231.4,245.4,231.4,245,231.4,245c0.1,0.4,0.1,0.9,0,1.3c-0.2,1.1-0.9,2.1-1.8,2.9
			c-1.4,1.1-3.2,1.4-4.9,0.8c-2.7-1-4.1-3.9-3.2-6.6c0.5-1.5,1.7-2.7,3.2-3.2c1.7-0.6,3.5-0.3,4.9,0.8c0.9,0.7,1.5,1.7,1.8,2.9
			C231.5,244.2,231.5,244.6,231.4,245z"/>
		<path class="st10" d="M383.6,265c0.4,0,0.7-0.1,1.1-0.1c1.1-0.2,2-0.7,2.8-1.4c1.3-1.2,2-2.8,2-4.6v-23.8c0-0.9,0-1.9-0.1-2.8
			c-0.3-1.9-1.6-3.5-3.4-4.3c-1-0.4-2-0.5-3-0.5h-16.8l-149.7,0.1c-1.8,0-3.4,0.8-4.5,2.2c-0.5,0.7-0.9,1.5-1.1,2.3
			c-0.1,0.9-0.2,1.8-0.1,2.6v24c0,0.8,0.1,1.7,0.5,2.4c0.7,1.5,2,2.7,3.6,3.2c0.8,0.2,1.6,0.3,2.5,0.3h37.1l67.3,0l45.4,0.1h12.3
			l-12.4,0.1l-45.4,0.1l-67.3,0.1h-37.1c-0.9,0.1-1.8,0-2.6-0.3c-1.8-0.6-3.2-1.9-3.9-3.5c-0.4-0.8-0.5-1.7-0.5-2.7v-23.7
			c0-0.9,0-1.9,0.1-2.8c0.6-2.9,3.2-5,6.2-5l149.7,0.1H383c1.1-0.1,2.1,0.1,3.1,0.5c1.9,0.8,3.2,2.5,3.6,4.5
			c0.1,0.9,0.2,1.9,0.1,2.8v23.8c0,2.9-2.1,5.5-5,6c-0.3,0-0.5,0.1-0.8,0.1L383.6,265z"/>
		<path class="st10" d="M299.5,254.5c0,0.2-12.9,0.3-28.7,0.3s-28.7-0.1-28.7-0.3s12.9-0.3,28.7-0.3S299.5,254.4,299.5,254.5z"/>
		<path class="st10" d="M368.1,245.3c0,0.1,0,0.1,0,0.1l-1.8,1.9c-0.1,0.1-0.2,0.1-0.3,0l-1.8-1.8c-0.1-0.1-0.1-0.2,0-0.3
			c0.1-0.1,0.2-0.1,0.3,0c0,0,0,0,0,0l1.6,1.7l1.7-1.7c0.1-0.1,0.2-0.1,0.3,0C368.1,245.2,368.1,245.2,368.1,245.3z"/>
		<path class="st0" d="M246.3,287.3c0,1.2-0.9,2-2.3,2h-1.5v1.8h-0.6v-5.7h2.1C245.5,285.3,246.3,286,246.3,287.3z M245.7,287.3
			c0-0.9-0.6-1.4-1.8-1.4h-1.5v2.9h1.5C245.1,288.7,245.7,288.2,245.7,287.3L245.7,287.3z"/>
		<path class="st0" d="M249.6,286.7v0.6h-0.1c-0.8,0-1.4,0.5-1.5,1.3c0,0,0,0,0,0c0,0.1,0,0.2,0,0.3v2.2h-0.6v-4.3h0.6v0.8
			C248.3,287,248.9,286.7,249.6,286.7z"/>
		<path class="st0" d="M250.2,288.9c0-1.2,1-2.2,2.2-2.2c1.2,0,2.2,1,2.2,2.2c0,1.2-1,2.2-2.2,2.2c0,0,0,0,0,0
			c-1.2,0.1-2.1-0.8-2.2-2V288.9z M254,288.9c0-0.9-0.8-1.6-1.7-1.5c0,0,0,0,0,0c-0.9,0-1.6,0.8-1.6,1.6c0,0.9,0.8,1.6,1.6,1.6
			c0.9,0,1.6-0.7,1.6-1.5c0,0,0,0,0,0C254,289,254,288.9,254,288.9L254,288.9z"/>
		<path class="st0" d="M254.2,292.4l0.2-0.4c0.2,0.2,0.4,0.2,0.7,0.2c0.4,0,0.7-0.3,0.7-0.8v-4.6h0.6v4.6c0.1,0.6-0.4,1.2-1,1.3
			c0,0,0,0,0,0h-0.3C254.8,292.7,254.4,292.6,254.2,292.4z M255.6,285.4c0-0.2,0.2-0.4,0.4-0.4c0,0,0,0,0,0l0,0
			c0.2,0,0.4,0.1,0.5,0.4c0,0.2-0.1,0.4-0.3,0.5c0,0,0,0,0,0h-0.1C255.8,285.8,255.7,285.7,255.6,285.4
			C255.6,285.4,255.6,285.4,255.6,285.4L255.6,285.4z"/>
		<path class="st0" d="M261.7,289.1h-3.6c0,0.9,0.8,1.5,1.7,1.5l0,0c0.5,0,1-0.2,1.3-0.6l0.3,0.4c-0.9,0.9-2.4,0.9-3.3-0.1
			c-0.4-0.4-0.6-0.9-0.6-1.4c-0.1-1.1,0.8-2.1,1.9-2.2c0,0,0,0,0,0h0.2c1.1,0,2.1,0.9,2.1,2v0.2L261.7,289.1z M258.1,288.6h3
			c-0.1-0.8-0.8-1.5-1.6-1.4C258.8,287.3,258.2,287.9,258.1,288.6z"/>
		<path class="st0" d="M262.5,288.9c0-1.2,0.9-2.2,2.1-2.2c0,0,0,0,0,0h0.1c0.7,0,1.3,0.3,1.7,0.8l-0.4,0.3
			c-0.3-0.4-0.7-0.7-1.3-0.6c-0.9,0.1-1.6,0.9-1.6,1.8c0.1,0.8,0.7,1.5,1.6,1.6c0.5,0,1-0.2,1.3-0.6l0.4,0.3c-0.4,0.6-1,0.9-1.7,0.9
			c-1.2,0-2.2-0.9-2.2-2L262.5,288.9z"/>
		<path class="st0" d="M269.9,290.8c-0.3,0.2-0.6,0.3-0.9,0.3c-0.6,0.1-1.2-0.4-1.3-1.1c0,0,0,0,0,0v-2.8h-0.8v-0.5h0.8v-1h0.6v1
			h1.3v0.5h-1.3v2.6c-0.1,0.4,0.2,0.7,0.6,0.8h0.2c0.2,0,0.5-0.1,0.6-0.2L269.9,290.8z"/>
		<path class="st0" d="M272.7,288.2c0-1.6,1.3-2.9,2.8-2.9c0,0,0,0,0,0h0.2c0.8,0,1.5,0.3,2.1,0.8l-0.4,0.4
			c-0.4-0.5-1.1-0.7-1.7-0.7c-1.3,0-2.4,1.1-2.4,2.4s1.1,2.4,2.4,2.4c0.6,0,1.3-0.2,1.7-0.7l0.4,0.4c-0.6,0.6-1.3,0.9-2.1,0.8
			c-1.6,0.1-2.9-1.2-3-2.8L272.7,288.2z"/>
		<path class="st0" d="M279,285h0.6v6.1H279V285z"/>
		<path class="st0" d="M281,285.4c0-0.2,0.2-0.4,0.4-0.4c0,0,0,0,0,0c0.2,0,0.4,0.1,0.5,0.3c0,0.2-0.1,0.4-0.4,0.5h-0.1
			C281.2,285.8,281,285.6,281,285.4z M281.1,286.7h0.6v4.3h-0.6V286.7z"/>
		<path class="st0" d="M287.1,289.1h-3.6c0,0.9,0.8,1.5,1.7,1.5c0,0,0,0,0,0l0,0c0.5,0,1-0.2,1.3-0.6l0.3,0.4
			c-0.9,0.9-2.4,0.9-3.3,0c-0.4-0.4-0.6-0.9-0.6-1.4c0-1.1,0.9-2.1,2-2.1h0.1c1.1,0,2,0.8,2.1,1.9c0,0,0,0.1,0,0.1L287.1,289.1
			L287.1,289.1z M283.5,288.6h3c-0.1-0.8-0.8-1.5-1.6-1.4C284.2,287.3,283.6,287.9,283.5,288.6z"/>
		<path class="st0" d="M292.3,288.6v2.5h-0.6v-2.4c0.1-0.6-0.3-1.2-0.9-1.4c-0.1,0-0.3,0-0.4,0c-0.8-0.1-1.4,0.5-1.5,1.3
			c0,0.1,0,0.2,0,0.3v2.3h-0.6v-4.3h0.6v0.8c0.4-0.6,1-0.9,1.6-0.8c0.9-0.1,1.7,0.6,1.8,1.5C292.3,288.3,292.3,288.4,292.3,288.6z"
			/>
		<path class="st0" d="M296.1,290.8c-0.3,0.2-0.6,0.3-0.9,0.3c-0.6,0-1.2-0.5-1.2-1.1c0,0,0,0,0,0c0-0.1,0-0.1,0-0.2v-2.6h-0.8v-0.5
			h0.8v-1h0.6v1h1.3v0.5h-1.3v2.6c-0.1,0.4,0.2,0.7,0.6,0.8c0,0,0,0,0,0h0.2c0.2,0,0.5-0.1,0.6-0.2L296.1,290.8z"/>
		<path class="st0" d="M302.9,290.5v0.5h-4v-0.4l2.4-2.3c0.6-0.6,0.8-1,0.8-1.4c0-0.7-0.5-1.1-1.4-1.1c-0.6,0-1.2,0.2-1.6,0.6
			l-0.4-0.4c0.5-0.6,1.2-0.9,2-0.8c1.2,0,1.9,0.6,1.9,1.5c0,0.7-0.4,1.4-0.9,1.8l-2,1.9L302.9,290.5z"/>
		<path class="st10" d="M231.4,288.6c-0.1-0.4-0.1-0.8-0.3-1.2c-0.3-1-0.9-1.9-1.8-2.6c-2.1-1.5-5-1-6.5,1.1c-1.5,2.1-1,5,1.1,6.5
			c1.6,1.2,3.8,1.2,5.4,0c0.9-0.6,1.5-1.6,1.8-2.6C231.4,289,231.4,288.6,231.4,288.6c0.1,0.5,0.1,0.9,0,1.3
			c-0.2,1.1-0.9,2.1-1.8,2.9c-2.3,1.8-5.5,1.4-7.3-0.9c-1.8-2.3-1.4-5.5,0.9-7.3c1.9-1.5,4.5-1.5,6.4,0c0.9,0.7,1.5,1.7,1.8,2.9
			C231.5,287.8,231.5,288.2,231.4,288.6z"/>
		<path class="st10" d="M383.6,308.6c0.4,0,0.7-0.1,1.1-0.1c2.8-0.6,4.9-3.1,4.9-6v-23.8c0-0.9,0-1.9-0.1-2.8
			c-0.4-1.9-1.7-3.5-3.5-4.3c-1-0.4-2-0.5-3-0.5h-16.8l-149.7,0.1c-1.8,0-3.4,0.8-4.5,2.2c-0.5,0.7-0.9,1.5-1.1,2.3
			c-0.1,0.9-0.2,1.8-0.1,2.6v24c0,0.8,0.1,1.7,0.5,2.4c0.7,1.5,2,2.7,3.6,3.2c0.8,0.2,1.6,0.3,2.5,0.3h37.1l67.3,0.1l45.4,0.1h12.3
			H367l-45.4,0.1H217.2c-0.9,0-1.8,0-2.6-0.3c-1.8-0.6-3.2-1.9-3.9-3.5c-0.4-0.8-0.5-1.8-0.5-2.7v-23.6c0-0.9,0-1.8,0.1-2.8
			c0.6-2.9,3.2-5,6.2-5l149.7,0.1H383c1.1-0.1,2.1,0.1,3.1,0.5c1.9,0.8,3.3,2.5,3.6,4.6c0.1,0.9,0.1,1.9,0.1,2.8v23.9
			c0,1.8-0.8,3.5-2.1,4.6c-0.8,0.7-1.8,1.2-2.9,1.4c-0.3,0.1-0.5,0.1-0.8,0.1L383.6,308.6z"/>
		<path class="st10" d="M299.5,298.2c0,0.2-12.9,0.3-28.7,0.3s-28.7-0.1-28.7-0.3s12.9-0.3,28.7-0.3S299.5,298,299.5,298.2z"/>
		<path class="st10" d="M368.1,288.9c0,0.1,0,0.1,0,0.1l-1.8,1.8c-0.1,0.1-0.2,0.1-0.3,0l0,0l-1.8-1.8c-0.1-0.1-0.1-0.2-0.1-0.3
			c0.1-0.1,0.2-0.1,0.3-0.1c0,0,0,0,0.1,0l0,0l1.6,1.7l1.7-1.7c0.1-0.1,0.2-0.1,0.3,0C368.1,288.8,368.1,288.9,368.1,288.9z"/>
		<path class="st0" d="M246.6,333.2c0,1-0.7,1.5-2.2,1.5h-2.6V329h2.5c1.3,0,2,0.5,2,1.5c0,0.6-0.3,1.1-0.9,1.3
			C246.2,331.9,246.7,332.5,246.6,333.2z M242.5,329.5v2.1h1.8c0.9,0,1.5-0.4,1.5-1s-0.5-1-1.5-1L242.5,329.5z M246,333.1
			c0-0.7-0.6-1.1-1.6-1.1h-2v2.1h2C245.5,334.2,246,333.9,246,333.1L246,333.1z"/>
		<path class="st0" d="M251.8,330.4v4.3h-0.6v-0.8c-0.3,0.5-0.9,0.9-1.6,0.8c-0.9,0.1-1.7-0.6-1.8-1.5c0,0,0,0,0,0
			c0-0.1,0-0.2,0-0.3v-2.5h0.6v2.4c-0.1,0.6,0.3,1.2,0.9,1.4c0.1,0,0.3,0,0.4,0c0.8,0.1,1.4-0.5,1.5-1.3c0,0,0,0,0,0
			c0-0.1,0-0.2,0-0.2v-2.3L251.8,330.4z"/>
		<path class="st0" d="M257,330.4l-2.2,4.8c-0.4,0.9-0.8,1.2-1.4,1.2c-0.4,0-0.7-0.1-1-0.4l0.3-0.4c0.2,0.2,0.5,0.3,0.8,0.3
			c0.4,0,0.6-0.2,0.9-0.7l0.2-0.4l-1.9-4.3h0.6l1.6,3.7l1.6-3.7L257,330.4z"/>
		<path class="st0" d="M264.2,331.8h0.6v2.2c-0.6,0.5-1.3,0.8-2.1,0.7c-1.6,0.2-3.1-0.9-3.3-2.5c-0.2-1.6,0.9-3.1,2.5-3.3
			c0.2,0,0.5,0,0.7,0c0.8,0,1.6,0.3,2.1,0.8l-0.4,0.4c-0.5-0.4-1.1-0.7-1.7-0.7c-1.3-0.1-2.4,0.9-2.5,2.2c-0.1,1.3,0.9,2.4,2.2,2.5
			c0.1,0,0.2,0,0.3,0c0.5,0,1.1-0.1,1.5-0.4L264.2,331.8z"/>
		<path class="st0" d="M266.2,329c0-0.2,0.2-0.4,0.4-0.4s0.4,0.2,0.4,0.4c0,0.2-0.2,0.4-0.4,0.4S266.2,329.2,266.2,329L266.2,329z
			 M266.4,330.4h0.6v4.3h-0.6V330.4z"/>
		<path class="st0" d="M269.2,329.9v0.5h1.3v0.5h-1.3v3.8h-0.6v-3.8h-0.8v-0.5h0.8v-0.5c-0.1-0.6,0.4-1.2,1-1.3h0.3
			c0.3,0,0.6,0.1,0.9,0.3l-0.2,0.4c-0.2-0.1-0.4-0.2-0.6-0.3c-0.4-0.1-0.8,0.2-0.8,0.6C269.2,329.7,269.2,329.8,269.2,329.9z"/>
		<path class="st0" d="M273.6,334.4c-0.3,0.2-0.6,0.3-0.9,0.3c-0.6,0.1-1.2-0.4-1.3-1c0-0.1,0-0.1,0-0.2v-2.6h-0.8v-0.5h0.8v-0.9
			h0.6v0.9h1.3v0.5H272v2.6c-0.1,0.4,0.2,0.7,0.6,0.8h0.2c0.2,0,0.5-0.1,0.6-0.2L273.6,334.4z"/>
		<path class="st10" d="M231.4,332.2c-0.1-0.4-0.1-0.8-0.3-1.2c-0.3-1-0.9-1.9-1.8-2.6c-2.1-1.5-5-1-6.5,1.1s-1,5,1.1,6.5
			c1.6,1.2,3.8,1.2,5.4,0c0.9-0.6,1.5-1.6,1.8-2.6C231.4,332.6,231.4,332.2,231.4,332.2c0.1,0.4,0.1,0.9,0,1.3
			c-0.2,1.1-0.9,2.2-1.8,2.9c-2.3,1.8-5.5,1.4-7.3-0.9c-1.1-1.4-1.4-3.3-0.8-4.9c0.5-1.5,1.7-2.7,3.2-3.2c1.7-0.6,3.5-0.3,4.9,0.8
			c0.9,0.7,1.5,1.7,1.8,2.9C231.5,331.4,231.5,331.8,231.4,332.2z"/>
		<path class="st10" d="M383.6,352.3c0.4,0,0.7-0.1,1.1-0.1c2.9-0.6,4.9-3.1,4.9-6v-23.8c0-0.9,0-1.9-0.1-2.8
			c-0.4-1.9-1.7-3.5-3.5-4.3c-1-0.4-2-0.5-3-0.5h-16.8l-149.7,0.1c-2.7,0-5,1.9-5.6,4.5c-0.1,0.9-0.2,1.8-0.1,2.6v24
			c0,0.8,0.1,1.7,0.5,2.4c0.7,1.5,2,2.7,3.6,3.2c0.8,0.2,1.6,0.3,2.5,0.3h37.1l67.3,0.1l45.4,0.1h12.3l-12.3,0.1l-45.4,0.1
			l-67.3,0.1h-37.1c-0.9,0.1-1.8,0-2.6-0.3c-1.7-0.6-3.2-1.8-3.9-3.5c-0.3-0.8-0.5-1.8-0.5-2.7v-23.8c0-0.9,0-1.9,0.1-2.8
			c0.6-2.9,3.2-5,6.1-5l149.7,0.1H383c1.1-0.1,2.1,0.1,3.1,0.5c1.9,0.8,3.2,2.5,3.6,4.6c0.1,0.9,0.2,1.9,0.1,2.8v23.9
			c0,1.8-0.8,3.5-2.1,4.6c-0.8,0.7-1.8,1.2-2.9,1.4c-0.3,0.1-0.5,0.1-0.8,0.1L383.6,352.3z"/>
		<path class="st10" d="M299.5,341.8c0,0.2-12.9,0.3-28.7,0.3s-28.7-0.1-28.7-0.3s12.9-0.3,28.7-0.3S299.5,341.6,299.5,341.8z"/>
		<path class="st10" d="M368.1,332.5c0,0.1,0,0.1,0,0.1l-1.8,1.8c-0.1,0.1-0.2,0.1-0.3,0l-1.8-1.8c-0.1-0.1-0.1-0.2,0-0.3
			c0.1-0.1,0.2-0.1,0.3,0l1.6,1.7l1.7-1.7c0.1-0.1,0.2-0.1,0.3,0C368.1,332.4,368.1,332.5,368.1,332.5z"/>
		<circle class="st1" cx="356.9" cy="399.3" r="24.1"/>
		<path class="st6" d="M356.9,406.1c-0.3,0-0.6-0.3-0.6-0.6V393c0-0.3,0.3-0.6,0.6-0.6c0.3,0,0.6,0.3,0.6,0.6l0,0v12.6
			C357.4,405.9,357.2,406.2,356.9,406.1z"/>
		<path class="st6" d="M363.1,399.9h-12.6c-0.3,0-0.6-0.3-0.6-0.6c0-0.3,0.3-0.6,0.6-0.6h12.6c0.3,0,0.6,0.3,0.6,0.6
			C363.7,399.6,363.5,399.9,363.1,399.9L363.1,399.9z"/>
		<polygon class="st1" points="365.3,122 365.1,124.8 367.9,124.5 374.4,118.1 371.8,115.5 		"/>
		<path class="st1" d="M372.1,115.2l2.5,2.5l0.4-0.4c0.6-0.6,0.6-1.6,0-2.3c0,0,0,0,0,0l0,0l-0.3-0.3c-0.6-0.6-1.6-0.7-2.2-0.1
			c0,0,0,0,0,0l-0.1,0.1L372.1,115.2z"/>
		<g>
			<defs>
				<path id="SVGID_1_" d="M373.7,31.2h-29.3c-4,0.1-7.2,3.4-7.1,7.4V44c0.1,4-3.1,7.3-7.1,7.4c0,0,0,0,0,0h-57.1
					c-4-0.1-7.2-3.4-7.1-7.4v-5.4c0.1-4-3.1-7.3-7.1-7.4h-35.9c-12.7,0-23,10.3-23,23l0,0L200,423.5c0,12.7,10.3,23,23,23l150.6,0.1
					c12.7,0,23-10.3,23-23l0,0l0.1-369.4C396.7,41.5,386.4,31.2,373.7,31.2L373.7,31.2z"/>
			</defs>
			<clipPath id="SVGID_2_">
				<use xlink:href="#SVGID_1_"  style="overflow:visible;"/>
			</clipPath>
			<g style="clip-path:url(#SVGID_2_);">
				
					<image style="overflow:visible;" width="360" height="640" xlink:href="Frame 4.png"  transform="matrix(0.5711 0 0 0.6528 195.5463 32.1869)">
				</image>
			</g>
		</g>
	</g>
</g>
</svg>
