<svg id="Layer_1" data-name="Layer 1" xmlns="http://www.w3.org/2000/svg" xmlns:xlink="http://www.w3.org/1999/xlink" viewBox="0 0 506.44002 520.38178"><defs><style>.cls-1{fill:none;}.cls-2{fill:#263238;}.cls-3{fill:#3f3f3f;}.cls-4{fill:#fafafa;}.cls-5{fill:#455a64;}.cls-6{opacity:0.4;}.cls-7{opacity:0.6;}.cls-8{fill:#fff;}.cls-9{fill:#eb996e;}.cls-10{fill:#ffbe9d;}.cls-11{opacity:0.3;}.cls-12{fill:#e0e0e0;}.cls-13{clip-path:url(#clip-path);}</style><clipPath id="clip-path" transform="translate(-15.33 -13.97745)"><path class="cls-1" d="M373.68628,31.245h-29.26a7.28,7.28,0,0,0-7.11,7.43v5.31a7.26,7.26,0,0,1-7.09646,7.41993l-.00354.00007h-57.06a7.27,7.27,0,0,1-7.1-7.42v-5.38a7.28,7.28,0,0,0-7.1-7.43h-35.9a23,23,0,0,0-23,23h0l-.07,369.37a23,23,0,0,0,23,23l150.65.08a23,23,0,0,0,23-23h0l.07-369.38a23,23,0,0,0-23-23Z"/></clipPath></defs><title>Mobile</title><g id="freepik--Floor--inject-36"><path class="cls-2" d="M521.77,511.79c0,.16-113.37.3-253.21.3s-253.23-.14-253.23-.3,113.35-.31,253.23-.31S521.77,511.62,521.77,511.79Z" transform="translate(-15.33 -13.97745)"/></g><g id="freepik--Plant--inject-36"><polygon class="cls-3" points="417.28 445.173 425.21 497.373 471.37 497.373 482.08 445.923 417.28 445.173"/><path class="cls-4" d="M491,492.6c0,.15-11.83.27-26.42.27s-26.4-.12-26.4-.27,11.82-.27,26.4-.27S491,492.44,491,492.6Z" transform="translate(-15.33 -13.97745)"/><path class="cls-4" d="M491.13,490c0,.15-11.89.27-26.59.27S438,490.18,438,490s11.9-.27,26.58-.27S491.13,489.85,491.13,490Z" transform="translate(-15.33 -13.97745)"/><path class="cls-4" d="M491.05,487.13c0,.15-11.91.28-26.59.28s-26.6-.13-26.6-.28,11.91-.27,26.6-.27S491.05,487,491.05,487.13Z" transform="translate(-15.33 -13.97745)"/><path class="cls-4" d="M445.85,508.41a43.32884,43.32884,0,0,1-1.42-6.56,44.10022,44.10022,0,0,1-.88-6.68,83.77974,83.77974,0,0,1,2.32,13.24Z" transform="translate(-15.33 -13.97745)"/><path class="cls-4" d="M449,507.81a50.22855,50.22855,0,0,1-.55-6.36,47.79823,47.79823,0,0,1-.29-6.44,32.0597,32.0597,0,0,1,.83,6.39A31.20959,31.20959,0,0,1,449,507.81Z" transform="translate(-15.33 -13.97745)"/><path class="cls-4" d="M454.71,507.81a32.001,32.001,0,0,1-1.16-6.58,32.38,32.38,0,0,1-.34-6.67Q454.23946,501.15036,454.71,507.81Z" transform="translate(-15.33 -13.97745)"/><path class="cls-4" d="M458.73,508.09a31.93951,31.93951,0,0,1-.64-6.69,33.35931,33.35931,0,0,1,.2-6.7,55.42163,55.42163,0,0,1,.34,6.69A57.62422,57.62422,0,0,1,458.73,508.09Z" transform="translate(-15.33 -13.97745)"/><path class="cls-4" d="M465.84,507.81a76.24748,76.24748,0,0,1-.43-12.7,38.4603,38.4603,0,0,1,.43,6.34A37.523,37.523,0,0,1,465.84,507.81Z" transform="translate(-15.33 -13.97745)"/><path class="cls-4" d="M471,508.09a78.74832,78.74832,0,0,1,.11-13.12A79.82955,79.82955,0,0,1,471,508.09Z" transform="translate(-15.33 -13.97745)"/><path class="cls-4" d="M475.91,507.39a86.91768,86.91768,0,0,1,1.32-13.66A89.37123,89.37123,0,0,1,475.91,507.39Z" transform="translate(-15.33 -13.97745)"/><path class="cls-4" d="M482.18,506.71a36.10023,36.10023,0,0,1,2.5-11.46,56.08336,56.08336,0,0,1-1.16,5.74A51.00084,51.00084,0,0,1,482.18,506.71Z" transform="translate(-15.33 -13.97745)"/><path class="cls-5" d="M477.74,356.14a1.00022,1.00022,0,0,1-.06.25l-.22.75-.87,2.81c-.37,1.18-.87,2.71-1.36,4.46s-1.16,3.73-1.66,6-1.23,4.64-1.8,7.26-1.16,5.45-1.78,8.42c-1.11,5.94-2.12,12.53-2.82,19.47s-1,13.61-1.08,19.66c0,3,0,5.91.08,8.6s.18,5.2.32,7.47.32,4.36.46,6.17.3,3.37.45,4.64.22,2.21.3,2.93v.77a1.12938,1.12938,0,0,1,0,.26.879.879,0,0,0-.06-.26c-.06-.17-.07-.45-.13-.75-.09-.71-.23-1.7-.39-2.93s-.38-2.83-.55-4.64-.4-3.88-.53-6.16-.32-4.81-.39-7.5-.12-5.58-.13-8.61c.06-6.07.36-12.77,1-19.73s1.74-13.57,2.88-19.52c.61-3,1.16-5.8,1.83-8.42s1.26-5.06,1.87-7.27,1.22-4.19,1.74-5.93,1-3.24,1.45-4.45.73-2.11,1-2.78l.25-.73A1.21049,1.21049,0,0,1,477.74,356.14Z" transform="translate(-15.33 -13.97745)"/><path class="cls-5" d="M469.41,388.46a17.12,17.12,0,0,1,7.17-9.06,4.11,4.11,0,0,1,3.79-.7c1.62.78,1.74,3,1.27,4.77a12.6499,12.6499,0,0,1-5.22,7.11,10.69,10.69,0,0,1-7.85,2" transform="translate(-15.33 -13.97745)"/><path class="cls-5" d="M466.61,410.29c1.16-4.5,4.78-10.91,8.52-13.71a5.41008,5.41008,0,0,1,1.92-1,2.36,2.36,0,0,1,2.08.45,3.2,3.2,0,0,1,.47,3,18.19,18.19,0,0,1-13.47,13.55" transform="translate(-15.33 -13.97745)"/><path class="cls-5" d="M465.84,429.5a26.49009,26.49009,0,0,1,8.59-10.81,4.12,4.12,0,0,1,3-1.07c1.62.29,2.32,2.33,2.23,3.94-.31,3.4-2.91,6.13-5.57,8.24a34.74973,34.74973,0,0,1-8,4.08" transform="translate(-15.33 -13.97745)"/><path class="cls-5" d="M466.26,443.31a25.51027,25.51027,0,0,1,7.31-8.32,5.41985,5.41985,0,0,1,2.2-1,2.25,2.25,0,0,1,2.15.82c.74,1.08,0,2.53-.75,3.58a20.88985,20.88985,0,0,1-10.44,7.65" transform="translate(-15.33 -13.97745)"/><path class="cls-5" d="M465.9,437.7a80.81869,80.81869,0,0,0-10.44-10.65,2.45364,2.45364,0,0,0-2.08-.79,1.55,1.55,0,0,0-1,1.4,3.99991,3.99991,0,0,0,.39,1.76,20.29,20.29,0,0,0,13.46,11.32" transform="translate(-15.33 -13.97745)"/><path class="cls-5" d="M466.24,419.73l-8.22-10a9.75032,9.75032,0,0,0-2.67-2.53,3.39,3.39,0,0,0-3.48,0,3.34,3.34,0,0,0-1.16,3.31,8.65022,8.65022,0,0,0,1.6,3.28,24.62,24.62,0,0,0,6,6.36c2.41,1.66,4.64,2.74,7.51,2.32" transform="translate(-15.33 -13.97745)"/><path class="cls-5" d="M467.38,399.5a28.78044,28.78044,0,0,0-8.27-12.42,4.80973,4.80973,0,0,0-2.16-1.25,3.62,3.62,0,0,0-3.76,2.64,6.75,6.75,0,0,0,.75,5.44A14.29993,14.29993,0,0,0,457.8,398a33.5197,33.5197,0,0,0,9.13,4.94" transform="translate(-15.33 -13.97745)"/><path class="cls-5" d="M470.66,381.45c-.79-5.8-3.82-10.64-7.32-15.33-.73-1-1.77-2-3-1.86a2.3,2.3,0,0,0-1.71,1.48,5.55025,5.55025,0,0,0-.33,2.32,17.93,17.93,0,0,0,11.61,16" transform="translate(-15.33 -13.97745)"/><path class="cls-5" d="M473,372.24a48.12969,48.12969,0,0,1-.3-9,16.06,16.06,0,0,1,3-8.36,6.88,6.88,0,0,1,3-2.38,3.76,3.76,0,0,1,3.66.49,4.00006,4.00006,0,0,1,1.25,3.22,10.1905,10.1905,0,0,1-.92,3.48c-2.19,5.27-5.8,11.1-9.65,12.57" transform="translate(-15.33 -13.97745)"/><path class="cls-2" d="M437.18,379.15a4.69734,4.69734,0,0,1,0,.75v5.43a43.773,43.773,0,0,0,.16,4.41c.14,3.27.45,7.15,1,11.44s1.27,9,2.32,13.86,2.25,9.47,3.49,13.61,2.53,7.81,3.71,10.86c.56,1.53,1.16,2.89,1.62,4.1s.93,2.24,1.3,3.07l.83,1.94c.09.23.18.45.25.69a3.63031,3.63031,0,0,1-.36-.64l-.91-1.9c-.4-.83-.87-1.84-1.38-3s-1.17-2.55-1.7-4.08c-1.23-3-2.54-6.72-3.85-10.85s-2.5-8.75-3.54-13.65-1.73-9.61-2.24-13.92-.74-8.21-.84-11.48c-.08-1.64-.07-3.12-.08-4.42s0-2.43,0-3.35.06-1.56.08-2.11A3.64048,3.64048,0,0,1,437.18,379.15Z" transform="translate(-15.33 -13.97745)"/><path class="cls-2" d="M438.47,403a12.2,12.2,0,0,1,2.92-7.72,2.94,2.94,0,0,1,2.44-1.29c1.26.19,1.84,1.69,1.88,3a9.00005,9.00005,0,0,1-2,6,7.66013,7.66013,0,0,1-4.91,3" transform="translate(-15.33 -13.97745)"/><path class="cls-2" d="M441.25,418.41c-.16-3.32.91-8.44,2.86-11.15a3.89,3.89,0,0,1,1.09-1.16,1.65,1.65,0,0,1,1.51-.14,2.32,2.32,0,0,1,1,1.94,13,13,0,0,1-6.2,12.16" transform="translate(-15.33 -13.97745)"/><path class="cls-2" d="M444.86,431.67a18.76007,18.76007,0,0,1,3.48-9.21,3,3,0,0,1,1.81-1.38c1.16-.15,2.1,1.05,2.32,2.21.54,2.38-.65,4.79-2,6.8a24.00022,24.00022,0,0,1-4.52,4.49" transform="translate(-15.33 -13.97745)"/><path class="cls-2" d="M448.13,441a18.26019,18.26019,0,0,1,3.18-7.24,3.87,3.87,0,0,1,1.29-1.16,1.57,1.57,0,0,1,1.64.1c.73.56.57,1.71.25,2.58a14.90992,14.90992,0,0,1-5.45,7.47" transform="translate(-15.33 -13.97745)"/><path class="cls-2" d="M446.67,437.24a56.9202,56.9202,0,0,0-9.41-5,1.67,1.67,0,0,0-1.59-.1,1.15,1.15,0,0,0-.35,1.16,2.72979,2.72979,0,0,0,.65,1.16,14.46,14.46,0,0,0,11.61,4.82" transform="translate(-15.33 -13.97745)"/><path class="cls-2" d="M443,424.92l-7.74-5a7.12055,7.12055,0,0,0-2.32-1.16,2.4,2.4,0,0,0-2.41.73,2.32,2.32,0,0,0,0,2.48,6.27,6.27,0,0,0,1.8,1.9,17.16047,17.16047,0,0,0,5.44,3,7.19,7.19,0,0,0,5.61,0" transform="translate(-15.33 -13.97745)"/><path class="cls-2" d="M439.45,410.93a20.37,20.37,0,0,0-8.29-6.67,3.3399,3.3399,0,0,0-1.75-.4,2.6,2.6,0,0,0-2,2.61A4.88,4.88,0,0,0,429.1,410a10.21009,10.21009,0,0,0,3.48,1.94,23.19975,23.19975,0,0,0,7.28,1.39" transform="translate(-15.33 -13.97745)"/><path class="cls-2" d="M437.8,397.91c-1.78-3.77-4.88-6.42-8.28-8.86a2.47994,2.47994,0,0,0-2.43-.62,1.71,1.71,0,0,0-.86,1.36,4.24022,4.24022,0,0,0,.28,1.66,12.78,12.78,0,0,0,11.38,8.41" transform="translate(-15.33 -13.97745)"/><path class="cls-2" d="M437.39,391.2a33.21029,33.21029,0,0,1-2.14-6.05,11.50991,11.50991,0,0,1,.23-6.32,4.84,4.84,0,0,1,1.52-2.32,2.68,2.68,0,0,1,2.59-.47,2.9099,2.9099,0,0,1,1.56,1.93,7.47,7.47,0,0,1,.1,2.54c-.36,4.06-1.59,8.81-3.86,10.63" transform="translate(-15.33 -13.97745)"/><path class="cls-5" d="M495.52,378.65a3.001,3.001,0,0,1,.07.73c0,.54,0,1.24.08,2.11a26.34292,26.34292,0,0,1,0,3.34c-.06,1.3,0,2.78-.08,4.42-.09,3.27-.37,7.17-.84,11.48s-1.23,9-2.24,13.92-2.32,9.51-3.54,13.65-2.62,7.81-3.85,10.85c-.58,1.53-1.16,2.89-1.69,4.09s-1,2.21-1.39,3l-.91,1.89a3.71856,3.71856,0,0,1-.36.65,5.82942,5.82942,0,0,1,.25-.7l.83-1.93c.37-.84.82-1.86,1.3-3.07s1.07-2.56,1.62-4.11c1.16-3,2.45-6.73,3.72-10.85s2.46-8.74,3.48-13.61,1.74-9.59,2.32-13.87.81-8.12.95-11.43c.12-1.64.12-3.11.16-4.41s0-2.43,0-3.33V379.4A4.87951,4.87951,0,0,1,495.52,378.65Z" transform="translate(-15.33 -13.97745)"/><path class="cls-5" d="M494.23,402.44a12.22007,12.22007,0,0,0-2.92-7.7,3,3,0,0,0-2.44-1.3c-1.27.18-1.85,1.7-1.88,3a8.89,8.89,0,0,0,2,6,7.58,7.58,0,0,0,4.91,3" transform="translate(-15.33 -13.97745)"/><path class="cls-5" d="M491.45,417.89c.16-3.33-.91-8.46-2.86-11.16a3.66036,3.66036,0,0,0-1.09-1.16,1.59,1.59,0,0,0-1.51-.14,2.28,2.28,0,0,0-1,1.92,13,13,0,0,0,6.25,12.13" transform="translate(-15.33 -13.97745)"/><path class="cls-5" d="M487.89,431.16a18.66,18.66,0,0,0-3.48-9.21,2.89,2.89,0,0,0-1.81-1.37c-1.16-.15-2.1,1.05-2.32,2.2-.53,2.38.65,4.79,2,6.81a25.11882,25.11882,0,0,0,4.43,4.55" transform="translate(-15.33 -13.97745)"/><path class="cls-5" d="M484.56,440.48a17.9998,17.9998,0,0,0-3.18-7.25,3.74968,3.74968,0,0,0-1.28-1.16,1.59,1.59,0,0,0-1.64.1c-.73.58-.57,1.71-.26,2.6a14.81994,14.81994,0,0,0,5.46,7.45" transform="translate(-15.33 -13.97745)"/><path class="cls-5" d="M486,436.73a57.27076,57.27076,0,0,1,9.41-5,1.69,1.69,0,0,1,1.59-.09,1.17006,1.17006,0,0,1,.35,1.16,3.1002,3.1002,0,0,1-.65,1.11,14.53,14.53,0,0,1-11.61,4.81" transform="translate(-15.33 -13.97745)"/><path class="cls-5" d="M489.67,424.41l7.74-5a7.3504,7.3504,0,0,1,2.32-1.17,2.45,2.45,0,0,1,2.4.74,2.29,2.29,0,0,1,0,2.49,6,6,0,0,1-1.8,1.89,17.00008,17.00008,0,0,1-5.44,3,7.15994,7.15994,0,0,1-5.6,0" transform="translate(-15.33 -13.97745)"/><path class="cls-5" d="M493.24,410.39a20.45992,20.45992,0,0,1,8.3-6.66,3.41988,3.41988,0,0,1,1.74-.39,2.6,2.6,0,0,1,2,2.61,4.88,4.88,0,0,1-1.68,3.54,10.44979,10.44979,0,0,1-3.49,1.95,23.71924,23.71924,0,0,1-7.27,1.39" transform="translate(-15.33 -13.97745)"/><path class="cls-5" d="M494.86,397.41c1.78-3.79,4.88-6.42,8.28-8.87a2.50826,2.50826,0,0,1,2.43-.61,1.69,1.69,0,0,1,.86,1.37,3.9999,3.9999,0,0,1-.28,1.64,12.77,12.77,0,0,1-11.29,8.38" transform="translate(-15.33 -13.97745)"/><path class="cls-5" d="M495.31,390.64a35.00251,35.00251,0,0,0,2.14-6,11.58,11.58,0,0,0-.24-6.34,4.88969,4.88969,0,0,0-1.52-2.32,2.68993,2.68993,0,0,0-2.59-.45,2.86,2.86,0,0,0-1.55,1.92,7.18009,7.18009,0,0,0-.1,2.53c.35,4.06,1.59,8.82,3.86,10.64" transform="translate(-15.33 -13.97745)"/><path class="cls-3" d="M427.31,448.81v9.77a3.84,3.84,0,0,0,3.84,3.84H498a3.85,3.85,0,0,0,3.85-3.84v-9.77Z" transform="translate(-15.33 -13.97745)"/><g class="cls-6"><polygon points="417.78 448.443 418.33 451.553 479.99 455.943 481.56 448.443 417.78 448.443"/></g></g><g id="freepik--Character--inject-36"><path class="cls-2" d="M174.88,117.93c-3.48-5.45-.91-14.85-2.79-21s-1.63-10-5.65-15A31.32,31.32,0,0,0,151,72.35a29.6,29.6,0,0,0-23.85,5.33c-3.48,2.52-7,5.35-9.1,9.1-2.63,4.56-3,9.71-2.91,15.08l-.34-.34a15.15,15.15,0,0,0-8.8-2.87,7.74,7.74,0,0,0-4.26,1,4.05,4.05,0,0,0-2,3.71c.3,2.33,2.87,3.49,5.06,4.28a5.6,5.6,0,0,0,4,10.44c3.12-.87,4.78-4.08,6.74-6.81a35.77975,35.77975,0,0,1-1.5,13.21c-1.76,5-5.39,9.57-5,14.82.19,2.32,1.16,4.71.76,7-.72,3.61-4.65,5.63-6.43,8.82-2.45,4.22-.77,9.91,2.7,13.35s8.31,5.09,13,6.32c11.2,2.93,24,3.85,33.58-2.56l27-27.53C180.84,137.83,181,127.61,174.88,117.93Z" transform="translate(-15.33 -13.97745)"/><path class="cls-3" d="M166.81,496v1.33S189.66,505.72,190,510l-44.87,1.07.26-14.95A25.71005,25.71005,0,0,0,166.81,496Z" transform="translate(-15.33 -13.97745)"/><g class="cls-7"><path class="cls-8" d="M150.11,500.79a1.81,1.81,0,0,0-1.16,2.12,1.75,1.75,0,0,0,2.09,1.22,1.94,1.94,0,0,0,1.27-2.25,1.82,1.82,0,0,0-2.32-1" transform="translate(-15.33 -13.97745)"/></g><g class="cls-7"><path class="cls-8" d="M145.2,511.07v-3.6l42.94.29s2,.83,1.82,2.24Z" transform="translate(-15.33 -13.97745)"/></g><path class="cls-2" d="M167,497.42c0,.22-1.09.35-2.14,1.07s-1.62,1.67-1.82,1.59.09-1.36,1.39-2.22S167.05,497.21,167,497.42Z" transform="translate(-15.33 -13.97745)"/><path class="cls-2" d="M171.76,499.26c.06.21-.88.6-1.61,1.55s-.91,1.93-1.16,1.92-.4-1.23.53-2.39S171.75,499.05,171.76,499.26Z" transform="translate(-15.33 -13.97745)"/><path class="cls-2" d="M174.55,504.83c-.2,0-.54-1,0-2.25s1.55-1.72,1.65-1.54-.53.84-1,1.84S174.78,504.8,174.55,504.83Z" transform="translate(-15.33 -13.97745)"/><path class="cls-2" d="M117.82,261.42l74.59,16.94L191,287.81,169.66,456.19l-14.75-.34-1.52,12.43-23.37.35s-3.48-42-4.4-57-1.41-40.75-4.21-56.67S99.76,291.69,117.82,261.42Z" transform="translate(-15.33 -13.97745)"/><path class="cls-9" d="M168.33,460.15c-.18,1.32-3.48,38.36-3.48,38.36H147.91l-3-38.21Z" transform="translate(-15.33 -13.97745)"/><path class="cls-10" d="M153.39,467.23c-.16,1.32-3.48,38.36-3.48,38.36H133l-3-38.21Z" transform="translate(-15.33 -13.97745)"/><polygon class="cls-5" points="156.95 435.303 154.76 447.263 138.34 447.063 138.7 435.503 156.95 435.303"/><path class="cls-5" d="M162.3,291.17a1.5498,1.5498,0,0,1,0,.43v1.27c0,1.16-.09,2.78-.16,4.86-.17,4.27-.42,10.37-.73,17.91-.67,15.14-1.6,36-2.62,59.06s-2.09,43.92-2.81,59.07c-.38,7.52-.7,13.62-.92,17.89-.11,2.08-.21,3.72-.28,4.87l-.09,1.26a3.09158,3.09158,0,0,1,0,.43,3.23042,3.23042,0,0,1,0-.44v-1.27c0-1.16.09-2.77.16-4.86.18-4.27.42-10.37.73-17.91.68-15.14,1.61-36,2.63-59.06s2.09-43.91,2.81-59.06c.38-7.52.69-13.63.91-17.89.12-2.08.21-3.71.28-4.86,0-.54.07-1,.09-1.27A3.507,3.507,0,0,1,162.3,291.17Z" transform="translate(-15.33 -13.97745)"/><polygon class="cls-5" points="141.25 446.173 139.06 458.123 113.32 458.123 111.5 446.563 141.25 446.173"/><path class="cls-3" d="M132.94,500.07s11.92,8.46,17.69,1.16l1.51,3.55,6.78,25.28a3.39,3.39,0,0,1-1.91,4.05,3.28008,3.28008,0,0,1-3.48-.66c-4.9-4.65-22.85-21.9-22.68-24.25l.07-6.19a3.2,3.2,0,0,1,2-2.92Z" transform="translate(-15.33 -13.97745)"/><g class="cls-7"><path class="cls-8" d="M156.42,534.26,130.89,507v1.39a3.8,3.8,0,0,0,1.16,3c2.08,2.78,7.8,9,21.38,22.05a3.21,3.21,0,0,0,3,.83Z" transform="translate(-15.33 -13.97745)"/></g><g class="cls-7"><path class="cls-8" d="M134.6,503a2,2,0,0,1,.56,2.59,1.92,1.92,0,0,1-2.57.58,2.09,2.09,0,0,1-.56-2.75,2,2,0,0,1,2.72-.3" transform="translate(-15.33 -13.97745)"/></g><path class="cls-2" d="M149,520.31c.18.09.89-1.59,2.79-2.5a10.3005,10.3005,0,0,1,3.68-.72c0-.08-.37-.32-1.16-.42a5.24,5.24,0,0,0-5,2.48A3.00008,3.00008,0,0,0,149,520.31Z" transform="translate(-15.33 -13.97745)"/><path class="cls-2" d="M151.34,524.59a22.48452,22.48452,0,0,1,2.83-1.39,27.18224,27.18224,0,0,1,3.12-.42c.09-.16-1.45-.83-3.33-.25S151.19,524.5,151.34,524.59Z" transform="translate(-15.33 -13.97745)"/><path class="cls-2" d="M144.79,514.84c.15.15,1.72-1.47,4.21-2.43a29.92018,29.92018,0,0,1,4.75-1.16c0-.18-2.32-.62-5,.46S144.63,514.75,144.79,514.84Z" transform="translate(-15.33 -13.97745)"/><path class="cls-2" d="M144.22,507.15c.08.18,1.85-.56,4.15-.65s4.13.45,4.2.25-1.76-1.09-4.23-1S144.12,507,144.22,507.15Z" transform="translate(-15.33 -13.97745)"/><path class="cls-2" d="M149.68,506.43a2.54971,2.54971,0,0,0-.18-1.16,8.39022,8.39022,0,0,0-1.53-2.95,3.83009,3.83009,0,0,0-1.89-1.45,1.37,1.37,0,0,0-1.42.56,2.23009,2.23009,0,0,0-.23,1.52,4.64,4.64,0,0,0,4.78,3.48,5.4,5.4,0,0,0,4.65-3.74,1.89,1.89,0,0,0-.2-1.54,1.32,1.32,0,0,0-1.46-.43,4.4999,4.4999,0,0,0-1.87,1.47,9.35039,9.35039,0,0,0-1.69,2.85,2.44,2.44,0,0,0-.27,1.16,14.16992,14.16992,0,0,1,2.32-3.69,4.13017,4.13017,0,0,1,1.66-1.23.69.69,0,0,1,.8.22,1.33,1.33,0,0,1,.07,1,4.8,4.8,0,0,1-4.09,3.19,4,4,0,0,1-4.11-2.88,1.65,1.65,0,0,1,.12-1.07.73.73,0,0,1,.78-.32,3.43,3.43,0,0,1,1.62,1.16A12.23992,12.23992,0,0,1,149.68,506.43Z" transform="translate(-15.33 -13.97745)"/><path class="cls-10" d="M270.65,158.41s6.26-8.94,7.62-9.69,12.87-3,13.75-2.6,13.7,4.75,12,6.08-10.69-1.8-10.69-1.8l-1.32.42s7.74,2.5,9.28,3.73.57,2.94-.85,2.56-8.13-2.8-8.58-2.58,7.22,3,8,3.68c1,.86.85,2.91-.59,2.59-.85-.2-8-3.3-8-3.3a65.342,65.342,0,0,1,6,3.82c.75,1-.15,2.16-1.39,1.68-.85-.33-4.73-3-5.86-3.48,0,0-1.17.12-2.5,2.19s-7.89,6.37-7.89,6.37l-4.42,2.62-7.43-10.29Z" transform="translate(-15.33 -13.97745)"/><path class="cls-10" d="M273.65,159a2.66,2.66,0,0,0,3.06.48c1-.42,1.88-1.16,2.88-1.67,3-1.47,6.76-.42,9.67-2,.4-.24.83-.63.69-1.08s-.62-.54-1.05-.58L278,152.71" transform="translate(-15.33 -13.97745)"/><path class="cls-9" d="M278,152.71a3.7609,3.7609,0,0,1,1.16,0l3.23.33,4.78.56,1.37.18a2.07,2.07,0,0,1,1.54.58.89006.89006,0,0,1,0,1,2.00009,2.00009,0,0,1-.65.63,8.93864,8.93864,0,0,1-1.5.62,41.60051,41.60051,0,0,1-5.88.72,8.51937,8.51937,0,0,0-2.38.67,15.08811,15.08811,0,0,0-1.92,1.17,3.92,3.92,0,0,1-3.22.6c-.78-.29-1-.77-.94-.76a3.12988,3.12988,0,0,0,1,.52,3.74993,3.74993,0,0,0,2.92-.75,20.83217,20.83217,0,0,1,1.92-1.16,8.60025,8.60025,0,0,1,2.53-.76,49.49076,49.49076,0,0,0,5.8-.76,6.74986,6.74986,0,0,0,1.36-.57c.39-.22.62-.58.45-.75a2.2601,2.2601,0,0,0-1.16-.35l-1.38-.2-4.76-.69c-1.35-.2-2.45-.39-3.2-.53A4.4998,4.4998,0,0,1,278,152.71Z" transform="translate(-15.33 -13.97745)"/><path class="cls-9" d="M303.94,152.23a6.46,6.46,0,0,1-2.51.29,14.73191,14.73191,0,0,1-2.73-.31c-1-.27-2.06-.6-3.2-.94l-2.4-.74h.15a38.74,38.74,0,0,1-6,.89,36.15074,36.15074,0,0,1,5.81-1.49h.15l2.39.71,3.15,1a17.99854,17.99854,0,0,0,2.63.44C303,152.21,303.92,152.13,303.94,152.23Z" transform="translate(-15.33 -13.97745)"/><path class="cls-3" d="M175.36,142.36s14-.76,21.06,2.7,38.08,24.8,38.08,24.8l31.8-11.78,11.26,15.26L250,193.42a23.38,23.38,0,0,1-22.35,2.12L192,181.37Z" transform="translate(-15.33 -13.97745)"/><path class="cls-2" d="M236.33,184.84a7.00033,7.00033,0,0,1-1.06-2,21.13967,21.13967,0,0,1-1.34-5.37,20.4101,20.4101,0,0,1,.15-5.52,7.40068,7.40068,0,0,1,.61-2.22,39.4395,39.4395,0,0,0-.21,7.68A39.59951,39.59951,0,0,0,236.33,184.84Z" transform="translate(-15.33 -13.97745)"/><g class="cls-11"><path d="M234.4,170.07c-1.31,1.16-1.59,3.05-1.7,4.79a46.18966,46.18966,0,0,0,.2,7.8,10.10023,10.10023,0,0,0,1.1,4.1,2,2,0,0,0,1.16,1c.91.21,1.72-.77,1.74-1.71a5.9101,5.9101,0,0,0-.84-2.61,19.29,19.29,0,0,1-1.62-12.61" transform="translate(-15.33 -13.97745)"/></g><path class="cls-3" d="M126,147.91c-.69.24-8.22,5.13-14.15,9a10.22,10.22,0,0,0-3.71,12.7l14.71,33.08,5.15,20-16.7,43.89,1.16,4.87,80,6.84,3.9-9.19-4.64-41.78V174.93l-12.77-32.69-22,.28Z" transform="translate(-15.33 -13.97745)"/><g class="cls-11"><path d="M188.57,144.7a2.51,2.51,0,0,1,2.32,1.47,7.39963,7.39963,0,0,1,.59,2.89c.94,14.21.39,31.57.17,46.16l1,45c-4.27-8-4.64-17.41-5-26.36q-.44-12.18-.9-24.38c-.5-13.46.16-26.92-.33-40.38C186.36,147.32,186.77,144.92,188.57,144.7Z" transform="translate(-15.33 -13.97745)"/></g><g class="cls-11"><path d="M118.57,247c.43-1.41,1.55-4.05,1.55-4.05,4-6.6,7.11-17.51,6.62-25.23,0,0-1.89-8-3.93-15.45l-2.15-4.88.14.07c3.61,1.66,5.81,6.6,6.32,10.54s1,8.43,4,11.14c2,1.78,4.71,2.46,6.84,4a9.84,9.84,0,0,1,4,8c0,1.3-.27,2.82.67,3.74,1.17,1.09,2.92.52,4.37,0s3.41-.84,4.21.48a2.6,2.6,0,0,1-.85,3.15,21.10121,21.10121,0,0,1-3.06,1.76c-2.52,1.52-4,4.31-6.08,6.34-4.21,4.06-10.54,4.77-16.36,5.26-1.72.15-3.67.21-4.89-1A4.17,4.17,0,0,1,118.57,247Z" transform="translate(-15.33 -13.97745)"/></g><path class="cls-5" d="M111.88,278.74c0-.1,1.43.32,3.71.69a32.51,32.51,0,0,0,17.75-2.15c2.13-.89,3.39-1.62,3.48-1.53s-.27.24-.83.6a18.99948,18.99948,0,0,1-2.43,1.32,29.19987,29.19987,0,0,1-18,2.15,18.91166,18.91166,0,0,1-2.68-.72A3.51972,3.51972,0,0,1,111.88,278.74Z" transform="translate(-15.33 -13.97745)"/><path class="cls-10" d="M162.94,235.32l-.42-.64s2.44,3.34,1.46,6a3.16971,3.16971,0,0,1-.65,1.07A4.34,4.34,0,0,1,159,246.1h0a4.26005,4.26005,0,0,1-2.1-.53,1.8,1.8,0,0,1-1.16-1.73,2.33982,2.33982,0,0,1,.59-1,3.749,3.749,0,0,0,.36-.5l-3-.58s-7.23-.44-9.18-4.3c-.31-.62-15.81.6-15.81.6l1.16-17.49,25.95,3.48s18.37,2.13,20.16,2.11a1.79,1.79,0,0,1,2,2.14c-.07,1.16-1,1.65-2.74,1.72-.6,0-11.61.38-11.61.38h0c.93,1.37,2.12,3.58.67,4.38Z" transform="translate(-15.33 -13.97745)"/><path class="cls-9" d="M157.67,237.38c0-.08.5-.09,1.31,0a6.66987,6.66987,0,0,1,3,1,3.58,3.58,0,0,1,1.68,2.76c0,.87-.34,1.33-.4,1.29s.09-.51,0-1.24a3.48989,3.48989,0,0,0-1.58-2.32,8.40979,8.40979,0,0,0-2.77-1.1C158.14,237.6,157.65,237.46,157.67,237.38Z" transform="translate(-15.33 -13.97745)"/><path class="cls-9" d="M157.89,231.91a2.67994,2.67994,0,0,1,1.5.23,7.31,7.31,0,0,1,4.81,5.24c.22.93.16,1.52.09,1.52a9.47,9.47,0,0,0-6.4-7Z" transform="translate(-15.33 -13.97745)"/><path class="cls-9" d="M160,229.14c0-.16,1.05-.23,2.22.23s1.92,1.16,1.81,1.33-.94-.35-2-.77S160,229.3,160,229.14Z" transform="translate(-15.33 -13.97745)"/><path class="cls-9" d="M159.82,243.31c-.14.08-.59-.45-1.36-.7s-1.45-.09-1.52-.25.7-.65,1.71-.31S160,243.26,159.82,243.31Z" transform="translate(-15.33 -13.97745)"/><path class="cls-3" d="M121.05,196.83l-7.43,19.64,27.68,4.2-1.37,23.45-38-1.61c-9.52-.39-17.55-7.83-18-17.41v-1.25c.15-7,12.33-38.58,17.91-54.91a22.66,22.66,0,0,1,9.65-11.81h0Z" transform="translate(-15.33 -13.97745)"/><path class="cls-2" d="M139.93,244.12a10.58008,10.58008,0,0,1,0-1.78c.06-1.25.11-2.9.21-4.94.22-4.28.52-10.1.87-16.74l.25.31-5.8-.83c-8-1.17-15.26-2.26-20.51-3.07l-6.19-1-1.69-.3a2.00071,2.00071,0,0,1-.58-.15,3,3,0,0,1,.6,0l1.7.19,6.22.8c5.27.71,12.52,1.73,20.53,2.9l5.8.83h.27v.27c-.43,6.63-.81,12.45-1.08,16.74-.16,2-.29,3.68-.38,4.92A9.63972,9.63972,0,0,1,139.93,244.12Z" transform="translate(-15.33 -13.97745)"/><path class="cls-2" d="M112,166.66a7.09046,7.09046,0,0,1,.8.71,19.8392,19.8392,0,0,1,1.91,2.19,31.43006,31.43006,0,0,1,6.48,17.85,20.19127,20.19127,0,0,1,0,2.91,3.82013,3.82013,0,0,1-.15,1.06c-.12,0,0-1.52-.22-3.95a35.00008,35.00008,0,0,0-6.4-17.62C113,167.83,112,166.73,112,166.66Z" transform="translate(-15.33 -13.97745)"/><path class="cls-2" d="M191.22,176.75a16.58844,16.58844,0,0,1,0-3c.07-1.85.16-4.4.17-7.21s-.07-5.36-.13-7.2a18.78,18.78,0,0,1,0-3,13.00026,13.00026,0,0,1,.43,3c.17,1.85.3,4.4.3,7.23s-.16,5.39-.34,7.23A12.90922,12.90922,0,0,1,191.22,176.75Z" transform="translate(-15.33 -13.97745)"/><path class="cls-2" d="M128.13,256a13.23019,13.23019,0,0,1,1.9.72c1.16.51,3,1.22,5.13,2.06a164.49889,164.49889,0,0,0,17.34,5.61A159.5113,159.5113,0,0,0,170.37,268c2.32.32,4.19.56,5.49.71a13.70638,13.70638,0,0,1,2,.29,11.4582,11.4582,0,0,1-2-.06c-1.32-.07-3.2-.24-5.53-.51a135.95061,135.95061,0,0,1-35.38-9.2c-2.16-.9-3.89-1.66-5.07-2.24A11.06132,11.06132,0,0,1,128.13,256Z" transform="translate(-15.33 -13.97745)"/><path class="cls-2" d="M178.46,185.39a1.16,1.16,0,1,0,1.16-1.16,1.16,1.16,0,0,0-1.16,1.16Z" transform="translate(-15.33 -13.97745)"/><path class="cls-2" d="M257.35,176.75a1.15,1.15,0,1,0,0-.0201Q257.34992,176.73993,257.35,176.75Z" transform="translate(-15.33 -13.97745)"/><path class="cls-2" d="M220.71,172.4a1.17,1.17,0,1,0,.77-.76A1.17,1.17,0,0,0,220.71,172.4Z" transform="translate(-15.33 -13.97745)"/><path class="cls-2" d="M201.69,156.35a1.16,1.16,0,1,0,1.16-1.16,1.16,1.16,0,0,0-1.16,1.16Z" transform="translate(-15.33 -13.97745)"/><path class="cls-2" d="M175.85,202.24a1.16,1.16,0,1,0,1.16-1.16,1.16,1.16,0,0,0-1.16,1.16Z" transform="translate(-15.33 -13.97745)"/><path class="cls-2" d="M242.79,173.52a1.16,1.16,0,1,0,1.16-1.16,1.16,1.16,0,0,0-1.16,1.16Z" transform="translate(-15.33 -13.97745)"/><path class="cls-2" d="M226.46,191.38a1.16238,1.16238,0,0,0,2.22.69,1.34025,1.34025,0,0,0,0-.69,1.16,1.16,0,0,0-2.22,0Z" transform="translate(-15.33 -13.97745)"/><path class="cls-2" d="M153.51,189.16a1.16,1.16,0,1,0,1.16-1.16,1.16,1.16,0,0,0-1.16,1.16Z" transform="translate(-15.33 -13.97745)"/><circle class="cls-2" cx="133.78" cy="158.42252" r="1.11"/><path class="cls-2" d="M168.91,165.43a1.16,1.16,0,1,0,1.16-1.16,1.16,1.16,0,0,0-1.16,1.16Z" transform="translate(-15.33 -13.97745)"/><path class="cls-2" d="M205.88,173.52a1.16,1.16,0,1,0,1.16-1.16,1.16,1.16,0,0,0-1.16,1.16Z" transform="translate(-15.33 -13.97745)"/><circle class="cls-2" cx="158.92" cy="136.82253" r="1.11"/><circle class="cls-2" cx="119.27" cy="162.77253" r="1.11"/><path class="cls-2" d="M153.51,210.39a1.16,1.16,0,1,0,1.16-1.16,1.16,1.16,0,0,0-1.16,1.16Z" transform="translate(-15.33 -13.97745)"/><circle class="cls-2" cx="169.92999" cy="253.61252" r="1.10999"/><circle class="cls-2" cx="140.41" cy="239.21253" r="1.11"/><path class="cls-2" d="M122.8,265.55a1.16,1.16,0,1,0,1.16-1.16,1.16,1.16,0,0,0-1.16,1.16Z" transform="translate(-15.33 -13.97745)"/><path class="cls-2" d="M163.63,242.28a1.16,1.16,0,1,0,1.16-1.16,1.16,1.16,0,0,0-1.16,1.16Z" transform="translate(-15.33 -13.97745)"/><circle class="cls-2" cx="90.53" cy="160.33253" r="1.11"/><path class="cls-2" d="M104.74,229.88a1.16,1.16,0,1,0,1.16-1.16,1.16,1.16,0,0,0-1.16,1.16Z" transform="translate(-15.33 -13.97745)"/><path class="cls-2" d="M122.8,236.6a1.16,1.16,0,1,0,1.16-1.16,1.16,1.16,0,0,0-1.16,1.16Z" transform="translate(-15.33 -13.97745)"/><path class="cls-2" d="M132.39,223.78a1.16,1.16,0,1,0,0-.69A1.16,1.16,0,0,0,132.39,223.78Z" transform="translate(-15.33 -13.97745)"/><path class="cls-2" d="M110.81,189.16a1.16008,1.16008,0,1,0,.00039-.03039Z" transform="translate(-15.33 -13.97745)"/><circle class="cls-2" cx="169.92999" cy="234.67252" r="1.11"/><circle class="cls-2" cx="81.47" cy="191.39252" r="1.11"/><path class="cls-2" d="M89.76,223.78a1.16,1.16,0,1,0,1.16-1.16,1.16,1.16,0,0,0-1.16,1.16Z" transform="translate(-15.33 -13.97745)"/><path class="cls-2" d="M132.39,196.33a1.16,1.16,0,1,0,0-.69A1.16,1.16,0,0,0,132.39,196.33Z" transform="translate(-15.33 -13.97745)"/><g class="cls-11"><path d="M138.47,154.74c-.69-2.14-1.63-2.57-3.66-3.54a37.3895,37.3895,0,0,1-7.07-4.52l-10.06,6.4c-1.16,4.28-1.26,9.28.79,13.15s6.49,6.74,10.85,6.06a11,11,0,0,0,6.91-4.47,19.56,19.56,0,0,0,3.21-7.72C139.79,158.65,138.91,156.14,138.47,154.74Z" transform="translate(-15.33 -13.97745)"/></g><path class="cls-10" d="M167.58,94.51c-1.26-7.58-7.27-16.41-14.79-14.82l-23.1,8.43a4.5,4.5,0,0,0-3.48,4.95L134.64,150h-.17s7,15.59,22.22,9.09c3-1.3,4.08-4.84,4.35-8.4h.16c0-.42-.07-.8-.1-1.16a37.70028,37.70028,0,0,0-.71-7.86h0c-.42-4.64-.62-6.52-.6-6.47s9.57-2.63,10.28-15.54C170.31,113.25,168.93,102.92,167.58,94.51Z" transform="translate(-15.33 -13.97745)"/><path class="cls-2" d="M165.16,103.49a1.64,1.64,0,0,1-1.41,1.8,1.56,1.56,0,0,1-1.80879-1.26312L161.94,104.02h0a1.63,1.63,0,0,1,1.4-1.8,1.56,1.56,0,0,1,1.81955,1.24756l.00045.00244Z" transform="translate(-15.33 -13.97745)"/><path class="cls-2" d="M165.83,100.12c-.17.24-1.51-.54-3.26-.36s-2.95,1.16-3.16,1,0-.5.58-1a4.56,4.56,0,0,1,2.5-1.06,4.39,4.39,0,0,1,2.63.56C165.7,99.66,165.92,100,165.83,100.12Z" transform="translate(-15.33 -13.97745)"/><path class="cls-2" d="M148.63,105.54a1.63,1.63,0,0,1-1.4,1.81,1.56,1.56,0,0,1-1.81813-1.24965L145.41,106.09h0a1.63,1.63,0,0,1,1.39-1.81A1.58,1.58,0,0,1,148.63,105.54Z" transform="translate(-15.33 -13.97745)"/><path class="cls-2" d="M148.63,102.22c-.18.24-1.51-.54-3.26-.36s-3,1.17-3.17,1,.07-.48.58-1a4.59,4.59,0,0,1,2.51-1.06,4.36,4.36,0,0,1,2.62.56C148.49,101.76,148.71,102.12,148.63,102.22Z" transform="translate(-15.33 -13.97745)"/><path class="cls-2" d="M156.33,114.58a11.30011,11.30011,0,0,1,2.79-.81c.45-.09.86-.22.91-.53a2.33,2.33,0,0,0-.44-1.3c-.53-1-1.08-2.14-1.67-3.27-2.32-4.65-4.09-8.52-3.89-8.62s2.24,3.61,4.57,8.28c.57,1.16,1.16,2.25,1.63,3.29a2.64,2.64,0,0,1,.4,1.75,1.16993,1.16993,0,0,1-.66.73,3.89944,3.89944,0,0,1-.75.18A11.72947,11.72947,0,0,1,156.33,114.58Z" transform="translate(-15.33 -13.97745)"/><path class="cls-9" d="M159.68,135.21a32.59,32.59,0,0,1-17.49-2.79s5,8.3,17.63,5.8Z" transform="translate(-15.33 -13.97745)"/><path class="cls-9" d="M156,118.88a3.17,3.17,0,0,0-3-.88,3,3,0,0,0-1.89,1.27,1.82,1.82,0,0,0,.08,2.1,2.09,2.09,0,0,0,2.32.35,6.60992,6.60992,0,0,0,2.1-1.57,1.91966,1.91966,0,0,0,.46-.56.61.61,0,0,0-.07-.65" transform="translate(-15.33 -13.97745)"/><path class="cls-2" d="M151.34,116.32c.28,0,.47,1.86,2.25,3.05s3.77.76,3.8,1-.4.4-1.26.52a4.73006,4.73006,0,0,1-3.17-.75,4.17,4.17,0,0,1-1.77-2.57C151,116.82,151.16,116.32,151.34,116.32Z" transform="translate(-15.33 -13.97745)"/><path class="cls-2" d="M149.1,99.08c-.12.49-1.89.45-3.93.9s-3.64,1.16-3.95.79c-.14-.18.1-.66.72-1.16a6.7499,6.7499,0,0,1,2.85-1.34,7.00005,7.00005,0,0,1,3.16,0C148.74,98.51,149.16,98.85,149.1,99.08Z" transform="translate(-15.33 -13.97745)"/><path class="cls-2" d="M164.67,95.12c-.28.43-1.52.14-3,.27s-2.65.54-3,.16c-.14-.2,0-.61.51-1a4.11,4.11,0,0,1,2.32-.91,4.21,4.21,0,0,1,2.45.56C164.57,94.52,164.79,94.91,164.67,95.12Z" transform="translate(-15.33 -13.97745)"/><path class="cls-2" d="M155.64,76.46a15.37,15.37,0,0,1,13.1,14.34l-7.21.36L160,87.4c.88,2.33-.79,5-3,6.18s-4.87,1.16-7.39,1.07l-.47-3.23a6.12,6.12,0,0,1-3.73,5A18.37006,18.37006,0,0,1,139,97.74a18.00006,18.00006,0,0,0-6.38,1.36,13.53,13.53,0,0,1,1.07-12.49,19.78,19.78,0,0,1,10.13-7.85,35.99977,35.99977,0,0,1,12.86-1.87" transform="translate(-15.33 -13.97745)"/><path class="cls-2" d="M119.75,154.45c.69-3.72,2-7.45,1.38-11.18-.54-3.48-2.57-7-1.27-10.16a5.89,5.89,0,0,1,4.92-3.4c-4.87-8-5.61-18-5.27-27.5a34.21,34.21,0,0,1,1.26-9.1A13.43,13.43,0,0,1,126,85.77a8.48,8.48,0,0,1,8.73-.44l2,.16a20,20,0,0,1-.66,14.82c-.78,1.71-1.82,3.38-1.94,5.25-.22,4,3.81,7.2,3.81,11.18,0,3.15-1.43,6.13-2.87,8.93-.92,1.76-1.25,2.79.31,4.86.94,1.24,7.78,18.13,2.64,27.57a13.24,13.24,0,0,1-5.32,8.13c-3.48,2.2-8.45,2-11.17-1C119,162.42,119,158.16,119.75,154.45Z" transform="translate(-15.33 -13.97745)"/></g><g id="freepik--speech-bubble--inject-36"><path class="cls-2" d="M51.76,40.18v2.09c0,1.38,0,3.32.07,5.8,0,5,.07,12,.13,20.39l-.26-.26H79.93c.07-.07-.57.57-.3.29h0V40.18l.26.27-20.24-.14-5.8-.07H51.77a1.9994,1.9994,0,0,1,.49,0h1.49l5.7-.07L80,40h.25V68.53h0c.27-.26-.37.38-.3.32H51.53v-.26c.06-8.47.1-15.54.13-20.55,0-2.42.06-4.34.07-5.71V40.84A2.4398,2.4398,0,0,1,51.76,40.18Z" transform="translate(-15.33 -13.97745)"/><path class="cls-3" d="M85.87,33.88c.4.31-5.8,8.43-13.69,18.12l-4.76,5.71-.57.68-.66-.58C59.54,51.9,55,47.49,55.21,47.2s5.29,3.6,12.1,9.29l-1.16.1,4.65-5.8C78.72,41.16,85.49,33.56,85.87,33.88Z" transform="translate(-15.33 -13.97745)"/><path class="cls-5" d="M66.39,14a2.72986,2.72986,0,0,0-.7,0H63.61a11.86935,11.86935,0,0,0-1.52.07l-1.82.26-2.12.3-2.33.59a38.3198,38.3198,0,0,0-11.52,5,41.14,41.14,0,0,0-11.91,11.6,41.71,41.71,0,0,0-6.76,19,43.129,43.129,0,0,0-.12,5.57,22.69984,22.69984,0,0,0,.19,2.84c.18,1,.29,1.9.44,2.87A40.60013,40.60013,0,0,0,30,73.45a43.81971,43.81971,0,0,0,7.35,10.21,42.9098,42.9098,0,0,0,10.7,7.67,39.09983,39.09983,0,0,0,13,4,26.92057,26.92057,0,0,0,3.48.29,31.09966,31.09966,0,0,0,3.48.07,44.00036,44.00036,0,0,0,7-.89A41.26,41.26,0,0,0,89,88.9h-.43l14.24,5.71.85.34-.25-.87q-2.16-7.85-4.19-15.23l-.07.38a40.8699,40.8699,0,0,0,7.61-17.4,37.00013,37.00013,0,0,0,.55-8.92,30.83045,30.83045,0,0,0-.4-4.28c-.11-.71-.22-1.39-.33-2.09a20.52879,20.52879,0,0,0-.5-2A40.66993,40.66993,0,0,0,90.2,21.43a38.93,38.93,0,0,0-9.46-5l-2.12-.77-2-.49-1.86-.46c-.59-.11-1.16-.17-1.69-.26-1.08-.14-2-.32-2.86-.36L68.1,14H66.39a3.00166,3.00166,0,0,0,.42.06l1.28.09,2.08.15a22.54924,22.54924,0,0,1,2.83.43,40.5,40.5,0,0,1,32.38,30c.15.65.36,1.31.48,2l.31,2a29.52056,29.52056,0,0,1,.37,4.2,36.1003,36.1003,0,0,1-.58,8.74,40.10021,40.10021,0,0,1-7.5,17l-.13.16v.21q2,7.38,4.16,15.24l.6-.54L88.86,88.11,88.64,88l-.2.13A40.00008,40.00008,0,0,1,74.76,94a39.50043,39.50043,0,0,1-6.85.87,29.00151,29.00151,0,0,1-3.49,0A25.54969,25.54969,0,0,1,61,94.54a37.86,37.86,0,0,1-12.77-3.89,42.15014,42.15014,0,0,1-10.45-7.47,43.68981,43.68981,0,0,1-7.27-10,40.40985,40.40985,0,0,1-3.83-11.09c-.14-1-.29-1.88-.43-2.81s-.13-1.88-.2-2.8a45.18982,45.18982,0,0,1,.09-5.46,40.23,40.23,0,0,1,18.43-30.3,38.99989,38.99989,0,0,1,11.34-5.11L58.23,15l2.11-.35,1.8-.3c.55-.06,1.07-.07,1.52-.11l2-.15A5.02,5.02,0,0,0,66.39,14Z" transform="translate(-15.33 -13.97745)"/></g><g id="freepik--Device--inject-36"><path class="cls-2" d="M374.22,462.61l-150.93-.1a32.87,32.87,0,0,1-32.87-32.87l.07-378.48a32.87,32.87,0,0,1,32.87-32.87h0l150.94.09a32.88,32.88,0,0,1,32.9,32.86v.02l-.08,378.43a32.87,32.87,0,0,1-32.82,32.92H374.22Z" transform="translate(-15.33 -13.97745)"/><path class="cls-8" d="M374.16,31.81H344.9a7.28,7.28,0,0,0-7.11,7.43v5.31a7.26,7.26,0,0,1-7.09647,7.41992L330.69,51.97H273.63a7.27,7.27,0,0,1-7.1-7.42V39.17a7.28,7.28,0,0,0-7.1-7.43h-35.9a23,23,0,0,0-23,23h0l-.07,369.37a23,23,0,0,0,23,23l150.65.08a23,23,0,0,0,23-23h0l.07-369.38a23,23,0,0,0-23-23Z" transform="translate(-15.33 -13.97745)"/><path class="cls-2" d="M219.94,117.49h-2.13v-.56h4.89v.56h-2.13V123h-.63Z" transform="translate(-15.33 -13.97745)"/><path class="cls-2" d="M222.65,120.7A2.32,2.32,0,1,1,225,123a2.23,2.23,0,0,1-2.32-2.13Zm4,0a1.69,1.69,0,1,0-1.68,1.76,1.66,1.66,0,0,0,1.69-1.62946V120.83a.57027.57027,0,0,0-.02-.13Z" transform="translate(-15.33 -13.97745)"/><path class="cls-2" d="M232.64,116.57V123h-.58v-.89a2,2,0,0,1-1.75.94,2.32,2.32,0,1,1-.002-4.64h.002a2,2,0,0,1,1.73.9v-2.72Zm-.6,4.13a1.68,1.68,0,1,0-1.68,1.76,1.65,1.65,0,0,0,1.67984-1.61962L232.04,120.83Z" transform="translate(-15.33 -13.97745)"/><path class="cls-2" d="M237.77,120.15V123h-.55v-.7a1.74,1.74,0,0,1-1.57.75c-1,0-1.66-.53-1.66-1.32s.45-1.29,1.75-1.29h1.48v-.27a1.16,1.16,0,0,0-1.16-1.16h0a.47989.47989,0,0,0-.12,0,2.32,2.32,0,0,0-1.51.53l-.28-.45a2.88,2.88,0,0,1,1.85-.61,1.61,1.61,0,0,1,1.7693,1.43311l.0007.00689A1.21881,1.21881,0,0,1,237.77,120.15Zm-.55,1.46v-.75H235.8c-.88,0-1.16.35-1.16.81s.43.85,1.16.85A1.46,1.46,0,0,0,237.22,121.61Z" transform="translate(-15.33 -13.97745)"/><path class="cls-2" d="M243.16,118.47l-2.32,5.09c-.39.88-.86,1.16-1.51,1.16a1.59,1.59,0,0,1-1.16-.42l.28-.45a1.13,1.13,0,0,0,.83.34c.41,0,.68-.19.94-.76l.2-.44-2-4.53H239l1.7,3.85,1.83-3.84Z" transform="translate(-15.33 -13.97745)"/><path class="cls-2" d="M289.13,74.48H291v6.6h4.08v1.54h-6Z" transform="translate(-15.33 -13.97745)"/><path class="cls-2" d="M295.81,74.48a1,1,0,0,1,.99875-1.00125q.02564,0,.05124.00125H297a1,1,0,0,1,1.14453.83067L298.15,74.35a.33856.33856,0,0,1,0,.1,1.16,1.16,0,0,1-2.25,0Zm.22,1.88h1.81v6.26H296Z" transform="translate(-15.33 -13.97745)"/><path class="cls-2" d="M298.93,82l.61-1.31a4.24,4.24,0,0,0,2.17.62c.83,0,1.16-.24,1.16-.58,0-1-3.77,0-3.77-2.48,0-1.16,1.06-2,2.89-2a5.16991,5.16991,0,0,1,2.41.56l-.6,1.29a3.73014,3.73014,0,0,0-1.81-.47c-.82,0-1.16.26-1.16.58,0,1.07,3.78,0,3.78,2.5,0,1.16-1.08,2-3,2A5.39015,5.39015,0,0,1,298.93,82Z" transform="translate(-15.33 -13.97745)"/><path class="cls-2" d="M309.75,82.32a2.5501,2.5501,0,0,1-1.47.4A2.09,2.09,0,0,1,306,80.93a1.84925,1.84925,0,0,1,0-.47V77.85h-1V76.5h1V75h1.82v1.5h1.55v1.35h-1.55v2.54a.73.73,0,0,0,.62762.81968L308.45,81.21h.15a1.29011,1.29011,0,0,0,.73-.23Z" transform="translate(-15.33 -13.97745)"/><path class="cls-2" d="M378.42,73.78c0,.1-3.81.21-8.5.25s-8.5,0-8.5-.11,3.8-.21,8.5-.26S378.42,73.67,378.42,73.78Z" transform="translate(-15.33 -13.97745)"/><path class="cls-2" d="M378.45,78.13c0,.09-3.79.21-8.49.26a84.747,84.747,0,0,1-8.51-.12c0-.12,3.81-.21,8.51-.25S378.45,78,378.45,78.13Z" transform="translate(-15.33 -13.97745)"/><path class="cls-2" d="M378.49,82.5c0,.09-3.8.2-8.5.24s-8.49,0-8.5-.11,3.8-.22,8.5-.25S378.49,82.38,378.49,82.5Z" transform="translate(-15.33 -13.97745)"/><path class="cls-2" d="M219.61,83.76a.4.4,0,0,1-.29-.12L215.65,80a.42.42,0,0,1,0-.59l3.65-3.55a.43.43,0,0,1,.59.08.42.42,0,0,1,0,.51l-3.36,3.26,3.36,3.33a.41.41,0,0,1-.29.7Z" transform="translate(-15.33 -13.97745)"/><path class="cls-2" d="M246.34,154.38c0,1.23-.88,2-2.32,2h-1.53v1.81h-.63v-5.73H244C245.46,152.42,246.34,153.16,246.34,154.38Zm-.6,0c0-.92-.61-1.44-1.76-1.44h-1.52v2.87H244c1.13,0,1.74-.53,1.74-1.43Z" transform="translate(-15.33 -13.97745)"/><path class="cls-2" d="M249.59,153.81v.57h-.14a1.4,1.4,0,0,0-1.4599,1.33742L247.99,155.72a1.00073,1.00073,0,0,0,0,.25v2.19h-.58v-4.3H248v.84A1.62,1.62,0,0,1,249.59,153.81Z" transform="translate(-15.33 -13.97745)"/><path class="cls-2" d="M250.17,156a2.2,2.2,0,1,1,2.2,2.2l-.01,0h0a2.11,2.11,0,0,1-2.19-2Zm3.79,0a1.59,1.59,0,0,0-1.64688-1.531l-.02312.001a1.60038,1.60038,0,0,0,.07,3.2,1.58,1.58,0,0,0,1.61-1.54943V156.12a.49056.49056,0,0,0,0-.12Z" transform="translate(-15.33 -13.97745)"/><path class="cls-2" d="M254.18,159.51l.21-.44a1,1,0,0,0,.68.22c.45,0,.7-.28.7-.81v-4.65h.58v4.65a1.15,1.15,0,0,1-.9806,1.29747l-.0194.00254h-.26A1.52007,1.52007,0,0,1,254.18,159.51Zm1.47-7a.42.42,0,0,1,.4199-.42012l.0101.00012a.41.41,0,0,1,.41.41h0a.4.4,0,0,1-.37949.41949q-.01024.00052-.0205.00051h0a.42.42,0,0,1-.42987-.40989L255.66,152.5Z" transform="translate(-15.33 -13.97745)"/><path class="cls-2" d="M261.74,156.18h-3.63a1.59,1.59,0,0,0,1.67,1.5h0a1.68,1.68,0,0,0,1.32-.55l.33.37a2.28,2.28,0,0,1-3.92-1.3,1.19567,1.19567,0,0,1,0-.19,2.08,2.08,0,0,1,1.96558-2.18845L259.51,153.82h.15a2.05,2.05,0,0,1,2.09,2V156Zm-3.61-.43h3.05a1.53,1.53,0,0,0-3.05,0Z" transform="translate(-15.33 -13.97745)"/><path class="cls-2" d="M262.49,156a2.12,2.12,0,0,1,2.0477-2.18993L264.54,153.81h.17a1.9,1.9,0,0,1,1.69.85l-.44.3a1.42,1.42,0,0,0-1.25-.64,1.69,1.69,0,0,0-1.54,1.82,1.67,1.67,0,0,0,1.54,1.53,1.4,1.4,0,0,0,1.25-.62l.44.3a1.93,1.93,0,0,1-1.69.85,2.14,2.14,0,0,1-2.22-2Z" transform="translate(-15.33 -13.97745)"/><path class="cls-2" d="M269.86,157.93a1.37,1.37,0,0,1-.91.3,1.16,1.16,0,0,1-1.25928-1.0514L267.69,157.17v-2.84h-.77v-.48h.77v-.94h.58v.94h1.31v.48h-1.31v2.58a.69.69,0,0,0,.57.78H269a.9.9,0,0,0,.63-.22Z" transform="translate(-15.33 -13.97745)"/><path class="cls-2" d="M272.67,155.28a2.87,2.87,0,0,1,2.82956-2.90989L275.51,152.37h.18a2.75,2.75,0,0,1,2.09.84l-.39.38a2.26,2.26,0,0,0-1.69-.68,2.38,2.38,0,1,0,0,4.75,2.26,2.26,0,0,0,1.69-.68l.39.38a2.77,2.77,0,0,1-2.1.85,2.9,2.9,0,0,1-3-2.77Z" transform="translate(-15.33 -13.97745)"/><path class="cls-2" d="M279,152.13h.58v6.08H279Z" transform="translate(-15.33 -13.97745)"/><path class="cls-2" d="M281,152.49a.42.42,0,0,1,.42-.42h0a.4.4,0,0,1,.41965.37934q.00078.01533.00037.03067h0a.42.42,0,0,1-.33847.48808L281.49,152.97a.43.43,0,0,1-.49-.35.33009.33009,0,0,1,0-.14Zm.13,1.36h.58v4.3h-.58Z" transform="translate(-15.33 -13.97745)"/><path class="cls-2" d="M287.12,156.18h-3.6a1.6,1.6,0,0,0,1.68,1.5h0a1.7,1.7,0,0,0,1.32-.55l.32.37a2.29,2.29,0,0,1-3.93-1.3V156a2.09,2.09,0,0,1,1.98569-2.18935L284.91,153.81H285a2.06,2.06,0,0,1,2.1,2,1.08838,1.08838,0,0,1,0,.18A1.83294,1.83294,0,0,1,287.12,156.18Zm-3.6-.43h3.05a1.53,1.53,0,0,0-3.05,0Z" transform="translate(-15.33 -13.97745)"/><path class="cls-2" d="M292.27,155.61v2.49h-.58v-2.43a1.16,1.16,0,0,0-.9-1.37,1.07986,1.07986,0,0,0-.4,0,1.41,1.41,0,0,0-1.50952,1.30291L288.88,155.61a1.922,1.922,0,0,0,0,.24v2.26h-.6v-4.3h.56v.79a1.81,1.81,0,0,1,1.63-.83,1.65,1.65,0,0,1,1.80936,1.47353l.00064.00647A1.53132,1.53132,0,0,1,292.27,155.61Z" transform="translate(-15.33 -13.97745)"/><path class="cls-2" d="M296.13,157.93a1.4,1.4,0,0,1-.92.3,1.15,1.15,0,0,1-1.24853-1.04219L293.96,157.17a.6103.6103,0,0,1,0-.19v-2.65h-.78v-.48H294v-.94h.58v.94h1.31v.48h-1.31v2.58a.68.68,0,0,0,.56.78h.18a.94.94,0,0,0,.64-.22Z" transform="translate(-15.33 -13.97745)"/><path class="cls-3" d="M231.41,155.67a5,5,0,1,1-4.99975-5.00025l.04976.00025a4.95,4.95,0,0,1,4.95025,4.94975Z" transform="translate(-15.33 -13.97745)"/><path class="cls-8" d="M225.91,157.2a.32.32,0,0,1-.19-.07l-1.36-1.24a.31.31,0,0,1,0-.42.27.27,0,0,1,.38174-.00825l.00826.00825h0l1.16,1,2.18-2.32a.29.29,0,0,1,.4-.07.3.3,0,0,1,.07.41l-.06.06-2.32,2.49A.3.3,0,0,1,225.91,157.2Z" transform="translate(-15.33 -13.97745)"/><path class="cls-3" d="M383.64,175.73a6.27043,6.27043,0,0,0,1.08-.14,5.68989,5.68989,0,0,0,2.82-1.39,6,6,0,0,0,2-4.56V145.8a18.32921,18.32921,0,0,0-.1-2.77,5.81,5.81,0,0,0-3.48-4.28,6.66,6.66,0,0,0-3-.47H366.18l-149.71.1a5.75006,5.75006,0,0,0-4.51,2.19,5.83013,5.83013,0,0,0-1.09,2.32,13.81,13.81,0,0,0-.13,2.65v24a5.91992,5.91992,0,0,0,.46,2.42,5.81,5.81,0,0,0,3.55,3.22,7.28984,7.28984,0,0,0,2.46.25h37.14l67.31.06,45.38.1h12.33l-12.33.06-45.38.09-67.31.07H217.21a7.84015,7.84015,0,0,1-2.64-.27,6.45,6.45,0,0,1-3.92-3.56,6.69007,6.69007,0,0,1-.51-2.65V145.56a14.22092,14.22092,0,0,1,.14-2.77,6.34,6.34,0,0,1,6.19-5l149.71.09H383a6.99976,6.99976,0,0,1,3.11.5,6.21,6.21,0,0,1,3.63,4.56,16.71022,16.71022,0,0,1,.1,2.83v23.84a6.08,6.08,0,0,1-5,6,5.53949,5.53949,0,0,1-.81.07Z" transform="translate(-15.33 -13.97745)"/><path class="cls-12" d="M299.48,165.25c0,.18-12.85.31-28.69.31s-28.71-.13-28.71-.31,12.85-.3,28.71-.3S299.48,165.09,299.48,165.25Z" transform="translate(-15.33 -13.97745)"/><path class="cls-3" d="M368.11,156a.25006.25006,0,0,1-.05.15l-1.81,1.79a.23.23,0,0,1-.31,0l-1.77-1.83a.22.22,0,0,1,0-.3.21.21,0,0,1,.297-.003l.003.003h0l1.63,1.68,1.67-1.68a.21.21,0,0,1,.29,0A.17.17,0,0,1,368.11,156Z" transform="translate(-15.33 -13.97745)"/><path class="cls-2" d="M241.86,200.34v-3.29h.6v3.26c0,1.36.64,2,1.75,2s1.77-.63,1.77-2v-3.26h.52v3.29a2.36,2.36,0,0,1-4.71,0Z" transform="translate(-15.33 -13.97745)"/><path class="cls-2" d="M252.58,200.64a2.09,2.09,0,0,1-1.98569,2.18934L250.58,202.83h-.16a1.89,1.89,0,0,1-1.62-.8v2.32h-.58v-5.91h.58v.85a1.89,1.89,0,0,1,1.66-.88,2.09,2.09,0,0,1,2.11,2.06981v.0002A.85929.85929,0,0,1,252.58,200.64Zm-.58,0a1.61,1.61,0,1,0-1.6,1.67,1.58,1.58,0,0,0,1.6-1.55A.47989.47989,0,0,0,252,200.64Z" transform="translate(-15.33 -13.97745)"/><path class="cls-2" d="M257.7,196.7v6.09h-.56v-.85a1.86,1.86,0,0,1-1.66.89,2.2,2.2,0,0,1,0-4.39,1.89,1.89,0,0,1,1.64.85V196.7Zm-.57,3.94a1.6,1.6,0,1,0-1.6,1.67,1.58,1.58,0,0,0,1.6-1.55A.48084.48084,0,0,0,257.13,200.64Z" transform="translate(-15.33 -13.97745)"/><path class="cls-2" d="M262.57,200.12v2.67H262v-.67a1.63,1.63,0,0,1-1.49.71c-1,0-1.56-.51-1.56-1.25s.42-1.22,1.66-1.22H262v-.27a1,1,0,0,0-1.16-1.16,2.3,2.3,0,0,0-1.44.51l-.25-.44a2.71007,2.71007,0,0,1,1.75-.58,1.54,1.54,0,0,1,1.69,1.36A1.29023,1.29023,0,0,1,262.57,200.12ZM262,201.5v-.71h-1.34c-.84,0-1.16.32-1.16.78s.4.8,1.09.8A1.37,1.37,0,0,0,262,201.5Z" transform="translate(-15.33 -13.97745)"/><path class="cls-2" d="M266.43,202.53a1.37005,1.37005,0,0,1-.91.3,1.16,1.16,0,0,1-1.26-1.05.66975.66975,0,0,1,0-.2V199h-.78v-.49h.78v-.94h.58v.94h1.31V199h-1.31v2.57a.7.7,0,0,0,.59.79h.15a.94007.94007,0,0,0,.64-.22Z" transform="translate(-15.33 -13.97745)"/><path class="cls-2" d="M271.08,200.87h-3.61a1.59,1.59,0,0,0,1.67493,1.50029L269.15,202.37h0a1.7,1.7,0,0,0,1.32-.56l.32.37a2,2,0,0,1-1.65.71,2.1541,2.1541,0,0,1-.39093-4.29024q.08025-.0079.16092-.00977a2.11,2.11,0,0,1,2.11,2.1h0A.28994.28994,0,0,1,271.08,200.87Zm-3.61-.43h3.07a1.54,1.54,0,0,0-3.07,0Z" transform="translate(-15.33 -13.97745)"/><path class="cls-2" d="M279,199c0,1.23-.89,2-2.32,2h-1.54v1.82h-.61v-5.74h2.15C278.15,197.05,279,197.79,279,199Zm-.61,0c0-.91-.6-1.44-1.75-1.44h-1.52v2.87h1.56c1.16,0,1.75-.52,1.75-1.43Z" transform="translate(-15.33 -13.97745)"/><path class="cls-2" d="M282.29,198.44V199h-.14a1.39,1.39,0,0,0-1.4598,1.31648L280.69,200.32a2.44671,2.44671,0,0,0,0,.27v2.2h-.54v-4.31h.55v.85A1.65,1.65,0,0,1,282.29,198.44Z" transform="translate(-15.33 -13.97745)"/><path class="cls-2" d="M287.05,200.87h-3.61a1.59,1.59,0,0,0,1.67493,1.50029L285.12,202.37h0a1.74,1.74,0,0,0,1.32-.56l.32.37a2.00005,2.00005,0,0,1-1.66.71,2.15,2.15,0,0,1-2.26-2v-.19a2.07,2.07,0,0,1,1.94537-2.18753L284.84,198.51H285a2,2,0,0,1,2.088,1.908q.00207.046.002.092a1.08176,1.08176,0,0,1,0,.18Zm-3.61-.43h3.05a1.53,1.53,0,0,0-3.05,0Z" transform="translate(-15.33 -13.97745)"/><path class="cls-2" d="M287.64,202.3l.27-.45a2.60993,2.60993,0,0,0,1.53.47c.81,0,1.16-.28,1.16-.71,0-1.16-2.8-.23-2.8-1.94,0-.7.62-1.23,1.71-1.23a2.84,2.84,0,0,1,1.53.41l-.25.47a2.18,2.18,0,0,0-1.28-.38c-.78,0-1.16.31-1.16.72,0,1.16,2.79.28,2.79,1.94,0,.74-.65,1.23-1.78,1.23A2.94005,2.94005,0,0,1,287.64,202.3Z" transform="translate(-15.33 -13.97745)"/><path class="cls-2" d="M296,200.87h-3.61a1.61,1.61,0,0,0,1.7,1.5h0a1.72994,1.72994,0,0,0,1.31-.56l.33.37a2.32,2.32,0,0,1-4-1.54,2.1,2.1,0,1,1,4.2,0h0A.76062.76062,0,0,1,296,200.87Zm-3.61-.43h3.06a1.53,1.53,0,1,0-3.06-.00383Z" transform="translate(-15.33 -13.97745)"/><path class="cls-2" d="M301.16,200.29v2.5h-.58v-2.44a1.16,1.16,0,0,0-.9-1.37,1.08023,1.08023,0,0,0-.4,0,1.41,1.41,0,0,0-1.50952,1.30292L297.77,200.29a1.91821,1.91821,0,0,0,0,.24v2.32h-.58v-4.3h.56v.79a1.83,1.83,0,0,1,1.64-.83,1.65,1.65,0,0,1,1.77,1.51A1.29814,1.29814,0,0,1,301.16,200.29Z" transform="translate(-15.33 -13.97745)"/><path class="cls-2" d="M305,202.53a1.40005,1.40005,0,0,1-.92.3,1.17,1.17,0,0,1-1.27-1.05V199h-.76v-.49h.76v-.94h.6v.94h1.31V199h-1.31v2.57a.68.68,0,0,0,.55066.78841l.00934.00159h.18a.94008.94008,0,0,0,.64-.22Z" transform="translate(-15.33 -13.97745)"/><path class="cls-2" d="M309.32,200.12v2.67h-.56v-.67a1.61,1.61,0,0,1-1.48.71c-1,0-1.58-.51-1.58-1.25s.43-1.22,1.67-1.22h1.37v-.27a1.07,1.07,0,0,0-1.22-1.16,2.24,2.24,0,0,0-1.44.51l-.26-.44a2.77,2.77,0,0,1,1.75-.58,1.52,1.52,0,0,1,1.73776,1.2653l.00223.0147A1.18975,1.18975,0,0,1,309.32,200.12Zm-.58,1.38v-.71h-1.36c-.83,0-1.1.32-1.1.78s.41.8,1.09.8A1.4,1.4,0,0,0,308.74,201.5Z" transform="translate(-15.33 -13.97745)"/><path class="cls-2" d="M313.17,202.53a1.35,1.35,0,0,1-.91.3,1.17,1.17,0,0,1-1.27-1.05V199h-.76v-.49H311v-.94h.59v.94h1.32V199h-1.32v2.57a.69.69,0,0,0,.57.79h.18a.94007.94007,0,0,0,.64-.22Z" transform="translate(-15.33 -13.97745)"/><path class="cls-2" d="M314.09,197.12a.43.43,0,1,1,.44.42h0A.44.44,0,0,1,314.09,197.12Zm.14,1.36h.58v4.31h-.58Z" transform="translate(-15.33 -13.97745)"/><path class="cls-2" d="M316,200.64a2.2,2.2,0,1,1,2.21,2.19l-.01,0a2.11,2.11,0,0,1-2.2-2Zm3.8,0a1.6,1.6,0,1,0-1.6,1.67,1.58,1.58,0,0,0,1.6-1.55Z" transform="translate(-15.33 -13.97745)"/><path class="cls-2" d="M325.53,200.29v2.5H325v-2.44a1.16,1.16,0,0,0-.9-1.37,1.07015,1.07015,0,0,0-.4,0,1.41,1.41,0,0,0-1.50952,1.30292L322.19,200.29a1.93361,1.93361,0,0,0,0,.24v2.32h-.58v-4.3h.55v.79a1.83,1.83,0,0,1,1.64-.83,1.65,1.65,0,0,1,1.77991,1.50894l.00009.00106A2.617,2.617,0,0,1,325.53,200.29Z" transform="translate(-15.33 -13.97745)"/><path class="cls-3" d="M231.41,200.3a5,5,0,1,1-4.99975-5.00024L226.46,195.3A5,5,0,0,1,231.41,200.3Z" transform="translate(-15.33 -13.97745)"/><path class="cls-8" d="M225.91,201.83a.26.26,0,0,1-.19-.07l-1.36-1.24a.31.31,0,0,1,0-.42.28.28,0,0,1,.396-.004l.004.004,1.16,1.05,2.18-2.32a.29.29,0,1,1,.47.33.16986.16986,0,0,1-.06.06l-2.32,2.5A.29.29,0,0,1,225.91,201.83Z" transform="translate(-15.33 -13.97745)"/><path class="cls-3" d="M383.64,220.37a6.27043,6.27043,0,0,0,1.08-.14,5.86,5.86,0,0,0,2.82-1.39,6,6,0,0,0,2-4.57V190.44a18.42076,18.42076,0,0,0-.1-2.78,5.81,5.81,0,0,0-3.48-4.28,6.7999,6.7999,0,0,0-3-.46H366.18L216.47,183a5.75007,5.75007,0,0,0-4.47,2.2,6,6,0,0,0-1.09,2.32,13.85052,13.85052,0,0,0-.13,2.65v24a5.91992,5.91992,0,0,0,.46,2.42,5.78,5.78,0,0,0,3.55,3.22,7.28984,7.28984,0,0,0,2.46.25h37.14l67.31.06,45.38.1,12.33.06h0l-12.33.06-45.38.09-67.31.07H217.21a7.6,7.6,0,0,1-2.64-.28,6.41,6.41,0,0,1-3.92-3.55,6.52025,6.52025,0,0,1-.51-2.65V190.19a14.3013,14.3013,0,0,1,.14-2.77,6.33,6.33,0,0,1,6.19-5l149.71.08H383a7.34993,7.34993,0,0,1,3.11.5,6.23,6.23,0,0,1,3.63,4.56,16.75074,16.75074,0,0,1,.1,2.83v23.84a6.04994,6.04994,0,0,1-2.12,4.64,5.93,5.93,0,0,1-2.89,1.37,4.42972,4.42972,0,0,1-.81.07Z" transform="translate(-15.33 -13.97745)"/><path class="cls-12" d="M299.48,209.89c0,.17-12.85.3-28.69.3s-28.71-.13-28.71-.3,12.85-.3,28.71-.3S299.48,209.73,299.48,209.89Z" transform="translate(-15.33 -13.97745)"/><path class="cls-3" d="M368.11,200.63a.27.27,0,0,1-.05.15l-1.81,1.83a.23.23,0,0,1-.31,0l-1.77-1.83a.22.22,0,0,1,0-.3.21.21,0,0,1,.297-.003l.003.003,1.63,1.68,1.67-1.68a.21.21,0,0,1,.29,0A.2.2,0,0,1,368.11,200.63Z" transform="translate(-15.33 -13.97745)"/><path class="cls-2" d="M241.34,244.55a2.87,2.87,0,0,1,2.82956-2.90988L244.18,241.64h.17a2.75992,2.75992,0,0,1,2.1.84l-.39.38a2.34,2.34,0,0,0-1.69-.69,2.38,2.38,0,0,0,0,4.76h0a2.29,2.29,0,0,0,1.69-.68l.39.38a2.79,2.79,0,0,1-2.11.85,2.89,2.89,0,0,1-3-2.77Z" transform="translate(-15.33 -13.97745)"/><path class="cls-2" d="M249.79,243.08v.57h-.14a1.41,1.41,0,0,0-1.47,1.34,1.06122,1.06122,0,0,0,0,.25v2.19h-.54v-4.32h.56V244A1.62,1.62,0,0,1,249.79,243.08Z" transform="translate(-15.33 -13.97745)"/><path class="cls-2" d="M254.56,245.45H251a1.59,1.59,0,0,0,1.67,1.49h0a1.68008,1.68008,0,0,0,1.32-.55l.33.37a2.28,2.28,0,0,1-3.92-1.3,1.20042,1.20042,0,0,1,0-.19,2.08,2.08,0,0,1,1.95-2.19h.15a2.05,2.05,0,0,1,2.09,2v.36ZM251,245h3a1.53,1.53,0,0,0-3.05,0Z" transform="translate(-15.33 -13.97745)"/><path class="cls-2" d="M258.87,244.75v2.67h-.55v-.66a1.63,1.63,0,0,1-1.49.71c-1,0-1.57-.51-1.57-1.26s.42-1.16,1.66-1.16h1.37v-.26a1.06,1.06,0,0,0-1.16-1.17,2.25,2.25,0,0,0-1.44.52l-.25-.45a2.77,2.77,0,0,1,1.75-.58,1.54,1.54,0,0,1,1.68,1.37A1.2223,1.2223,0,0,1,258.87,244.75Zm-.58,1.38v-.71H257c-.85,0-1.16.33-1.16.78s.4.8,1.09.8A1.36,1.36,0,0,0,258.29,246.13Z" transform="translate(-15.33 -13.97745)"/><path class="cls-2" d="M262.75,247.16a1.38,1.38,0,0,1-.91.31,1.16,1.16,0,0,1-1.26-1.05.74029.74029,0,0,1,0-.21V243.6h-.78v-.49h.78v-.94h.58v.94h1.31v.49h-1.31v2.53a.71.71,0,0,0,.59.79h.15a.94.94,0,0,0,.64-.22Z" transform="translate(-15.33 -13.97745)"/><path class="cls-2" d="M267.39,245.45h-3.61a1.59,1.59,0,0,0,1.68,1.49h0a1.7,1.7,0,0,0,1.32-.55l.32.37a2.11,2.11,0,0,1-1.66.71,2.14,2.14,0,0,1-2.31-1.94,2.26425,2.26425,0,0,1,0-.26,2.1,2.1,0,0,1,4.2,0h0A.68982.68982,0,0,1,267.39,245.45Zm-3.61-.43h3.07a1.54,1.54,0,0,0-3.07,0Z" transform="translate(-15.33 -13.97745)"/><path class="cls-2" d="M275.64,241.69v5.73H275v-2.65h-3.59v2.65h-.58v-5.73h.62v2.55h3.58v-2.55Z" transform="translate(-15.33 -13.97745)"/><path class="cls-2" d="M276.94,245.27a2.2,2.2,0,1,1,2.2,2.2,2.13,2.13,0,0,1-2.2-2.0577L276.94,245.41Zm3.8,0a1.6,1.6,0,1,0-1.6,1.67,1.56,1.56,0,0,0,1.6-1.519l0-.001Z" transform="translate(-15.33 -13.97745)"/><path class="cls-2" d="M289.63,245v2.5h-.58V245c0-.92-.46-1.38-1.23-1.38a1.39,1.39,0,0,0-1.45981,1.31648L286.36,244.94a.8682.8682,0,0,0,0,.23v2.33h-.58V245c0-.92-.47-1.38-1.25-1.38a1.38,1.38,0,0,0-1.4494,1.30692L283.08,244.94a.87931.87931,0,0,0,0,.23v2.33h-.61v-4.36H283v.79a1.74,1.74,0,0,1,1.59-.82,1.56,1.56,0,0,1,1.53.9,1.86,1.86,0,0,1,1.7-.9,1.64007,1.64007,0,0,1,1.77,1.89Z" transform="translate(-15.33 -13.97745)"/><path class="cls-2" d="M295,245.45h-3.61a1.59,1.59,0,0,0,1.67,1.49h0a1.72,1.72,0,0,0,1.33-.55l.32.37a2.28,2.28,0,0,1-3.92-1.3v-.19a2.1,2.1,0,1,1,4.2,0h0S295,245.39,295,245.45Zm-3.61-.43h3.06a1.53,1.53,0,0,0-3.06,0Z" transform="translate(-15.33 -13.97745)"/><path class="cls-2" d="M300.54,245.27a2.09,2.09,0,0,1-1.98569,2.18935L298.54,247.46h-.17a1.89,1.89,0,0,1-1.64-.85V249h-.58v-5.91h.56V244a1.89,1.89,0,0,1,1.66-.88,2.1,2.1,0,0,1,2.15,2Zm-.58,0a1.62,1.62,0,1,0-1.61,1.67,1.58,1.58,0,0,0,1.61-1.54944V245.27Z" transform="translate(-15.33 -13.97745)"/><path class="cls-2" d="M305,244.75v2.67h-.56v-.66a1.66,1.66,0,0,1-1.48.71c-1,0-1.58-.51-1.58-1.26s.43-1.16,1.67-1.16h1.37v-.26a1.08,1.08,0,0,0-1.23-1.17,2.20991,2.20991,0,0,0-1.43.52l-.27-.45a2.78,2.78,0,0,1,1.76-.58A1.55,1.55,0,0,1,305,244.4,2.00166,2.00166,0,0,1,305,244.75Zm-.58,1.38v-.71H303c-.84,0-1.1.33-1.1.78s.39.8,1.09.8a1.38,1.38,0,0,0,1.39-.87Z" transform="translate(-15.33 -13.97745)"/><path class="cls-2" d="M310.54,243.11v3.79a1.89,1.89,0,0,1-2.16,2.16,3,3,0,0,1-2-.67l.31-.44a2.64,2.64,0,0,0,1.69.6A1.38,1.38,0,0,0,310,247v-.56a2,2,0,0,1-1.68.84,2.09,2.09,0,0,1-.00775-4.18H308.32a1.93,1.93,0,0,1,1.7.86v-.83Zm-.57,2a1.64,1.64,0,1,0-1.68875,1.58975L308.29,246.7h0a1.54,1.54,0,0,0,1.64-1.43v-.16Z" transform="translate(-15.33 -13.97745)"/><path class="cls-2" d="M315.92,245.45h-3.6a1.58,1.58,0,0,0,1.66488,1.4903L313.99,246.94h0a1.68,1.68,0,0,0,1.32-.55l.33.37a2.34,2.34,0,0,1-4-1.23,2.2688,2.2688,0,0,1,0-.26,2.1,2.1,0,0,1,4.2,0h0A.82145.82145,0,0,1,315.92,245.45Zm-3.6-.43h3.06a1.53,1.53,0,1,0-3.06-.00383Z" transform="translate(-15.33 -13.97745)"/><path class="cls-12" d="M231.41,245a7.72971,7.72971,0,0,0-.26-1.16,4.99992,4.99992,0,0,0-1.82-2.59,4.64,4.64,0,1,0,0,7.53,4.92,4.92,0,0,0,1.82-2.58c.22-.75.21-1.16.26-1.16a2.6,2.6,0,0,1,0,1.24,4.87992,4.87992,0,0,1-1.78,2.86,5.14,5.14,0,0,1-4.91.82,5.21,5.21,0,0,1,0-9.83,5.12,5.12,0,0,1,4.91.8,4.9999,4.9999,0,0,1,1.78,2.88A2.4,2.4,0,0,1,231.41,245Z" transform="translate(-15.33 -13.97745)"/><path class="cls-12" d="M383.64,265a6.26948,6.26948,0,0,0,1.08-.14,5.78015,5.78015,0,0,0,2.82-1.39,6,6,0,0,0,2-4.56V235.07a18.32921,18.32921,0,0,0-.1-2.77A5.78,5.78,0,0,0,386,228a6.66,6.66,0,0,0-3-.47H366.18l-149.71.09a5.76008,5.76008,0,0,0-4.51,2.2,5.83006,5.83006,0,0,0-1.09,2.32,13.70956,13.70956,0,0,0-.13,2.64v24a6.00007,6.00007,0,0,0,.46,2.43,5.79,5.79,0,0,0,3.55,3.21,7.30058,7.30058,0,0,0,2.46.26h37.14l67.31.05,45.38.11h12.33L367,264.9l-45.38.09-67.31.07h-37.1a7.84993,7.84993,0,0,1-2.64-.28,6.44,6.44,0,0,1-3.92-3.55,6.56007,6.56007,0,0,1-.51-2.66V234.83a14.3598,14.3598,0,0,1,.14-2.78,6.35,6.35,0,0,1,6.19-5l149.71.1H383a6.99976,6.99976,0,0,1,3.11.5,6.24,6.24,0,0,1,3.57,4.54,16.82911,16.82911,0,0,1,.11,2.84v23.83a6.09,6.09,0,0,1-5,6,7.374,7.374,0,0,1-.81.07Z" transform="translate(-15.33 -13.97745)"/><path class="cls-12" d="M299.48,254.52c0,.18-12.85.3-28.69.3s-28.71-.12-28.71-.3,12.85-.3,28.71-.3S299.48,254.36,299.48,254.52Z" transform="translate(-15.33 -13.97745)"/><path class="cls-12" d="M368.11,245.26a.25011.25011,0,0,1-.05.15l-1.81,1.88a.23.23,0,0,1-.31,0l-1.77-1.83a.22.22,0,0,1,0-.3.21.21,0,0,1,.297-.003l.003.003,1.63,1.68,1.67-1.68a.21.21,0,0,1,.29,0A.26012.26012,0,0,1,368.11,245.26Z" transform="translate(-15.33 -13.97745)"/><path class="cls-2" d="M246.34,287.28c0,1.22-.88,2-2.32,2h-1.53v1.81h-.63v-5.74H244C245.46,285.32,246.34,286.05,246.34,287.28Zm-.6,0c0-.91-.61-1.43-1.76-1.43h-1.52v2.86H244c1.13,0,1.74-.52,1.74-1.43Z" transform="translate(-15.33 -13.97745)"/><path class="cls-2" d="M249.59,286.75v.56h-.14a1.39,1.39,0,0,0-1.45983,1.31647L247.99,288.63a1.21987,1.21987,0,0,0,0,.27v2.19h-.58v-4.34H248v.84A1.63,1.63,0,0,1,249.59,286.75Z" transform="translate(-15.33 -13.97745)"/><path class="cls-2" d="M250.17,288.9a2.2,2.2,0,1,1,2.2,2.2l-.01,0a2.1,2.1,0,0,1-2.19-2Zm3.79,0a1.59,1.59,0,0,0-1.65594-1.52118l-.024.00119a1.60241,1.60241,0,1,0,1.71924,1.66083L254,289a.52955.52955,0,0,0,0-.13Z" transform="translate(-15.33 -13.97745)"/><path class="cls-2" d="M254.18,292.41l.21-.44a.99991.99991,0,0,0,.68.22c.45,0,.7-.28.7-.81v-4.64h.58v4.64a1.16,1.16,0,0,1-.98937,1.30857L255.35,292.69h-.26A1.4,1.4,0,0,1,254.18,292.41Zm1.47-7a.42.42,0,0,1,.42975-.41H256.08a.43.43,0,0,1,.48.35.42.42,0,0,1-.34989.48l-.00012,0h-.13a.42.42,0,0,1-.43-.40976V285.41Z" transform="translate(-15.33 -13.97745)"/><path class="cls-2" d="M261.74,289.07h-3.63a1.59,1.59,0,0,0,1.67,1.5h0a1.67,1.67,0,0,0,1.32-.57l.33.38a2.32,2.32,0,0,1-3.28-.06,2.29,2.29,0,0,1-.64-1.43,2.05,2.05,0,0,1,1.913-2.1784l.027-.00159h.16a2.06,2.06,0,0,1,2.09,2v.17Zm-3.61-.44h3.05a1.53,1.53,0,0,0-3.05,0Z" transform="translate(-15.33 -13.97745)"/><path class="cls-2" d="M262.49,288.9a2.13,2.13,0,0,1,2.0683-2.18994L264.56,286.71h.15a1.86,1.86,0,0,1,1.69.84l-.44.3a1.45005,1.45005,0,0,0-1.25-.65,1.69,1.69,0,0,0,0,3.37A1.44,1.44,0,0,0,266,290l.44.29a1.87992,1.87992,0,0,1-1.69.86,2.14,2.14,0,0,1-2.22-2.05Z" transform="translate(-15.33 -13.97745)"/><path class="cls-2" d="M269.86,290.79a1.37987,1.37987,0,0,1-.91.31,1.16,1.16,0,0,1-1.25928-1.05139L267.69,290.04v-2.8h-.77v-.49h.77v-.95h.58v.95h1.31v.49h-1.31v2.57a.69.69,0,0,0,.57.79H269a.92.92,0,0,0,.63-.22Z" transform="translate(-15.33 -13.97745)"/><path class="cls-2" d="M272.67,288.19a2.89,2.89,0,0,1,2.84946-2.93H275.69a2.79,2.79,0,0,1,2.09.84l-.39.4a2.27,2.27,0,0,0-1.69-.69,2.38,2.38,0,0,0,0,4.76,2.19,2.19,0,0,0,1.69-.7l.39.4a2.77007,2.77007,0,0,1-2.1.83,2.88,2.88,0,0,1-3-2.75Z" transform="translate(-15.33 -13.97745)"/><path class="cls-2" d="M279,285h.58v6.09H279Z" transform="translate(-15.33 -13.97745)"/><path class="cls-2" d="M281,285.38a.41.41,0,0,1,.40988-.41012l.01013.00012a.42005.42005,0,1,1,.13.83h-.13A.42.42,0,0,1,281,285.38Zm.13,1.37h.58v4.31h-.58Z" transform="translate(-15.33 -13.97745)"/><path class="cls-2" d="M287.12,289.07h-3.6a1.59,1.59,0,0,0,1.67493,1.50028L285.2,290.57h0a1.70992,1.70992,0,0,0,1.32-.57l.32.38a2.32,2.32,0,0,1-3.93-1.49,2.08,2.08,0,0,1,2-2.14H285a2,2,0,0,1,2.088,1.908q.00207.046.002.092v.3Zm-3.6-.44h3.05a1.53,1.53,0,0,0-3.05,0Z" transform="translate(-15.33 -13.97745)"/><path class="cls-2" d="M292.27,288.56v2.5h-.58v-2.44a1.16,1.16,0,0,0-.9-1.37,1.07986,1.07986,0,0,0-.4,0,1.4,1.4,0,0,0-1.51,1.28,1.22221,1.22221,0,0,0,0,.27v2.27h-.6v-4.31h.56v.79a1.77993,1.77993,0,0,1,1.63-.82,1.65,1.65,0,0,1,1.81,1.47A1.53141,1.53141,0,0,1,292.27,288.56Z" transform="translate(-15.33 -13.97745)"/><path class="cls-2" d="M296.13,290.79a1.40009,1.40009,0,0,1-.92.31,1.15,1.15,0,0,1-1.20938-1.08737L294,290a.6103.6103,0,0,1,0-.19V287.2h-.78v-.49H294v-.95h.58v.95h1.31v.49h-1.31v2.57a.68.68,0,0,0,.55063.78842l.00936.00159h.18a.94013.94013,0,0,0,.64-.22Z" transform="translate(-15.33 -13.97745)"/><path class="cls-2" d="M302.86,290.53v.53h-4v-.42l2.39-2.32c.65-.64.77-1,.77-1.42,0-.67-.47-1.08-1.35-1.08a2,2,0,0,0-1.57.64l-.41-.36a2.58006,2.58006,0,0,1,2-.82c1.16,0,1.9.59,1.9,1.55a2.33,2.33,0,0,1-.94,1.8l-1.95,1.92Z" transform="translate(-15.33 -13.97745)"/><path class="cls-12" d="M231.41,288.57a7.72959,7.72959,0,0,0-.26-1.16,5,5,0,0,0-1.82-2.59,4.65,4.65,0,1,0,0,7.55,5,5,0,0,0,1.82-2.59c.22-.74.21-1.16.26-1.16a2.59987,2.59987,0,0,1,0,1.24,5,5,0,0,1-1.78,2.87,5.21,5.21,0,1,1,0-8.22,4.87992,4.87992,0,0,1,1.78,2.87A2.40011,2.40011,0,0,1,231.41,288.57Z" transform="translate(-15.33 -13.97745)"/><path class="cls-12" d="M383.64,308.63a9.93914,9.93914,0,0,0,1.08-.13,6,6,0,0,0,4.85-5.95V278.7a18.28207,18.28207,0,0,0-.1-2.77,5.89,5.89,0,0,0-3.48-4.29,6.79,6.79,0,0,0-3-.45H366.18l-149.71.09a5.68,5.68,0,0,0-4.51,2.19,5.99989,5.99989,0,0,0-1.09,2.32,13.74819,13.74819,0,0,0-.13,2.64v24a6,6,0,0,0,.46,2.43,5.78,5.78,0,0,0,3.55,3.22,7.54978,7.54978,0,0,0,2.46.25h37.14l67.31.07,45.38.1H367l-45.38.1H217.21a8.1197,8.1197,0,0,1-2.64-.29,6.42007,6.42007,0,0,1-3.92-3.54,6.64,6.64,0,0,1-.51-2.67V278.45a14.15952,14.15952,0,0,1,.14-2.76,6.36,6.36,0,0,1,6.19-5l149.71.09H383a7.36,7.36,0,0,1,3.11.51,6.21,6.21,0,0,1,3.63,4.56,16.6299,16.6299,0,0,1,.1,2.82v23.85a6.07,6.07,0,0,1-2.12,4.64,5.90993,5.90993,0,0,1-2.89,1.36,4.44906,4.44906,0,0,1-.81.08Z" transform="translate(-15.33 -13.97745)"/><path class="cls-12" d="M299.48,298.16c0,.16-12.85.3-28.69.3s-28.71-.14-28.71-.3,12.85-.3,28.71-.3S299.48,298,299.48,298.16Z" transform="translate(-15.33 -13.97745)"/><path class="cls-12" d="M368.11,288.9a.27.27,0,0,1-.05.15l-1.81,1.82a.2.2,0,0,1-.28,0h0l-1.77-1.8a.21.21,0,1,1,.25-.33l.05.05,1.63,1.69,1.67-1.69a.21.21,0,0,1,.29,0A.37017.37017,0,0,1,368.11,288.9Z" transform="translate(-15.33 -13.97745)"/><path class="cls-2" d="M246.65,333.17c0,1-.73,1.53-2.16,1.53h-2.63V329h2.48c1.28,0,2,.54,2,1.47a1.34,1.34,0,0,1-.87,1.31A1.37,1.37,0,0,1,246.65,333.17Zm-4.19-3.71v2.09h1.82c.92,0,1.46-.36,1.46-1.05s-.54-1-1.46-1Zm3.58,3.65c0-.74-.55-1.06-1.56-1.06h-2v2.15h2c1,0,1.56-.34,1.56-1.1Z" transform="translate(-15.33 -13.97745)"/><path class="cls-2" d="M251.79,330.38v4.31h-.55v-.79a1.74,1.74,0,0,1-1.56.83,1.67,1.67,0,0,1-1.81959-1.50562L247.86,333.22a1.93042,1.93042,0,0,1,0-.34v-2.5h.58v2.44a1.16,1.16,0,0,0,.9,1.37,1.08023,1.08023,0,0,0,.4,0,1.39,1.39,0,0,0,1.4786-1.29538l.0014-.02463a1.00041,1.00041,0,0,0,0-.24v-2.32Z" transform="translate(-15.33 -13.97745)"/><path class="cls-2" d="M257,330.38l-2.16,4.82c-.36.85-.81,1.16-1.43,1.16a1.41,1.41,0,0,1-1-.39l.28-.43a1.00008,1.00008,0,0,0,.77.32c.4,0,.65-.17.9-.72l.19-.41-1.92-4.31h.6l1.63,3.67,1.62-3.67Z" transform="translate(-15.33 -13.97745)"/><path class="cls-2" d="M264.16,331.81h.58V334a3.13,3.13,0,0,1-2.1.73,2.92288,2.92288,0,1,1-.73-5.8,2.99967,2.99967,0,0,1,.73,0,2.81,2.81,0,0,1,2.13.82l-.37.38a2.42,2.42,0,0,0-1.73-.66,2.38,2.38,0,1,0,0,4.75,2.46,2.46,0,0,0,1.49-.44Z" transform="translate(-15.33 -13.97745)"/><path class="cls-2" d="M266.23,329a.42.42,0,1,1,.42.42.42.42,0,0,1-.42-.42Zm.13,1.36h.58v4.31h-.58Z" transform="translate(-15.33 -13.97745)"/><path class="cls-2" d="M269.2,329.86v.52h1.34v.47h-1.32v3.83h-.59v-3.83h-.76v-.49h.76v-.53a1.16,1.16,0,0,1,1-1.28h.28a1.46015,1.46015,0,0,1,.86.27l-.19.44A1,1,0,0,0,270,329a.72.72,0,0,0-.8.86Z" transform="translate(-15.33 -13.97745)"/><path class="cls-2" d="M273.59,334.43a1.42019,1.42019,0,0,1-.91.3,1.16,1.16,0,0,1-1.26-1.05.74015.74015,0,0,1,0-.21v-2.62h-.78v-.49h.78v-.94H272v.94h1.31v.49H272v2.58a.69.69,0,0,0,.57.78h.18a.9.9,0,0,0,.63-.22Z" transform="translate(-15.33 -13.97745)"/><path class="cls-12" d="M231.41,332.2a7.72931,7.72931,0,0,0-.26-1.16,4.99994,4.99994,0,0,0-1.82-2.59,4.64,4.64,0,1,0,0,7.53,4.99994,4.99994,0,0,0,1.82-2.59c.22-.74.21-1.16.26-1.16a2.59987,2.59987,0,0,1,0,1.24,4.99979,4.99979,0,0,1-1.78,2.88,5.20705,5.20705,0,1,1,0-8.23,4.99984,4.99984,0,0,1,1.78,2.88A2.4399,2.4399,0,0,1,231.41,332.2Z" transform="translate(-15.33 -13.97745)"/><path class="cls-12" d="M383.64,352.26a7.26792,7.26792,0,0,0,1.08-.12,6,6,0,0,0,4.85-6V322.33a18.32913,18.32913,0,0,0-.1-2.77,5.81,5.81,0,0,0-3.48-4.28,6.66,6.66,0,0,0-3-.47H366.18l-149.71.08a5.81,5.81,0,0,0-5.6,4.52,13.70958,13.70958,0,0,0-.13,2.64v24a6.00009,6.00009,0,0,0,.46,2.43,5.79,5.79,0,0,0,3.55,3.21,7.30045,7.30045,0,0,0,2.46.27h37.14l67.31.07,45.38.09h12.33l-12.33.06-45.38.09-67.31.07H217.21a7.84969,7.84969,0,0,1-2.64-.28,6.43,6.43,0,0,1-3.92-3.48,6.75007,6.75007,0,0,1-.51-2.67v-23.8a14.22081,14.22081,0,0,1,.14-2.77,6.2,6.2,0,0,1,6.14-5l149.71.1H383a7.2002,7.2002,0,0,1,3.11.5,6.23,6.23,0,0,1,3.63,4.56,16.712,16.712,0,0,1,.11,2.83v23.87a6.09007,6.09007,0,0,1-2.13,4.64,5.90993,5.90993,0,0,1-2.89,1.36,3.641,3.641,0,0,1-.81.07Z" transform="translate(-15.33 -13.97745)"/><path class="cls-12" d="M299.48,341.79c0,.17-12.85.31-28.69.31s-28.71-.14-28.71-.31,12.85-.3,28.71-.3S299.48,341.62,299.48,341.79Z" transform="translate(-15.33 -13.97745)"/><path class="cls-12" d="M368.11,332.53a.2.2,0,0,1-.05.14l-1.81,1.84a.23.23,0,0,1-.31,0l-1.77-1.84a.21.21,0,0,1,0-.29.22.22,0,0,1,.3,0l1.63,1.69,1.67-1.69a.21.21,0,0,1,.29,0A.27.27,0,0,1,368.11,332.53Z" transform="translate(-15.33 -13.97745)"/><circle class="cls-3" cx="341.52" cy="385.31254" r="24.09"/><path class="cls-8" d="M356.85,406.15a.58.58,0,0,1-.58-.58V393a.58.58,0,1,1,1.16,0h0v12.58A.58.58,0,0,1,356.85,406.15Z" transform="translate(-15.33 -13.97745)"/><path class="cls-8" d="M363.14,399.86H350.56a.58.58,0,1,1,0-1.16h12.58a.58.58,0,0,1,0,1.16Z" transform="translate(-15.33 -13.97745)"/><polygon class="cls-3" points="349.94 108.053 349.82 110.853 352.6 110.483 359.04 104.113 356.44 101.513 349.94 108.053"/><path class="cls-3" d="M372.14,115.2l2.52,2.53.38-.37a1.61,1.61,0,0,0,.00311-2.27688L375.04,115.08h0l-.26-.26a1.59,1.59,0,0,0-2.24744-.07241L372.53,114.75l-.08.07Z" transform="translate(-15.33 -13.97745)"/><g class="cls-13"><image width="360" height="640" transform="translate(180.21628 18.20948) scale(0.57111 0.65278)" xlink:href="Frame%204.png"/></g></g></svg>